<?xml version="1.0" encoding="UTF-8"?>
<svg id="_图层_1" data-name="图层 1" xmlns="http://www.w3.org/2000/svg" viewBox="0 0 418.6 420">
  <defs>
    <style>
      .cls-1 {
        fill-rule: evenodd;
      }

      .cls-1, .cls-2 {
        fill: #00561f;
      }
    </style>
  </defs>
  <g>
    <path class="cls-1" d="M256.58,98.37v-4.37c-2.04-1.05-3.62-1.81-4.61-2.04-.47-.12-1.81-.29-2.27-.29-1.11-.17-1.23.29-1.11.88.29,1.28,1.69,1.81,2.1,1.75,1.28-.23,1.69.29,2.62.64.58.17,2.04.52,1.63.93-.46.47-.52.06-.99.35-.41.29-1.92-.58-2.45-.12-.29.29.06,1.17-.53,1.28-.35.06-.87-.46-1.34-.76-1.34-.76-2.74-2.1-4.08-2.68-1.46-.58-1.58.12-1.4,1.05.06.52,0,.76.47,1.75.52,1.05,3.44,1.58,4.49,2.63.64.58,1.23.76.93,1.05-.53.87-.99,1.58-1.92,1.93-.88.41-4.38-3.27-4.43-2.22.12.81.76,1.81.87,2.68.23,1.28.23,2.33.29,2.68.23.82,1.81,1.17,3.61.58.76-.29,1.69-.76,2.51-1.22,1.11-.64,2.27-3.21,2.92-2.86,1.52.82,1.58,1.11,2.68,2.45h0v-3.96c-1.17-.64-2.16-1.23-1.81-1.63.23-.29.93-.47,1.81-.47ZM249.64,87.7c.47,0,3.27-3.73,3.97-5.02.18-.76.76-1.57,1.11-1.92.59-.47.99-.35,1.23.06.29.53.23,1.52-.06,2.91-.18.93-.47.53-.64.82-.99,1.22-2.1,2.39-2.74,3.27-.41.46.23,1.05.58.87,1.17-1.4,2.45-3.27,3.5-4.61v3.91l-.06.06c-.7.76-1.11.41-1.46,1.28.06.23.88.41,1.52.41v3.09c-.35-.23-.76-.41-1.05-.58-.23-.12-.64-.35-1.11-.41-.35-.06-.82.18-1.17,0-.52-.29-.93-.58-1.22-.76-.35-.23-.59-.29-1.05-.52-.47-.23-1.4-.76-2.33-.7-.88.06-1.93,1.34-2.62,1.63-.64.29-1.23.58-1.75.82-.64.29-1.16.53-1.81.23-.93-.41-.7-2.1-.17-2.57.82-.64,1.51-1.17,2.16-1.87.41-.47.64-1.11.99-1.46.35-.35.76-.35,1.11-.41.41-.12.88-.23,1.17.12.29.29.29.7.58.99.41.41.76.41,1.34.35h0ZM256.58,100.48c.35.23.76.46,1.17.7.29.17.52.23.82.35v3.79c-.7.12-1.57-.35-1.98-.88v-3.96ZM258.56,98.72v-3.62c-.58-.35-1.11-.64-1.63-.93l-.35-.17v4.37c.53,0,1.17.06,1.63.29.12,0,.24.06.35.06h0ZM256.58,84.08c.41-.58.82-1.11,1.17-1.46.29-.35.58-.82.82-1.17v4.14c-.11.11-.17.23-.29.35.06.06.12.12.29.18v5.31c-.29.06-.23,0-.46.18-.06.12.23.41.46.47v1.98l-.11-.06c-.64-.41-1.29-.82-1.87-1.17v-3.09c.29,0,.58-.06.7-.23.76-.76,1.11-1.23.24-1.57-.06.06-.47-.35-.94.06v-3.91h0ZM260.72,95.52v-2.8c-.11-.12-.23-.35-.23-.41.12-.12.17-.18.23-.18v-3.44c-.23,0-.53-.06-.58-.12.18-.35.23-.35.58-.53h0v-2.74c-.06.11-.17.29-.35.41-.41.41-1.34.53-1.81.41v5.31l.06-.06c.29-.06.23.24.29.24.17.29.12.35-.29.47h-.06v1.98c.82.53,1.58,1.05,2.16,1.46ZM258.56,101.52c.35.12.64.17.7.41.35,1.17.41,1.34-.06,2.74-.12.41-.35.58-.64.64v-3.79h0ZM260.72,98.43c-.17-.12-.41-.18-.7-.23-.47.06-.82.64-1.46.52v-3.62c.82.53,1.63,1.05,2.16,1.4v1.93h0ZM258.56,81.46c.23-.47.47-.82.76-.82.53,0,1.11.64,1.4,1.11v2.1c-.06-.06-.17-.12-.29-.12-.18,0-.23.18-.29.23-.58.59-1.11,1.05-1.58,1.64v-4.14h0ZM260.72,81.75c.06.06.12.12.12.18.17.41.58-.12.87,0,.58.17,1.11.64,1.17,1.05.12.47.29.99.58,1.22v5.78c-.12-.06-.18-.12-.24-.18-.35-.18-.46.23-.58.47-.06.18.12.47.41.58.17.17.29.29.41.41v3.62c-.06.06-.06.18,0,.23v5.31c-.82-.58-1.63-1.46-2.74-1.98v-1.93c.18.06.29.18.41.23.35.23.82,0,.7-.35,0-.12-.47-.41-1.11-.87v-2.8c.12.06.18.12.29.12.18-.06.47,0,.47-.29-.06-.18-.06-.29-.35-.41-.17-.12-.29-.12-.41,0v-3.44c.18,0,.23-.06.29-.12.35-.29.47-.41.12-.58-.06.06-.12-.06-.41.06v-2.74c.41-.58.47-1.11,0-1.46v-2.1ZM263.46,95.11h.06c1.87.88,2.27,1.34,2.57,2.8.23,1.22.64,2.1-.35,2.8-.88.35-1.58.11-2.28-.29v-5.31ZM263.46,84.2c.18.18.41.23.7.18.99-.12,1.58-2.16,2.74-1.46.64.53.64,1.63.7,2.28,0,.81-.53,1.22-2.56,1.57-.11.06-.17,0-.53.35-.29.47.53.93-.29,1.63-.41.35,1.28,1.69,1.4,1.92.12.29.53.06.47-.41-.06-.12-.12-.58-.29-.99-.23-.7-.58-1.46-.41-1.75.18-.41.88,0,1.63.53.58.41,1.69.41,2.04.93.41.53.76.76.23,2.86-.12.35-.76.58-1.34.76-.93.35-1.46.88-2.39,1.23-.52.23-1.81.7-2.1,1.05v-3.62c.18.11.35.18.53.18.17-.06.41-.35.35-.52-.23-.35-.58-.7-.87-.93v-5.78h0Z"/>
    <path class="cls-1" d="M222.05,67.35c1.28.41,2.16.47,2.22.23.35-1.05.82-2.92.87-4.43.06-.76.7-1.05,1.17-1.17,1.11-.35,1.46-.53,1.98-.35.93.41,1.46,1.22,1.93,2.27.18.52.64-.06-.41,2.21-.46,1.11-.35,1.28-.17,1.52.47.35,1.05.29,1.98.29,1.11-.06,1.81-1.52,3.21,1.4.23.35.29.81-.18,1.23-.58.47-1.69.52-3.03.87-1.75.41-4.26-.06-4.2,1.11.35,2.92,2.22,7.35,5.25,10.91.76.93,1.81,1.81,3.03,2.51,1.75.99,3.21,1.81,2.16,2.04-1.63.35-7.17-.17-8.46-1.34-1.34-1.28-4.08-9.8-4.49-11.49-.06-.06-.18-.12-.3.06-1.34,1.69-4.14,4.78-6.36,5.77-.99.41-2.1-.23-2.39-.64-.35-.41-2.91-1.69-3.15-2.68-.06-.58.29-.52.58-.46,3.62.76,4.38-.18,5.37-.58,2.62-1.11,3.73-3.97,3.5-4.14-3.38-.58-4.61-.47-5.31-1.92-.99-4.61.82-4.84,2.68-4.14.93.41,2.16.88,2.51.93Z"/>
    <path class="cls-1" d="M182.16,76.68c.47-.06.88,0,1.46.47,1.58,1.05,2.04,3.09,2.8,4.14.29,0,.82-.35,1.46-.76.82-.58,1.75-1.17,1.58-1.4-.65-1.22-4.08-9.33-4.79-10.38-.06-.12-.29-.4-.35-.53-1.28-1.69.23-3.03.82-3.21.93-.29,3.56.58,3.61,1.51-.11.99.88,3.33,1.81,5.54.88,1.87,1.63,3.73,2.04,4.37.23.58,2.27-1.17,2.92-1.87.87-.58-.7-3.62-.12-4.55.23-.47,2.74-1.11,3.97.7.58,1.05.88,2.57,1.17,3.97.23.99.58,2.22.76,2.63.18.46-.81,3.09-1.22,3.79-.82.64-2.16-1.46-2.68-2.63-.29-.64-.35-.87-.58-.93-.58.18-1.93,1.11-2.57,1.93-.35.41-.23,1.17-.76,1.58-2.45.99-4.72,2.57-4.9,3.09-.12.29-.88,1.81-.93,2.16-.06.35-1.05.47-1.28.64-.53.53-1.34-.41-2.45-1.05-1.17-.58-.87-1.34-.93-2.57,0-1.34-.76-3.44-1.46-4.79-.35-.7-.76-1.51.64-1.86Z"/>
    <path class="cls-1" d="M154.05,92.31c.47-.23.52-.7.65-1.4.52-1.87.58-2.57,1.16-3.79-.93-.87-1.98-1.69-2.86-2.57-.17-.18-.41-.29-.58-.35-.58-.18-.93-.81-.93-1.57v-.24c0-.58.18-1.22.59-1.86.23-.35,2.45-1.17,3.09-.53.93.93,1.92,2.16,2.92,2.86.06-.06.17-.17.29-.23v7.76c-.12-.11-.23-.18-.29-.23-.35,0-.29.47-.29.64-.23.87-.7,1.52-1.28,1.87-.35.12.99,1.17,1.87,1.57v6.47c-.17-.06-.35-.12-.58-.17-.87-.06-1.63-.06-2.33-.76-.41-.87-.64-1.29-.82-1.86-.12-.23-.29-.47-.52-.76-.7-.76-1.22-1.46-1.63-2.45-.18-.58.18-2.21,1.57-2.39ZM158.37,82.63c.47-.41,1.05-.99,1.63-1.63.53-.76.82-2.1,1.34-2.74.12-.12.24-.18.35-.23v4.9c-.76.29-1.4,1.46-1.57,1.98.06.35.88,1.34,1.57,1.98v13.76c-.35.35-.82.64-1.28.7-.52.06-1.11-.41-2.04-.64v-6.47c.29.18.59.23.7.12.87-.7.99-.87,1.23-1.81.12-.35-1.23-1.63-1.93-2.16v-7.76ZM161.69,78.02c1.05-.64,3.03-.58,3.97-.18.88.47.99,1.46.76,2.16l-.23.53c-.23.7.06,2.56.29,2.74.29.35.53.58,1.11.47.47.06,1.28,1.81.93,2.62-.11.29-.17.58-.58,1.05-.99.93-1.57,2.45-1.87,3.96,3.03,3.03,5.66,6.01,8.57,9.1,1.4,1.75,2.33,3.73,1.63,4.61-.58.53-2.45-.12-4.49-2.04l-8.46-7.93c-.41.64-.82,1.69-1.34,2.92v1.05c.06.35.23.76.12,1.05-.12.18-.23.35-.41.52v-13.76c.41.41.82.7.93.64.7-.52.76-1.92.59-2.45-.17-.76-.53-1.87-1.34-2.22-.06.06-.12.06-.18.06v-4.9Z"/>
    <path class="cls-1" d="M209.3,40c-55.23,0-100,44.77-100,100s44.77,100,100,100,100-44.77,100-100-44.77-100-100-100ZM209.3,233.4c-51.58,0-93.4-41.82-93.4-93.4s41.82-93.4,93.4-93.4,93.4,41.82,93.4,93.4-41.82,93.4-93.4,93.4ZM209.3,49.31c-50.08,0-90.69,40.6-90.69,90.68s40.6,90.69,90.69,90.69,90.69-40.6,90.69-90.69-40.6-90.68-90.69-90.68ZM209.3,228.78c-49.04,0-88.78-39.75-88.78-88.79s39.75-88.78,88.78-88.78,88.79,39.75,88.79,88.78-39.75,88.79-88.79,88.79Z"/>
    <g>
      <path class="cls-2" d="M148.66,125.37l-4.96-1.29.13-.45c1.29.14,2.44-.09,3.42-.7.99-.61,1.62-1.39,1.89-2.35.21-.74.18-1.38-.09-1.93-.27-.54-.67-.89-1.18-1.04-.33-.09-.64-.1-.94-.02-.4.11-.84.35-1.3.72-.34.27-.99.94-1.95,2-1.34,1.49-2.48,2.42-3.41,2.81-.93.38-1.88.43-2.85.15-1.24-.35-2.16-1.14-2.78-2.35-.61-1.22-.71-2.57-.29-4.05.13-.46.3-.89.52-1.28.21-.39.54-.86.98-1.41.25-.3.4-.57.46-.8.05-.19.04-.41-.05-.66-.09-.25-.26-.49-.52-.7l.12-.4,5.58,1.59-.12.4c-1.66-.13-3.03.15-4.12.82-1.08.68-1.78,1.54-2.08,2.59-.23.81-.19,1.53.11,2.14.31.61.75,1,1.34,1.17.35.1.71.1,1.09.01.38-.09.77-.29,1.17-.58.4-.29.97-.85,1.72-1.68,1.04-1.16,1.88-1.96,2.51-2.42.63-.46,1.28-.76,1.94-.91.67-.15,1.34-.13,2.03.07,1.18.34,2.06,1.05,2.64,2.15.58,1.1.68,2.31.31,3.62-.14.48-.33.93-.57,1.35-.18.32-.46.69-.84,1.11-.38.42-.59.73-.65.93-.06.19-.04.35.05.5.09.14.34.32.75.54l-.09.33Z"/>
      <path class="cls-2" d="M147.95,125.72l-1.07,7.86-.42-.06.05-.39c.08-.59.08-1.01-.02-1.24-.1-.24-.24-.42-.45-.54-.2-.13-.74-.25-1.61-.36l-7.46-1.02c-1.36-.19-2.28-.21-2.75-.06-.47.15-.88.43-1.24.87-.36.43-.58,1.01-.68,1.73-.11.82-.02,1.55.27,2.18.29.63.74,1.14,1.36,1.51.61.38,1.73.68,3.34.9l6.21.85c.68.09,1.18.09,1.49-.01.31-.1.54-.25.68-.46.22-.31.37-.78.45-1.39l.41.06-.72,5.27-.41-.06.04-.31c.06-.43.02-.79-.11-1.1-.14-.31-.36-.55-.69-.72-.23-.13-.65-.24-1.27-.32l-5.78-.79c-1.79-.24-3.07-.54-3.83-.88-.76-.34-1.41-1.02-1.96-2.02-.54-1-.71-2.3-.49-3.88.18-1.32.5-2.31.95-2.98.61-.92,1.32-1.52,2.12-1.83.8-.3,1.84-.37,3.1-.19l7.46,1.02c.88.12,1.43.15,1.65.08.23-.07.42-.21.58-.44.16-.22.28-.65.36-1.3l.42.06Z"/>
      <path class="cls-2" d="M146.15,144.3l-9.14,8.06,6.6-.33c.92-.05,1.54-.21,1.85-.49.42-.39.6-1,.54-1.86l.42-.02.26,5.07-.42.02c-.12-.65-.25-1.07-.39-1.29-.14-.22-.37-.38-.67-.49-.3-.11-.82-.15-1.55-.11l-12.78.65-.02-.39,12.26-11.03-9.76.5c-.88.05-1.47.28-1.76.7-.29.42-.42.89-.39,1.41l.02.36-.42.02-.28-5.45.42-.02c.05.85.25,1.42.61,1.74.36.31.94.45,1.76.41l10.83-.55.39-.35c.39-.35.64-.65.76-.9.12-.25.17-.62.16-1.09l.42-.02.28,5.45Z"/>
      <path class="cls-2" d="M153.34,173.44l-.39.16c-.25-.45-.53-.75-.84-.92-.44-.23-1.46-.47-3.08-.71l-6.4-1.04-3.46,1.37c-.74.29-1.18.51-1.33.66-.15.15-.25.36-.29.65-.04.28,0,.61.16.99l.32.8-.39.15-3.18-8.02.39-.15.3.75c.17.42.37.72.62.91.17.14.4.22.68.23.2.01.66-.13,1.37-.41l2.87-1.14,4.79-5.79c.94-1.15,1.47-1.9,1.57-2.26.11-.36.07-.77-.1-1.23l.39-.16,2.72,6.85-.39.16-.12-.3c-.17-.42-.34-.68-.52-.8-.18-.12-.34-.15-.48-.1-.25.1-.78.63-1.57,1.6l-3.71,4.46,5.33.86c1.31.22,2.13.26,2.47.12.19-.08.31-.23.37-.46.08-.31.01-.79-.21-1.44l.39-.16,1.73,4.36Z"/>
      <path class="cls-2" d="M146.91,182.82l-2.95-4.56-1.61.27c-.53.09-.94.23-1.21.4-.36.23-.53.55-.52.96.01.24.21.71.59,1.41l-.35.23-2.78-4.29.35-.23c.37.42.81.68,1.32.77.51.09,1.39.04,2.66-.16l13.29-2.05.12.18-7.57,11.51c-.71,1.09-1.11,1.86-1.19,2.32-.06.34.03.72.25,1.14l-.35.23-4.04-6.24.35-.23.17.26c.32.5.62.81.89.92.19.07.38.05.57-.07.11-.07.22-.17.32-.29.05-.05.22-.3.53-.75l1.16-1.73ZM147.4,182.04l3.2-4.8-5.73.9,2.52,3.9Z"/>
      <path class="cls-2" d="M167.06,189.48l-3.02,2.87-.28-.3c.53-.84.85-1.51.94-2.01.1-.5.07-1.02-.11-1.57-.1-.3-.4-.71-.89-1.23l-.79-.83-8.59,8.17c-.57.54-.9.91-.98,1.11-.08.2-.09.44-.02.73.07.29.25.59.56.9l.35.37-.3.29-5.54-5.83.31-.29.35.37c.31.32.61.53.91.61.21.07.45.06.72-.04.19-.06.56-.36,1.12-.89l8.59-8.16-.76-.81c-.71-.75-1.39-1.14-2.03-1.18-.89-.06-1.81.25-2.75.9l-.3-.31,3.02-2.87,9.51,10Z"/>
      <path class="cls-2" d="M165.92,200.12l-4.4-3.41,1.21-1.56,4.4,3.41-1.21,1.56Z"/>
      <path class="cls-2" d="M179.82,197.34l-2.56,4.45-.4-.24c.48-1.21.56-2.37.23-3.49-.33-1.11-.92-1.93-1.77-2.45-.66-.4-1.29-.54-1.89-.42-.6.12-1.04.41-1.32.86-.18.29-.27.59-.27.9,0,.42.12.9.35,1.45.17.4.64,1.2,1.41,2.41,1.08,1.69,1.68,3.03,1.81,4.03.12.99-.08,1.92-.61,2.79-.67,1.1-1.67,1.78-3.01,2.05-1.34.27-2.66,0-3.98-.79-.41-.25-.78-.53-1.1-.84-.32-.31-.68-.75-1.1-1.32-.23-.32-.45-.53-.65-.66-.17-.1-.39-.14-.65-.13-.27.01-.54.12-.82.31l-.36-.22,3.02-4.96.36.22c-.56,1.57-.66,2.96-.3,4.19.36,1.22,1.02,2.12,1.95,2.69.72.44,1.42.59,2.09.46.67-.13,1.16-.46,1.48-.98.19-.31.29-.66.3-1.05.01-.39-.07-.82-.25-1.29-.18-.47-.57-1.17-1.16-2.11-.84-1.31-1.39-2.34-1.66-3.07-.27-.73-.39-1.44-.37-2.12.03-.68.23-1.33.6-1.94.64-1.04,1.56-1.7,2.78-1.97,1.22-.27,2.41-.05,3.58.66.43.26.81.56,1.15.91.26.26.54.63.85,1.11.31.47.55.77.72.87.17.1.33.13.49.08.16-.04.4-.24.72-.58l.29.18Z"/>
      <path class="cls-2" d="M184.63,200.84l-2.32,5.81.28.11c.91.36,1.68.34,2.31-.07.63-.41,1.22-1.14,1.78-2.21l.4.16-2.98,7.47-.4-.16c.24-.85.33-1.59.26-2.21-.06-.63-.24-1.1-.52-1.42-.29-.32-.77-.62-1.45-.89l-1.6,4.02c-.31.79-.47,1.28-.48,1.48,0,.2.06.4.2.58.14.18.41.36.82.52l.85.34c1.33.53,2.53.65,3.58.35,1.05-.3,2-1.01,2.86-2.13l.39.16-2.45,4.28-12.34-4.92.16-.39.48.19c.41.16.78.22,1.09.18.22-.03.43-.14.62-.34.14-.14.36-.56.65-1.28l3.74-9.39c.26-.64.4-1.05.42-1.21.03-.27-.03-.51-.16-.72-.19-.3-.52-.55-.98-.73l-.47-.19.15-.39,11.95,4.76-1.68,4.22-.4-.16c.21-1.11.22-1.97.03-2.56-.19-.59-.58-1.13-1.17-1.61-.34-.28-1.05-.64-2.13-1.07l-1.47-.59Z"/>
      <path class="cls-2" d="M196.66,203.81l5.75,10.73,1.18-6.5c.16-.91.15-1.54-.06-1.91-.28-.5-.84-.81-1.68-.95l.08-.41,4.99.91-.08.41c-.65-.03-1.1,0-1.35.08-.24.09-.45.27-.63.54-.18.27-.33.77-.46,1.48l-2.29,12.59-.38-.07-7.93-14.45-1.75,9.61c-.16.87-.07,1.49.27,1.87.34.38.77.61,1.28.71l.36.06-.08.41-5.36-.98.08-.41c.83.14,1.44.08,1.83-.2.39-.27.65-.81.8-1.62l1.94-10.67-.25-.46c-.25-.46-.48-.78-.7-.95-.22-.17-.56-.3-1.02-.41l.07-.41,5.36.98Z"/>
      <path class="cls-2" d="M211.38,205.69l7.85-1.16.06.42-.39.06c-.59.09-.99.21-1.19.37-.2.15-.34.35-.4.58-.06.23-.03.78.1,1.65l1.1,7.45c.2,1.36.44,2.25.7,2.66.27.41.67.73,1.18.95.51.22,1.13.28,1.85.17.82-.12,1.5-.41,2.02-.86.53-.46.89-1.03,1.08-1.72.19-.69.17-1.85-.07-3.46l-.91-6.2c-.1-.68-.24-1.16-.43-1.43-.19-.27-.39-.45-.63-.53-.36-.12-.85-.14-1.46-.05l-.06-.41,5.26-.77.06.42-.31.04c-.43.06-.77.2-1.03.42-.26.21-.43.5-.5.86-.06.25-.05.69.04,1.31l.85,5.77c.26,1.79.34,3.1.22,3.92-.12.83-.58,1.64-1.4,2.44-.81.8-2.01,1.32-3.59,1.55-1.32.19-2.36.17-3.13-.08-1.05-.33-1.83-.85-2.34-1.53-.51-.69-.86-1.66-1.05-2.93l-1.1-7.45c-.13-.88-.26-1.41-.39-1.61-.13-.2-.32-.34-.58-.44-.26-.09-.71-.09-1.35.02l-.06-.41Z"/>
      <path class="cls-2" d="M230.75,201.85l10.39,6.36-2.26-6.21c-.32-.87-.66-1.41-1.01-1.62-.49-.29-1.14-.28-1.93.03l-.15-.39,4.78-1.74.14.39c-.58.3-.96.55-1.12.75-.16.2-.25.46-.27.79-.01.32.1.83.35,1.51l4.38,12.03-.36.13-14.15-8.47,3.34,9.18c.3.83.7,1.32,1.18,1.48.49.15.97.14,1.46-.04l.34-.12.14.39-5.12,1.87-.15-.39c.79-.3,1.29-.66,1.48-1.1.2-.43.15-1.03-.12-1.8l-3.71-10.19-.45-.27c-.45-.27-.81-.43-1.09-.46-.28-.03-.64.02-1.09.17l-.14-.4,5.13-1.87Z"/>
      <path class="cls-2" d="M254.72,207.08l.21.36-6.98,3.98-.21-.37.44-.25c.39-.22.66-.47.82-.74.12-.19.16-.42.13-.7-.02-.2-.22-.63-.6-1.3l-5-8.79c-.39-.68-.67-1.09-.84-1.22-.17-.13-.4-.2-.69-.2-.29,0-.63.1-1,.32l-.44.25-.21-.36,6.98-3.98.21.36-.44.25c-.39.22-.66.47-.82.74-.12.19-.16.42-.13.7.02.2.22.63.6,1.3l5.01,8.78c.39.68.67,1.09.84,1.22.17.13.41.19.7.2.29,0,.63-.1,1-.32l.44-.25Z"/>
      <path class="cls-2" d="M259.33,184.51l.27.32c-.37.43-.57.98-.58,1.64,0,.49.2,1.48.61,2.95l3.43,12.41-.29.24-11.86-6.03c-1.43-.73-2.31-1.12-2.64-1.18-.33-.06-.75.07-1.25.4l-.27-.32,5.67-4.71.27.32-.19.16c-.51.43-.81.78-.89,1.06-.06.2-.02.38.12.55.09.1.21.21.38.31.16.1.64.36,1.42.76l7.41,3.79-2.01-7.18c-.25-.86-.43-1.43-.54-1.7-.11-.27-.23-.48-.36-.63-.15-.17-.32-.29-.53-.35-.2-.06-.43-.04-.66.04-.34.11-.71.33-1.12.68l-.27-.32,3.88-3.22Z"/>
      <path class="cls-2" d="M262.35,181.47l5.02,3.72.18-.25c.58-.78.76-1.53.52-2.25-.23-.72-.79-1.48-1.68-2.29l.26-.35,6.46,4.79-.26.34c-.76-.45-1.45-.72-2.07-.82-.62-.1-1.12-.05-1.51.14-.39.19-.8.59-1.23,1.17l3.48,2.58c.68.5,1.12.78,1.31.84s.4.04.61-.05.45-.3.71-.66l.54-.74c.86-1.15,1.27-2.27,1.25-3.37-.02-1.09-.46-2.19-1.33-3.31l.25-.34,3.51,3.46-7.91,10.67-.34-.25.31-.41c.27-.36.42-.69.45-1.01.03-.22-.02-.45-.17-.69-.1-.17-.45-.49-1.07-.95l-8.12-6.02c-.56-.41-.91-.65-1.06-.72-.26-.1-.51-.11-.74-.03-.34.1-.66.36-.96.76l-.3.41-.34-.25,7.66-10.33,3.65,2.71-.26.35c-1.02-.49-1.85-.71-2.47-.68-.62.03-1.24.27-1.86.72-.36.26-.89.85-1.58,1.79l-.94,1.28Z"/>
      <path class="cls-2" d="M276.14,172.92l4,1.59c.77.31,1.28.45,1.52.44.24-.02.46-.12.68-.31.22-.19.45-.61.71-1.27l.39.15-2.91,7.31-.39-.16c.26-.66.38-1.13.35-1.42-.03-.28-.12-.51-.28-.68-.16-.17-.62-.41-1.39-.72l-9.27-3.68c-.77-.31-1.28-.45-1.51-.44-.24.01-.47.12-.68.31-.21.19-.45.61-.71,1.27l-.39-.15,2.64-6.64c.69-1.73,1.31-2.94,1.87-3.65.56-.71,1.26-1.18,2.1-1.43.84-.25,1.7-.2,2.56.14,1.05.42,1.77,1.14,2.16,2.18.24.66.3,1.46.17,2.42l6.2-1.51c.81-.2,1.32-.37,1.55-.49.33-.2.58-.49.76-.86l.39.15-1.79,4.5-8.34,2.01-.37.94ZM269.14,170.14l6.25,2.49.24-.6c.39-.98.59-1.74.6-2.3.01-.56-.16-1.06-.51-1.53-.36-.46-.91-.84-1.66-1.14-1.09-.43-1.99-.5-2.72-.19-.72.3-1.31,1.02-1.76,2.15l-.45,1.13Z"/>
      <path class="cls-2" d="M272.75,151.82l5.07.72-.08.46c-1.3,0-2.41.37-3.32,1.08-.91.72-1.45,1.57-1.61,2.55-.13.76-.02,1.4.31,1.91.33.51.76.81,1.29.9.34.06.65.03.93-.08.39-.16.79-.45,1.21-.87.3-.31.87-1.05,1.71-2.21,1.17-1.63,2.19-2.69,3.07-3.18.88-.48,1.82-.64,2.81-.47,1.27.21,2.28.89,3.02,2.03.75,1.14,1,2.47.74,3.99-.08.48-.2.92-.37,1.33-.17.41-.44.91-.82,1.51-.21.33-.33.62-.37.85-.03.19,0,.41.12.65.11.24.31.45.59.64l-.07.41-5.73-.95.07-.41c1.67-.06,3-.49,4-1.28,1-.8,1.59-1.73,1.77-2.81.14-.83.02-1.54-.35-2.11-.37-.57-.86-.91-1.46-1.01-.36-.06-.72-.02-1.09.11-.37.14-.73.37-1.1.71-.37.34-.88.96-1.52,1.86-.91,1.27-1.65,2.16-2.23,2.69-.58.53-1.19.9-1.83,1.13-.64.23-1.32.28-2.03.16-1.21-.2-2.16-.82-2.87-1.85-.7-1.03-.94-2.22-.72-3.57.08-.49.22-.96.42-1.4.15-.34.39-.73.71-1.2.33-.46.51-.79.54-1,.03-.19,0-.36-.1-.49-.1-.13-.37-.29-.81-.46l.06-.34Z"/>
      <path class="cls-2" d="M289.04,142.86h.42s-.11,8.04-.11,8.04h-.42s0-.52,0-.52c0-.44-.06-.81-.22-1.08-.1-.2-.28-.35-.54-.46-.18-.09-.66-.13-1.43-.14l-10.11-.15c-.79-.01-1.28.02-1.48.1-.2.08-.37.25-.52.5-.15.25-.23.59-.24,1.02v.51s-.43,0-.43,0l.12-8.04h.42s0,.52,0,.52c0,.45.07.8.22,1.08.1.2.28.35.54.47.18.08.65.13,1.43.14l10.11.14c.79.01,1.28-.03,1.48-.11.2-.08.37-.25.52-.5.15-.25.23-.59.23-1.02v-.51Z"/>
      <path class="cls-2" d="M273.27,128.52l4.13-.54.05.41c-.92.36-1.57.72-1.95,1.06-.38.35-.66.79-.84,1.33-.1.3-.1.81,0,1.52l.15,1.14,11.76-1.53c.78-.1,1.26-.21,1.45-.32.18-.11.33-.3.44-.57.11-.27.14-.62.08-1.06l-.07-.5.42-.06,1.04,7.98-.42.05-.07-.51c-.06-.44-.18-.79-.37-1.04-.13-.18-.33-.31-.6-.39-.19-.06-.67-.04-1.43.06l-11.75,1.53.14,1.1c.13,1.03.45,1.74.94,2.15.69.57,1.61.87,2.76.9l.06.43-4.12.54-1.79-13.69Z"/>
      <path class="cls-2" d="M268.65,112.43l.4-.12c.21.47.46.8.75,1,.41.27,1.41.6,2.99.99l6.28,1.63,3.57-1.04c.76-.22,1.22-.4,1.38-.53.16-.13.28-.34.35-.62.07-.28.05-.61-.06-1l-.24-.83.4-.12,2.42,8.28-.4.12-.23-.77c-.13-.43-.3-.76-.53-.97-.16-.16-.37-.26-.65-.29-.2-.03-.67.06-1.41.28l-2.96.87-5.31,5.32c-1.05,1.05-1.64,1.75-1.78,2.1-.14.35-.14.76-.01,1.23l-.4.12-2.07-7.07.4-.12.09.32c.12.43.27.71.45.84.17.13.33.18.47.14.26-.08.84-.56,1.72-1.45l4.1-4.09-5.22-1.35c-1.28-.34-2.1-.46-2.46-.36-.19.06-.33.2-.41.42-.11.3-.08.79.07,1.46l-.4.12-1.32-4.5Z"/>
    </g>
    <path class="cls-2" d="M209.3,137.93c-.38,0-.68.31-.68.69v5.49c0,.38.31.69.68.69s.69-.31.69-.69v-5.49c0-.38-.31-.69-.69-.69ZM231.54,113.54c-2.88-9.56-11.74-16.52-22.24-16.52s-19.36,6.96-22.24,16.52c-15.75.9-28.25,13.95-28.25,29.93s12.5,29.03,28.25,29.93c2.88,9.56,11.74,16.52,22.24,16.52s19.36-6.96,22.24-16.52c15.75-.9,28.25-13.96,28.25-29.93s-12.5-29.03-28.25-29.93ZM255.59,145.1c-.02.32-.04.63-.07.95-.02.15-.04.29-.05.44-.03.27-.06.54-.1.82-.02.16-.05.32-.08.48-.04.25-.09.51-.13.76-.03.17-.07.33-.11.5-.05.24-.11.48-.16.72-.04.17-.09.34-.14.51-.06.23-.13.46-.19.69-.05.17-.11.34-.16.5-.07.22-.15.45-.23.67-.06.17-.12.33-.18.5-.08.22-.17.43-.26.65-.07.16-.14.33-.21.49-.09.21-.19.42-.28.63-.08.16-.15.32-.23.48-.1.21-.21.41-.31.61-.08.16-.16.31-.25.47-.11.2-.23.4-.34.6-.09.15-.18.3-.27.45-.12.2-.25.39-.38.58-.09.14-.19.29-.28.43-.13.2-.27.39-.41.58-.1.14-.19.27-.29.41-.15.2-.31.39-.46.59-.1.12-.19.24-.29.36-.19.23-.38.45-.58.67-.07.08-.14.16-.21.24-.27.29-.54.58-.82.86-.11.11-.22.21-.33.32-.18.17-.35.35-.54.51-.13.12-.27.24-.41.36-.17.15-.33.29-.5.43-.15.12-.3.24-.44.36-.17.13-.33.26-.5.39-.16.12-.32.23-.48.35-.17.12-.33.24-.5.35-.16.11-.33.22-.5.33-.17.11-.34.22-.51.33-.17.11-.35.21-.52.31-.17.1-.34.2-.52.3-.18.1-.36.2-.54.29-.17.09-.35.18-.53.27-.19.09-.38.18-.57.27-.18.08-.35.16-.53.24-.19.09-.39.17-.58.25-.18.07-.36.14-.54.21-.2.08-.4.15-.6.23-.18.06-.37.12-.55.18-.21.07-.41.14-.62.2-.19.06-.37.11-.56.16-.21.06-.42.12-.64.17-.18.04-.37.09-.56.13-.22.05-.44.1-.66.14-.18.04-.37.07-.55.1-.23.04-.46.08-.68.12-.17.03-.35.04-.52.07-1.09.14-2.2.22-3.32.22-.54,0-1.07-.02-1.59-.05-.19,1.41-.53,2.78-1.01,4.08h0c-.09.23-.18.47-.28.7-.05.12-.11.25-.16.37-.06.13-.11.26-.18.39-.06.13-.12.25-.18.38-.06.13-.13.25-.19.38-.06.12-.12.24-.19.36-.08.15-.17.29-.25.44-.1.17-.2.34-.31.5-.08.14-.17.27-.26.4-.07.11-.15.22-.23.33-.08.12-.16.23-.25.35-.08.11-.16.21-.24.32-.09.12-.19.24-.28.36-.08.09-.15.19-.23.28-.16.2-.33.39-.5.57-.08.09-.16.17-.24.26-.11.12-.22.23-.33.35-.08.09-.17.18-.26.26-.11.11-.23.22-.34.33-.08.08-.17.16-.26.24-.16.15-.32.29-.49.43-.09.07-.17.14-.26.21-.16.13-.32.26-.49.39-.09.06-.18.13-.27.2-.14.1-.28.2-.42.3-.09.06-.18.12-.27.18-.16.11-.32.21-.48.31-.07.05-.14.09-.22.14-.23.14-.46.27-.7.4-.07.04-.15.08-.22.12-.18.09-.35.18-.53.27-.09.05-.18.09-.27.13-.17.08-.35.16-.52.24-.09.04-.17.08-.26.11-.25.11-.51.21-.77.3-.02,0-.04.01-.06.02-.25.09-.5.18-.76.25-.09.03-.17.05-.26.08-.19.06-.38.11-.58.16-.09.02-.18.05-.28.07-.21.05-.43.1-.65.15-.06.02-.13.03-.2.05-.28.06-.56.11-.85.15-.07.01-.14.02-.2.03-.22.03-.44.06-.67.08-.1.01-.19.02-.29.03-.21.02-.42.03-.63.05-.09,0-.18.01-.27.02-.3.01-.59.02-.89.02h0c-.3,0-.6-.01-.89-.02-.09,0-.18-.01-.27-.02-.21-.01-.41-.03-.62-.05-.1,0-.2-.02-.3-.03-.22-.02-.44-.05-.65-.08-.07-.01-.15-.02-.22-.03-.28-.04-.56-.09-.84-.15-.07-.02-.14-.03-.22-.05-.21-.04-.42-.09-.62-.14-.1-.02-.2-.05-.29-.08-.19-.05-.37-.1-.56-.16-.09-.03-.19-.05-.28-.08-.24-.08-.47-.15-.71-.24-.05-.02-.11-.04-.16-.06-.24-.09-.47-.18-.7-.28-.09-.04-.19-.08-.29-.12-.16-.07-.33-.14-.49-.22-.1-.05-.2-.1-.3-.15-.16-.08-.32-.16-.48-.25-.09-.04-.18-.09-.27-.14-.23-.13-.46-.26-.68-.39-.09-.05-.18-.11-.27-.17-.14-.09-.29-.18-.43-.27-.1-.07-.21-.14-.31-.21-.13-.09-.25-.18-.38-.27-.1-.07-.2-.15-.3-.22-.14-.11-.27-.21-.41-.32-.14-.11-.28-.23-.42-.34-.13-.11-.26-.22-.39-.34-.1-.09-.2-.18-.3-.28-.1-.09-.2-.19-.3-.28-.1-.1-.2-.2-.3-.3-.09-.1-.18-.19-.27-.29-.1-.1-.19-.2-.29-.31-.15-.16-.29-.33-.43-.49-.11-.13-.22-.27-.32-.4-.08-.1-.15-.19-.23-.29-.1-.12-.18-.24-.27-.37-.07-.1-.14-.19-.21-.29-.09-.13-.18-.25-.26-.38-.06-.09-.12-.19-.19-.29-.15-.24-.3-.49-.45-.74-.05-.09-.11-.18-.16-.28-.08-.14-.15-.28-.23-.42-.05-.1-.1-.2-.15-.3-.07-.14-.14-.29-.21-.43-.05-.1-.09-.2-.14-.3-.07-.15-.13-.3-.2-.45-.02-.04-.03-.09-.05-.14-.59-1.46-1.01-3.01-1.23-4.62-.53.03-1.06.05-1.59.05-1.14,0-2.26-.08-3.36-.23-.16-.02-.32-.04-.48-.06-.24-.03-.48-.08-.72-.12-.17-.03-.35-.06-.52-.09-.23-.05-.46-.1-.69-.15-.18-.04-.35-.08-.52-.12-.23-.06-.45-.12-.67-.18-.18-.05-.35-.1-.53-.15-.22-.07-.43-.14-.65-.21-.17-.06-.35-.11-.52-.17-.21-.08-.42-.16-.63-.24-.17-.06-.34-.13-.51-.2-.2-.09-.41-.17-.61-.26-.17-.07-.34-.15-.5-.23-.2-.09-.4-.19-.59-.29-.17-.08-.33-.17-.49-.25-.19-.1-.39-.21-.58-.31-.16-.09-.32-.18-.48-.27-.19-.11-.38-.22-.56-.34-.16-.1-.31-.2-.46-.3-.18-.12-.37-.24-.54-.36-.15-.1-.3-.21-.45-.32-.18-.13-.36-.25-.53-.39-.15-.11-.29-.22-.43-.34-.17-.14-.34-.27-.51-.41-.14-.12-.28-.24-.42-.36-.16-.14-.33-.28-.49-.43-.13-.12-.26-.25-.39-.37-.16-.15-.32-.3-.47-.46-.11-.11-.21-.22-.32-.33-.31-.32-.6-.65-.9-.98-.13-.15-.26-.29-.38-.44-.13-.16-.25-.32-.38-.48-.12-.16-.25-.31-.37-.47-.12-.16-.24-.33-.35-.49-.12-.16-.24-.32-.35-.49-.11-.17-.22-.33-.33-.5-.11-.17-.22-.34-.33-.51-.1-.17-.21-.34-.31-.52-.1-.18-.21-.35-.3-.53-.1-.18-.19-.35-.28-.53-.1-.18-.19-.36-.28-.54-.09-.18-.17-.36-.26-.54-.09-.19-.17-.38-.25-.56-.08-.18-.16-.37-.23-.55-.08-.19-.15-.39-.23-.58-.07-.19-.14-.37-.2-.56-.07-.2-.14-.4-.2-.6-.06-.19-.12-.38-.18-.57-.06-.2-.12-.41-.18-.62-.05-.19-.11-.38-.15-.58-.05-.21-.1-.42-.15-.63-.04-.19-.09-.39-.13-.58-.04-.22-.08-.44-.12-.66-.03-.19-.07-.39-.1-.58-.03-.23-.06-.46-.09-.69-.02-.19-.05-.38-.07-.57-.02-.25-.04-.5-.06-.75-.01-.18-.03-.35-.04-.53-.01-.33-.02-.67-.02-1,0-.09,0-.19,0-.28s0-.18,0-.28c0-.34,0-.67.02-1,0-.18.03-.35.04-.53.02-.25.03-.5.06-.75.02-.19.05-.38.07-.57.03-.23.05-.46.09-.69.03-.2.06-.39.1-.58.04-.22.08-.44.12-.66.04-.19.08-.39.13-.58.05-.21.09-.42.15-.63.05-.2.1-.39.15-.58.06-.21.11-.41.18-.62.06-.19.12-.38.18-.57.07-.2.13-.4.2-.6.06-.19.13-.38.2-.56.07-.19.15-.39.23-.58.08-.19.15-.37.23-.55.08-.19.17-.38.25-.56.09-.18.17-.36.26-.54.09-.18.18-.36.28-.55.09-.18.19-.36.28-.53.1-.18.2-.35.3-.53.1-.17.2-.34.31-.52.1-.17.22-.34.33-.51.11-.17.22-.34.33-.51.11-.17.23-.33.35-.49.12-.16.23-.33.35-.49.12-.16.25-.31.37-.47.13-.16.25-.32.38-.48.13-.15.25-.29.38-.44.29-.33.59-.66.9-.98.1-.11.21-.22.32-.33.15-.16.31-.3.47-.45.13-.12.26-.25.39-.38.16-.15.33-.29.49-.43.14-.12.28-.24.42-.36.16-.14.34-.27.51-.41.14-.11.29-.23.43-.34.17-.13.35-.26.53-.39.15-.11.3-.21.45-.32.18-.12.36-.24.54-.36.15-.1.31-.2.46-.3.18-.12.37-.23.56-.34.16-.09.32-.18.48-.28.19-.11.38-.21.58-.31.17-.08.33-.17.49-.25.2-.1.4-.19.59-.29.17-.08.34-.15.5-.23.2-.09.41-.18.61-.26.17-.07.34-.13.51-.2.21-.08.42-.16.63-.24.17-.06.34-.12.52-.18.22-.07.43-.14.65-.21.17-.05.35-.1.53-.15.22-.06.44-.12.67-.18.17-.04.35-.08.52-.12.23-.05.46-.11.69-.15.17-.03.34-.06.52-.09.24-.04.47-.09.72-.12.16-.03.32-.04.48-.06,1.1-.14,2.22-.23,3.36-.23.54,0,1.07.02,1.6.05.21-1.56.6-3.07,1.17-4.49.03-.09.07-.18.11-.27.06-.14.13-.29.19-.43.05-.11.09-.22.14-.32.07-.14.13-.28.2-.42.05-.11.11-.21.16-.32.07-.14.14-.27.22-.41.06-.11.12-.21.18-.32.13-.23.27-.46.41-.68.07-.11.13-.21.2-.32.08-.12.17-.25.25-.37.07-.1.15-.21.22-.31.09-.12.17-.24.26-.35.08-.1.16-.21.25-.31.08-.11.17-.22.26-.32.16-.19.32-.37.48-.56.09-.1.18-.2.27-.29.1-.1.2-.21.29-.31.1-.1.19-.19.29-.29.1-.1.21-.2.31-.3.09-.09.19-.18.29-.26.14-.13.28-.25.42-.37.12-.1.24-.2.36-.3.14-.11.29-.23.43-.34.1-.07.19-.14.29-.21.13-.09.26-.19.39-.28.1-.07.2-.13.3-.2.14-.1.3-.19.44-.29.09-.05.17-.11.25-.16.23-.14.46-.27.69-.39.08-.05.17-.09.25-.13.16-.09.33-.17.49-.25.1-.05.2-.1.3-.14.16-.08.33-.15.5-.22.09-.04.18-.08.28-.12.24-.1.48-.19.72-.28.04-.02.09-.03.13-.05.23-.08.47-.17.72-.24.09-.03.18-.06.27-.08.19-.06.37-.11.56-.16.1-.03.19-.05.29-.08.21-.05.42-.1.63-.14.07-.01.14-.03.22-.05.28-.06.56-.11.84-.15.07-.01.14-.02.22-.03.22-.03.44-.06.66-.08.1-.01.19-.02.29-.03.21-.02.41-.03.62-.05.09,0,.18-.01.27-.02.29-.01.59-.02.89-.02h0c.3,0,.6,0,.89.02.09,0,.18,0,.27.02.21.01.42.03.63.05.1.01.19.02.29.03.23.02.45.05.67.09.07.01.13.02.2.03.29.04.57.09.85.15.07.01.13.03.2.04.22.05.43.1.65.15.09.02.19.05.28.07.2.05.39.11.58.17.08.03.17.05.25.08.26.08.52.17.77.26.01,0,.02,0,.04.01.26.1.52.2.78.31.08.04.17.07.25.11.18.08.35.16.53.24.09.04.18.09.27.13.18.09.36.18.54.28.07.03.14.07.21.11.24.13.47.27.71.4.07.04.14.09.21.13.17.1.33.21.5.32.09.06.18.12.26.18.15.1.29.2.43.31.08.06.17.12.25.19.17.13.35.27.52.41.07.06.13.11.2.17.18.15.35.3.53.46.08.07.16.15.24.23.12.11.24.23.36.34.09.08.17.17.25.25.12.12.23.24.35.36.08.08.15.16.22.24.17.19.34.38.5.58.07.08.14.17.21.26.1.13.2.26.3.39.08.1.15.2.23.31.09.12.17.24.26.37.07.11.14.21.22.32.1.14.19.29.28.43.09.15.18.29.27.44.09.16.19.32.28.48.06.11.12.23.18.34.07.13.14.26.2.39.06.12.12.24.18.36.06.13.12.27.18.41.05.12.11.24.16.36.1.23.19.46.28.7h0c.48,1.3.82,2.66,1.01,4.08.53-.03,1.06-.05,1.59-.05,1.12,0,2.23.08,3.32.22.17.02.35.04.52.07.23.03.46.08.68.12.18.03.37.06.55.1.22.04.44.1.66.15.19.04.37.08.56.13.21.05.43.11.64.17.18.05.37.1.56.16.21.06.41.13.62.2.18.06.37.12.55.19.2.07.4.15.6.22.18.07.37.14.54.21.2.08.39.16.58.25.18.08.36.16.53.24.19.09.38.18.57.27.18.09.35.18.53.27.18.1.37.2.54.3.17.1.35.2.52.3.17.1.35.21.52.31.17.11.34.22.51.33.17.11.34.22.5.33.17.12.33.23.5.35.16.11.32.23.48.35.17.13.33.26.5.39.15.12.3.23.44.36.17.14.34.29.5.44.14.12.27.24.41.36.18.17.36.34.54.51.11.11.22.21.33.32.28.28.56.57.82.86.07.08.14.16.21.24.2.22.39.44.58.67.1.12.19.24.29.36.15.19.31.39.46.59.1.13.2.27.29.4.14.19.28.38.41.58.1.14.19.29.28.43.13.19.26.39.38.58.09.15.18.3.27.45.12.2.23.4.34.6.09.16.17.31.25.47.11.2.21.4.31.61.08.16.15.32.23.48.1.21.19.42.28.63.07.16.14.33.21.49.09.21.18.43.26.65.06.17.12.33.18.5.08.22.15.44.23.67.06.17.11.34.16.51.07.23.13.46.19.69.05.17.09.34.14.5.06.24.11.48.16.72.04.17.08.33.11.5.05.25.09.5.13.76.03.16.06.32.08.48.04.27.07.54.1.82.02.15.04.29.05.44.03.31.05.63.07.95,0,.11.02.22.02.33.02.43.03.86.03,1.3s-.01.87-.03,1.3c0,.11-.02.22-.02.33ZM209.3,130.96c.84,0,1.51-.68,1.51-1.51s-.67-1.51-1.51-1.51-1.51.68-1.51,1.51.67,1.51,1.51,1.51ZM215.44,125.71h-3.66v8.34h-1.25c-.35-.27-.79-.43-1.26-.43s-.92.16-1.27.43h-1.2v-8.34h-3.66v25.45h-1.5v3.73h15.29v-3.73h-1.5v-25.45ZM211.79,151.17h-4.97v-2.38h4.97v2.38ZM211.79,147.15h-4.97v-11.56h1.4c.06-.53.51-.95,1.06-.95s1,.42,1.06.95h1.45v11.56ZM215.41,120.38h-3.04v-2.41h-.84v-1.54h.8v-1.39h-.8v-.22c0-1.12-.83-2.05-1.9-2.21v-3.87h-.66v3.87c-1.08.16-1.9,1.08-1.9,2.21v.22h-.8v1.39h.8v1.54h-.84v2.41h-3.04v2.27h-1.5v1.46h15.21v-1.46h-1.5v-2.27ZM208.6,120.38h-.86v-2.41h.86v2.41ZM210.85,120.38h-.86v-2.41h.86v2.41ZM229.8,119.81h-3.39c-.23-9.25-7.8-16.69-17.11-16.69s-16.87,7.43-17.1,16.69h-3.39c-13.07,0-23.66,10.59-23.66,23.66s10.59,23.66,23.66,23.66h3.39c.23,9.25,7.8,16.68,17.1,16.68s16.88-7.43,17.11-16.68h3.39c13.07,0,23.66-10.59,23.66-23.66s-10.6-23.66-23.66-23.66ZM188.97,151.1c-1.37-1.19-3.07-2.03-4.94-2.35h9.52c-1.88,0-3.55.93-4.58,2.35ZM190.11,152.26c.72-1.15,1.99-1.91,3.45-1.91,2.25,0,4.07,1.82,4.07,4.07h0v4.62h-5.14c0-.07,0-.14,0-.22,0-2.5-.9-4.78-2.38-6.56ZM197.63,160.64v9.78h-2.19v-6.3h0c0-1.33-.48-2.54-1.28-3.47h3.47ZM209.3,182.29c-6.74,0-12.48-4.28-14.65-10.28h29.31c-2.17,5.99-7.91,10.28-14.66,10.28ZM205.22,170.41v-8.05c.35-2.05,2.09-3.62,4.18-3.62,1.92,0,3.55,1.34,4.06,3.15v8.52h-8.24ZM223.15,164.11h0v6.3h-2.26v-9.78h3.54c-.8.94-1.28,2.15-1.28,3.47ZM226.09,158.82c0,.07,0,.15,0,.22h-5.2v-4.62h0c0-2.25,1.82-4.07,4.07-4.07,1.47,0,2.76.78,3.48,1.96-1.47,1.77-2.35,4.04-2.35,6.51ZM229.58,151.14c-1.03-1.44-2.7-2.38-4.6-2.39h9.58c-1.89.33-3.6,1.17-4.98,2.39ZM247.85,135.29c-5.48,0-10.1,3.73-11.44,8.8h-20.42v1.6h20.12c-.06.47-.09.95-.09,1.44,0,0,0,.02,0,.03h-20.03v1.6h8.97c-3.13,0-5.66,2.54-5.66,5.67h0v15.99h-2.21v-13.81h1.36v-1.07h-4.99v3.8c-.69-.79-1.6-1.38-2.62-1.66v-1.21h.58v-.95h-4.25v.95h.58v1.27c-.99.32-1.86.93-2.52,1.73v-3.91h-5.07v1.05h1.38v13.81h-2.3v-15.99h0c0-3.13-2.53-5.66-5.66-5.67h9.03v-1.6h-20.03v-.03c0-.49-.03-.96-.09-1.44h20.12v-1.6h-20.42c-1.34-5.06-5.95-8.8-11.44-8.8-.81,0-1.61.08-2.37.24,3.18-8.17,11.12-13.97,20.42-13.98h4.91v-1.31h0c0-8.61,6.98-15.59,15.59-15.59s15.59,6.98,15.59,15.59v1.31h4.92c9.3,0,17.24,5.8,20.42,13.98-.77-.16-1.57-.24-2.38-.24ZM207.92,174.16h-2.81l-.67,2.03h2.26l-.09.81h-2.45l-.3.94h3.77l.29-3.77ZM206.84,175.5h-1.27l.17-.68,1.23-.02-.13.69ZM216.03,176.93l.47,1,1.4-.06-.55-.87.64-.03-.55-.94h-.78l-.95-1.87h-.97l-.99,1.77.35,1h1.9ZM215.22,175.16l.39.84h-.81l.42-.84ZM203.6,174.16h-1.1l-1.71,3.77h1.52l1.29-3.77ZM209.11,177.93h3.84l-.25-.97h-1.52l1.2-1.06-.4-1.74h-2.84l-.02,1.45h1.1l-.1-.58h1.03l.06.64-2.06,1.26-.04,1Z"/>
  </g>
  <g>
    <g>
      <path class="cls-1" d="M356.13,267.77v.06c.87,1.02,1.01,2.08,0,3.83v-3.89h0ZM356.13,282.24c1.7.44,4.27.54,4.66.73.68.39,1.31-.83.39-1.56-.35-.29-1.27-1.16-2.28-1.79-.98-.62-2-1.21-2.77-1.79v-2.38c.87-.29,2.13-.38,3.59-.49,1.9-.14,4.31-1.99,5.97-1.45,1.61.48,2.82.33,5.15,5.77.34.97-.68,2.47-1.61,3.93-1.41,2.18-1.79,4.32-3.25,6.64-1.02,1.65-3.93,6.5-2.38,6.17,5.49-1.17,7.24-.91,10.29,1.79,1.93,1.75,3.88,2.87,4.03,4.91v.53c0,.38-.1.78-.24,1.22-3.16,5.38-10.3,1.31-16.46,3.83-1.02,1.17-.68,3.2-3.15,3.98-.63.2-1.3.48-1.94.83v-9.23c2.13-.2,3.98-.34,5.09-.43,1.16-.1,1.8-1.41.88-1.94-.29-.19-2.72-.14-5.97.09v-13.98c1.2.11,2.03.14,2.38-.33.39-.44.39-1.36-.1-1.75-.62-.25-1.51-.39-2.28-.44v-2.87h0ZM356.13,319.23c1.6-.2,3.39-.48,5.05-.67,2.28-.3,3.69-1.56,4.6-.88,2.63,1.99,3.06,2.28,4.37,6.02,1.17,3.3-3.64,4.46-6.16,3.88-3.79-.93-4.81-1.45-7.86-1.17v-7.18ZM353.79,265.3c.97.77,1.79,1.79,2.34,2.46v3.89c-.49.89-1.22,1.9-2.34,3.11v-9.47h0ZM353.79,278.46c.69.47,1.26,1.07.93,2.62-.15.53.53.93,1.41,1.16v2.87c-.79-.1-1.56-.1-1.94-.05-.15.05-.3.1-.4.16v-6.75h0ZM356.13,277.83c-.54-.43-.93-.83-1.03-1.21-.1-.53.29-.93,1.03-1.17v2.38h0ZM356.13,313.11c-.82.44-1.6.97-2.34,1.51v-10.53c.83-.1,1.6-.15,2.34-.2v9.23h0ZM353.79,319.42c.74,0,1.52-.09,2.34-.19v7.18c-.54.09-1.17.2-1.9.29-.14.05-.29.1-.44.24v-7.52h0ZM356.13,301.61c-.74.05-1.51.09-2.34.15v-6.36c.3,0,.49-.05.63-.19.39-.39,1.11-.78.49-1.41-.25-.29-.49-.39-1.12-.34v-6.27c.25.29,1.07.54,1.9.44h.44v13.98ZM346.52,272.39c.28-.15.58-.35.81-.59,1.86-1.89-.14-7.32,3.6-7.72,1.02-.05,2.04.49,2.86,1.22v9.47c-.19.24-.43.49-.63.78-.18.14-.43.29-.58,1.45.1.78.68,1.07,1.21,1.46v6.75c-.53.33-.23,1.21-.04,1.88,0,0,.04.05.04.1v6.27h-.19c-1.03.19-.83.49-1.12,1.46.05.23.77.48,1.3.48v6.36c-.91.09-1.94.15-2.91.24-1.46.11-2.92.2-4.37.35v-4.61c.48.14,1.16.08,1.45-.2.83-.88.88-1.11-.09-1.51-.05.09-.4-.58-.92,0-.2.24-.35.4-.44.49v-9.42c.48-.28.96-.73,1.02-1.06.14-1.17.19-1.65-.79-1.41,0,.06-.09.09-.23.15v-12.37h0ZM353.79,314.62c-1.64,1.35-2.86,2.86-2.91,3.78-.04.93,1.16,1.12,2.91,1.02v7.52c-1.25,1.32,0,7.77-1.16,10.73-.92,2.23-2.18,4.95-3.39,6.8-.83,1.21-1.76,2.28-2.72,3.11v-42.43l1.31-.24c1.94-.34,4.03-.63,5.97-.82v10.53ZM338.41,270.4c1.45-.38,3.06-.24,3.82.43,1.27,1.12,2.88,2.15,4.28,1.57v12.37c-.15.05-.4.15-.53.53-.49.97-.68,1.17-.39,2.14.14.1.52-.05.92-.35v9.42q-.2.24-.4.91c0,.15.2.24.4.3v4.61c-1.7.19-3.35.39-4.9.73-.63.14-1.95.24-3.02.92-.04,0-.14.05-.19.1v-7.28c1.22-.68,2.42-1.75,2.58-2.52.34-3.01.29-4.57-2.18-3.94,0,.1-.15.15-.39.2v-5.87c1.22-.68,2.76-2.33,3-3.79.3-2.91-.67-4.95-3-4.47v-6.02h0ZM346.52,347.58c-2.29,1.94-4.61,2.57-5.92,1.55-.48-.4-1.17-1.21-2.18-2.33v-8.68c1.99-.16,3.63-.4,4.03-1.13,1.34-2.33,1.26-4.61.96-7.36.05-1.07-1.45-.45-3.83-.74-.38-.04-.73-.04-1.16-.04v-6.8c.82-.05,1.55-.15,1.93-.58,1.06-1.22-1.11-2.48-.92-3.6.24-1.89,5-2.42,5.49-3.68.48-1.46,1.31-.68,1.5-2.38.14-1.6-3.53.1-5.04.54-1.12.34-2.04.49-2.96.73v-6.36c2.27-.53,5.05-1.06,8.11-1.56v42.43ZM321.47,303.02c1.07-.88.78-13.54.2-17.43-.72-1.94-.92-4.61-.63-6.01.38-2,1.46-2.48,2.72-1.85,1.41.74,2.96,2.86,4.61,6.27,1.12,2.33-.1,1.99-.1,2.86-.08,4.31-.48,8.69-.53,11.6,0,1.74,2.38,1.94,2.77.87.39-7.08-.49-16.54.15-20.72.1-2.67-1.07-6.06.04-6.89,1.26-.98,4.17-.4,5.48.29,1.03.54.98-1.21,1.76-1.46.14-.09.34-.15.49-.15v6.02s-.1.05-.21.05c-.38.34-.28.83-.28,1.11-.29,2.68-.73,4.8-.68,7.28.19.19.68.11,1.17-.19v5.87c-.54.14-1.41.45-1.5,1.85-.2,2.66-1.81,2.62-.97,5.1.33.29,1.41-.06,2.47-.68v7.28c-.73.58-1.32,1.65-2.28,1.79-1.65.24-3.01.15-3.89.3-1.21.14-1.83.43-3.24.63-1.27.2-4.18.68-6.07,2.33-1.81,1.55-2.04,6.07-3.01,7.96-.83,1.59-1.7,3.2-2.38,4.56-.93,1.7-1.71,3.06-3.5,3.5-2.47.58-4.46-2.48-4.7-4.42v-.73c.72-2.81,1.36-5.09,1.61-7.67.14-1.75-.5-3.39-.3-4.81.2-1.36,1.11-1.94,1.75-2.62.74-.87,1.45-1.89,2.77-1.65,1.06.2,1.69,1.02,2.76,1.12,1.6.19,2.43-.44,3.54-1.36h0ZM338.41,346.8c-.78-.87-1.7-1.9-2.87-2.96-1.79-1.6-4.85-2.76-6.46-4.27-1.02-1.7,5-1.21,9.33-1.45v8.68h0ZM338.41,328.84v-6.8c-.73.04-1.56.04-2.19.09-4.12.54-9.36,0-13.29,1.03-4.08,1.11-3.21,2.81-1.26,4.61.97.93,1.26,1.61,3.88,2.91,2.58,1.26,8.74-1.7,12.87-1.84h0ZM338.41,313.06v-6.36c-2.04.48-3.74.97-4.91,1.55-1.12.53-4.28,2.38-5.38,3.01-2.68,1.56-2.09,2.72-.93,3.74,2.76,2.33,6.69,1.16,7.41.38,1.41-1.49,2.58-1.98,3.8-2.32Z"/>
      <path class="cls-1" d="M227.4,293.26c3.69.09,6.06-.3,6.01-.97.15-3.06.19-8.25-.72-12.23-.49-2.03,1.01-3.3,2.13-3.98,2.76-1.6,3.5-2.33,5.01-2.14,2.72.39,4.7,2.08,6.59,4.57.93,1.31,1.66-.53.58,6.06-.58,3.41-.05,3.64.45,4.14,1.5.63,3.1.14,5.43-.6,2.86-.77,3.84-5.18,9.46,1.51.78.77,1.36,1.89.34,3.3-1.21,1.65-4.13,2.57-7.38,4.41-4.27,2.39-11.22,2.83-10.24,5.88,2.92,7.29,10.83,17.77,21.27,25.05,2.67,1.84,5.92,3.4,9.61,4.41,5.34,1.47,9.8,2.58,7.19,3.93-4.03,2.08-19.02,4.52-23.25,2.23-4.31-2.34-17.37-23.01-19.65-27.09-.1-.19-.48-.19-.67.35-2.44,5.34-7.58,15.34-12.82,19.45-2.28,1.85-5.69.88-6.76.1-1.16-.92-8.78-2.58-9.99-4.95-.68-1.51.34-1.6,1.17-1.75,10.05-.39,11.42-3.3,13.74-5.14,6.17-4.76,7.08-12.97,6.27-13.31-9.18.88-12.39,2-15.25-1.36-5.68-11.4-1.06-13.34,4.28-12.66,2.67.39,6.25.73,7.23.78Z"/>
      <path class="cls-1" d="M135.08,304.13c1.11.35,2.04.98,3,2.82,2.72,4.38,1.6,9.85,2.38,13.3.68.44,2.47.05,4.47-.24,2.66-.44,5.58-.98,5.48-1.7-.38-3.68.21-27.66-.34-30.97-.09-.34-.29-1.4-.38-1.74-1.21-5.53,4.02-7.13,5.58-6.99,2.72.3,8.11,5.39,7.33,7.72-1.45,2.43-1.59,9.27-1.64,15.82-.05,5.54-.16,10.97.14,13.01,0,1.7,6.94-.44,9.27-1.36,2.91-.53,2.28-9.71,4.76-11.4,1.22-.83,8.11.34,9.17,6.11.14,3.15-.77,7.23-1.55,11.16-.54,2.76-.97,6.07-1.08,7.33-.09,1.31-5.43,6.8-7.22,8.06-2.81.67-3.69-5.92-3.69-9.52,0-1.94.04-2.57-.49-3-1.65-.14-5.97.59-8.45,1.95-1.36.72-1.85,2.67-3.64,3.01-7.18-.29-14.51,1.17-15.62,2.28-.63.64-4.03,3.54-4.62,4.38-.59.77-3.1-.06-3.89.23-1.83.58-2.9-2.67-4.99-5.39-2.18-2.76-.67-4.41.62-7.47,1.41-3.39,1.9-9.36,1.57-13.44,0-2.08-.1-4.47,3.83-3.94Z"/>
      <path class="cls-1" d="M81.45,276.37c1.21.04,2.62.04,4.03-.05,2.52-.3,5.68-2.43,7.97-2.47,3.29,0,7.81,4.66,8.93,7.63.67,2.57-.92,4.61-2.71,5.58l-1.57.43c-1.74.92-4.9,5.06-4.75,5.88-.1,1.21-.1,2.04,1.16,2.96.78,1.11-1.11,5.87-3.44,6.79-.68.39-1.31.78-3.06.83-2.18-.09-4.36.44-6.55,1.36v-12.72c1.02-.73,1.79-1.59,2.09-2.24,1.26-1.69,2.81-4.56,1.84-6.75-.91-.67-2.48-.77-3.93-.58v-6.65ZM59.95,282.58c2.09-1.17,3.55-1.9,5.86-2.72-.09-3.45-.52-7.08-.43-10.39.05-.67-.19-1.31-.43-1.79-1.41-2.86,1.8-6.6,6.41-7.67,1.26-.24,6.95,2.47,6.99,5.05-.1,3.69-.48,7.81-.2,11.07.88.08,1.99.19,3.3.24v6.65c-1.37.2-2.61.63-3.4.97-.77,1.3-1.25,9.32-.24,9.85,1.16.19,2.52-.44,3.64-1.27v12.72c-1.6.68-3.21,1.54-4.71,2.52-.2,11.56-1.11,22.38-1.49,33.84-.79,6.02-2.86,11.59-5.97,12.03-2.2-.24-4.33-5.04-4.42-12.71l-.49-31.45c-1.26.2-2.72.68-4.42,1.36v-10.82c1.31,0,2.04-.33,3.64-1.27,1.02-.63.68-7.57.35-8.83-.5-.73-1.41.34-1.71.53-.77.44-1.49.77-2.27.96v-8.88ZM52.23,286.27c1.31.44,2.33-.53,3.98-1.46,1.49-.92,2.71-1.59,3.73-2.23v8.88c-1.36.39-2.67.39-3.84.05-1.2-.52.1,7.96,1.51,8.35,1.02.1,1.75.19,2.33.19v10.82c-1.17.44-2.48,1.02-3.93,1.61-.68.58-1.31,1.16-1.95,1.9-.68.77-1.12,1.99-1.94,2.18-1.9.48-3.98.19-5.63-.97-1.31-1.07-1.36-3.73-3.26-6.6-1.48-1.88-3-3.31-3-5.92.98-2.43,1.31-3.68,2.14-5.14.19-.73.34-1.41.44-2.53.24-2.77.63-5.09,1.7-7.77.78-1.46,4.65-3.92,7.71-1.36Z"/>
    </g>
    <path class="cls-1" d="M378.6,363.39v.64c-.48.04-.83.14-1.07.29-.2.14-.39.33-.59.62l-4.56,7.38v4.42c0,.93.19,1.51.49,1.74.24.2.83.35,1.74.44v.59h-8.3v-.59c.92-.1,1.5-.24,1.75-.39.35-.28.49-.86.49-1.79v-3.49l-4.37-7.92c-.14-.29-.24-.44-.28-.53-.44-.53-.97-.77-1.6-.77v-.64h7.95v.64c-.82,0-1.35.04-1.55.14-.25.1-.34.29-.34.64,0,.14.06.39.2.68.2.34.29.54.34.68l2.86,5.54,2.67-4.43c.19-.28.34-.62.54-.96.23-.59.37-.97.37-1.26,0-.39-.19-.68-.52-.83-.34-.15-.83-.19-1.45-.19v-.64h5.23ZM310.3,374.37v-3.25c.49-.1.88-.25,1.12-.44.67-.53,1.07-1.5,1.07-3.02,0-1.2-.25-2.08-.74-2.61-.34-.39-.82-.68-1.46-.78v-.88c1.94.05,3.45.44,4.52,1.12,1.17.73,1.69,1.75,1.69,3.11,0,1.26-.43,2.23-1.35,2.95-.49.39-1.32.78-2.38,1.13l4.81,6.78c.15.2.29.3.44.35.19.04.34.1.53.1v.59h-4.85l-3.4-5.15h0ZM357.05,378.93v.59h-8.49v-.59c.92,0,1.55-.1,1.79-.35.35-.24.54-.87.54-1.84v-12.58c-1.21,0-2.14.2-2.76.59-1.03.63-1.65,1.76-1.85,3.44h-.68l.05-4.81h14.31l.05,4.81h-.73c-.2-1.65-.77-2.81-1.79-3.44-.68-.39-1.6-.59-2.77-.59v12.58c0,.97.19,1.6.48,1.84.29.25.93.35,1.85.35h0ZM343.17,378.93v.59h-8.3v-.59c.97-.1,1.6-.24,1.84-.48.24-.24.34-.64.34-1.21v-11.55c0-.69-.2-1.17-.68-1.41-.34-.2-.83-.24-1.5-.24v-.64h8.3v.64c-.67,0-1.21.04-1.5.24-.49.19-.73.68-.73,1.41v11.55c0,.68.19,1.15.63,1.4.34.2.88.29,1.6.29h0ZM331.47,368.2h-.69c-.28-1.07-.77-2.03-1.41-2.81-.92-1.06-1.99-1.6-3.24-1.6-.69,0-1.27.2-1.8.58-.5.39-.78.93-.78,1.65,0,.67.2,1.17.5,1.55.33.35,1.01.78,1.99,1.27l3.49,1.74c.62.35,1.17.78,1.6,1.37.68.91,1.02,1.94,1.02,3.06,0,1.26-.43,2.32-1.31,3.25-1.06,1.16-2.62,1.75-4.62,1.75-.72,0-1.45-.1-2.08-.28-.63-.16-1.31-.35-1.99-.53-.21,0-.34.04-.44.23-.11.15-.2.34-.25.59h-.72v-5.92h.72c.3,1.45.78,2.62,1.46,3.49.87,1.07,2.04,1.61,3.39,1.61.98,0,1.71-.25,2.23-.73.49-.49.79-1.16.79-1.95,0-.68-.25-1.26-.79-1.75-.29-.28-.97-.67-1.89-1.16l-1.6-.73c-1.79-.86-2.96-1.79-3.54-2.86-.39-.63-.54-1.41-.54-2.29,0-1.5.54-2.67,1.61-3.55.92-.77,2.14-1.11,3.63-1.11.79,0,1.56.09,2.39.38.82.24,1.26.39,1.36.39.29,0,.49-.15.62-.39.06-.09.1-.23.16-.38h.73v5.14ZM310.3,363.39v.88c-.25-.05-.49-.05-.72-.05-.64,0-1.03.05-1.17.2-.15.09-.24.39-.3.83v6.06c.88,0,1.6-.04,2.18-.19v3.25l-1.55-2.28h-.63v4.66c0,.87.14,1.46.44,1.7.25.19.78.38,1.65.48v.59h-8.05v-.59c.87-.1,1.45-.24,1.64-.44.3-.24.45-.81.45-1.74v-10.53c0-.97-.16-1.61-.54-1.85-.25-.24-.79-.34-1.55-.34v-.64h8.15ZM135.86,379.52v-.59h.05v.59h-.05ZM135.86,368.2h.62c.2-1.69.83-2.81,1.85-3.44.63-.39,1.56-.59,2.72-.59v12.58c0,.97-.14,1.6-.49,1.84-.24.25-.88.35-1.8.35v.59h8.49v-.59c-.91,0-1.55-.1-1.83-.35-.34-.24-.49-.87-.49-1.84v-12.58c1.16,0,2.09.2,2.76.59.98.63,1.61,1.8,1.8,3.44h.73l-.05-4.81h-14.32v4.81h0ZM285.78,364.03v-.64h13.74v4.81h-.58c-.3-1.6-.83-2.67-1.75-3.25-.73-.49-1.99-.73-3.74-.73-.67,0-1.16.05-1.4.2-.2.14-.34.43-.34.92v5.53c1.26,0,2.13-.24,2.67-.67.62-.54,1.02-1.46,1.22-2.87h.62v8.06h-.62c-.15-1.45-.54-2.43-1.12-2.9-.59-.53-1.51-.77-2.77-.77v5.77c0,.48.14.87.44,1.01.29.2.82.3,1.59.3,1.41,0,2.54-.25,3.46-.74,1.17-.67,2.08-1.79,2.82-3.49h.62l-.92,4.96h-13.93v-.59c.79-.1,1.32-.2,1.51-.35.39-.2.58-.67.58-1.35v-11.55c0-.69-.19-1.17-.63-1.41-.29-.2-.78-.24-1.47-.24h0ZM283.7,363.39v.64c-.63.04-1.07.24-1.35.48-.25.24-.49.73-.78,1.46l-5.43,13.98h-.69l-6.06-14.26c-.3-.69-.59-1.12-.77-1.27-.25-.2-.64-.3-1.27-.39v-.64h8v.64c-.82,0-1.35.04-1.6.14-.29.1-.44.39-.44.83,0,.2.1.53.3,1.03.18.53.34.87.44,1.07l3.1,7.52,3.06-7.86c.14-.33.24-.63.34-.92.09-.29.09-.53.09-.73,0-.73-.67-1.07-2.03-1.07v-.64h5.09ZM265.84,378.93v.59h-8.34v-.59c.97-.1,1.59-.24,1.84-.48.24-.24.34-.64.34-1.21v-11.55c0-.69-.19-1.17-.68-1.41-.29-.2-.83-.24-1.5-.24v-.64h8.34v.64c-.72,0-1.25.04-1.55.24-.49.19-.72.68-.72,1.41v11.55c0,.68.19,1.15.63,1.4.33.2.87.29,1.64.29h0ZM239.24,379.52v-.59c.78-.1,1.31-.24,1.57-.39.33-.28.53-.77.53-1.5v-11.31c-.63-.78-1.07-1.27-1.41-1.46-.19-.2-.44-.24-.63-.24v-.64h5.04l8.25,10.2.05-7.24c0-.77-.15-1.36-.39-1.7-.29-.44-.93-.63-1.85-.63v-.64h5.15v.64c-.83.09-1.31.24-1.56.53-.19.24-.28.74-.28,1.35v14.03h-.69l-10.62-12.9-.05,9.51c0,.88.14,1.46.48,1.79.3.29.88.49,1.8.59v.59h-5.4ZM237.4,363.39v.64c-.73.09-1.21.24-1.42.43-.28.3-.48.84-.48,1.56v7.61c0,.84-.1,1.65-.24,2.43-.24.98-.62,1.7-1.06,2.19-.54.58-1.32,1.06-2.25,1.36-.77.24-1.6.39-2.46.39-.78,0-1.51-.1-2.19-.24-1.06-.24-1.93-.68-2.61-1.27-.64-.53-1.02-1.06-1.21-1.55-.3-.63-.44-1.56-.44-2.76v-7.96c0-.92-.19-1.51-.48-1.8-.19-.2-.74-.35-1.52-.39v-.64h8.07v.64c-.88,0-1.46.09-1.7.29-.39.28-.58.92-.58,1.89v7.96c0,1.65.29,2.82.83,3.54.58.73,1.46,1.12,2.57,1.12,1.84,0,3.05-.68,3.74-2.04.34-.74.53-1.79.53-3.17v-7.28c0-.83-.14-1.41-.39-1.7-.34-.44-.97-.63-1.94-.63v-.64h5.24ZM196.01,379.52v-.59c.81-.1,1.29-.24,1.54-.39.34-.28.54-.77.54-1.5v-11.31c-.63-.78-1.07-1.27-1.36-1.46-.25-.2-.44-.24-.68-.24v-.64h5.05l8.24,10.2.06-7.24c0-.77-.1-1.36-.39-1.7-.29-.44-.93-.63-1.8-.63v-.64h5.1v.64c-.83.09-1.32.24-1.5.53-.24.24-.35.74-.35,1.35v14.03h-.68l-10.57-12.9-.06,9.51c0,.88.14,1.46.43,1.79.29.29.92.49,1.79.59v.59h-5.37ZM178.91,364.03v-.64h13.73v4.81h-.58c-.24-1.6-.83-2.67-1.74-3.25-.73-.49-2-.73-3.74-.73-.67,0-1.17.05-1.36.2-.24.14-.34.43-.34.92v5.53c1.22,0,2.09-.24,2.63-.67.62-.54,1.01-1.46,1.21-2.87h.63v8.06h-.63c-.15-1.45-.48-2.43-1.11-2.9-.59-.53-1.5-.77-2.72-.77v5.77c0,.48.1.87.39,1.01.29.2.83.3,1.59.3,1.41,0,2.58-.25,3.46-.74,1.16-.67,2.13-1.79,2.81-3.49h.68l-.97,4.96h-13.93v-.59c.77-.1,1.31-.2,1.55-.35.34-.2.54-.67.54-1.35v-11.55c0-.69-.2-1.17-.62-1.41-.3-.2-.79-.24-1.46-.24h0ZM175.61,368.2h-.68c-.3-1.07-.74-2.03-1.41-2.81-.92-1.06-1.99-1.6-3.25-1.6-.68,0-1.26.2-1.8.58-.48.39-.77.93-.77,1.65,0,.67.19,1.17.53,1.55.29.35.96.78,1.94,1.27l3.5,1.74c.62.35,1.16.78,1.59,1.37.69.91,1.02,1.94,1.02,3.06,0,1.26-.44,2.32-1.3,3.25-1.08,1.16-2.63,1.75-4.62,1.75-.73,0-1.45-.1-2.09-.28-.64-.16-1.32-.35-1.99-.53-.19,0-.34.04-.43.23-.1.15-.2.34-.24.59h-.68v-5.92h.68c.29,1.45.78,2.62,1.46,3.49.88,1.07,2.03,1.61,3.4,1.61.97,0,1.7-.25,2.23-.73.49-.49.78-1.16.78-1.95,0-.68-.24-1.26-.73-1.75-.33-.28-1.02-.67-1.94-1.16l-1.6-.73c-1.75-.86-2.96-1.79-3.55-2.86-.34-.63-.52-1.41-.52-2.29,0-1.5.52-2.67,1.6-3.55.91-.77,2.13-1.11,3.63-1.11.79,0,1.55.09,2.38.38.83.24,1.26.39,1.36.39.28,0,.49-.15.63-.39.05-.09.1-.23.14-.38h.73v5.14h0ZM161.77,372.67v2.76h-8.2v-2.76h8.2ZM135.86,363.39v4.81h-.11l.11-4.81h0ZM135.86,378.93c-.54,0-.92-.24-1.27-.73-.29-.34-.67-1.21-1.25-2.57l-5.34-12.57h-.62l-1.03,2.52v2.72l2.34,5.58h-2.34v.97h2.67c.35.77.58,1.31.67,1.59.3.73.44,1.27.44,1.56,0,.38-.14.62-.38.72-.29.14-.78.2-1.56.2v.59h7.67v-.59ZM126.34,365.58v2.72l-.09-.2-2.23,5.78h2.32v.97h-2.67c-.39.87-.62,1.59-.82,2.08-.14.49-.25.82-.25.98,0,.39.25.67.68.87.3.09.74.15,1.27.15v.59h-4.52v-.68c.49-.1.83-.35,1.07-.68.25-.29.54-.97.97-1.99l4.27-10.58h0ZM120.03,364.07v-.68h.35v.64c-.1,0-.2,0-.35.04ZM120.03,363.39v.68c-.29.05-.53.15-.68.25-.24.14-.43.33-.57.62l-4.57,7.38v4.42c0,.93.15,1.51.44,1.74.24.2.83.35,1.75.44v.59h-8.25v-.59c.92-.1,1.51-.24,1.7-.39.35-.28.54-.86.54-1.79v-3.49l-4.38-7.92c-.14-.29-.24-.44-.34-.53-.44-.53-.96-.77-1.6-.77v-.64h8.01v.64c-.83,0-1.35.04-1.61.14-.23.1-.33.29-.33.64,0,.14.1.39.24.68.14.34.29.54.34.68l2.87,5.54,2.61-4.43c.2-.28.39-.62.55-.96.28-.59.38-.97.38-1.26,0-.39-.15-.68-.48-.83-.4-.15-.88-.19-1.51-.19v-.64h4.9ZM120.03,378.83c-.1.04-.19.1-.29.1v.59h.29v-.68h0ZM72.38,379.52v-.59c.82-.1,1.31-.24,1.54-.39.35-.28.53-.77.53-1.5v-11.31c-.63-.78-1.06-1.27-1.35-1.46-.25-.2-.44-.24-.68-.24v-.64h5.05l8.25,10.2.04-7.24c0-.77-.08-1.36-.38-1.7-.29-.44-.91-.63-1.79-.63v-.64h5.09v.64c-.77.09-1.31.24-1.51.53-.24.24-.35.74-.35,1.35v14.03h-.67l-10.58-12.9-.05,9.51c0,.88.14,1.46.43,1.79.29.29.92.49,1.79.59v.59h-5.38ZM70.28,363.39v.64c-.73.09-1.17.24-1.41.43-.29.3-.43.84-.43,1.56v7.61c0,.84-.09,1.65-.3,2.43-.24.98-.57,1.7-1.07,2.19-.53.58-1.31,1.06-2.23,1.36-.78.24-1.6.39-2.44.39-.77,0-1.54-.1-2.23-.24-1.07-.24-1.94-.68-2.62-1.27-.59-.53-1.03-1.06-1.21-1.55-.29-.63-.44-1.56-.44-2.76v-7.96c0-.92-.15-1.51-.48-1.8-.19-.2-.67-.35-1.45-.39v-.64h8.06v.64c-.93,0-1.52.09-1.75.29-.39.28-.58.92-.58,1.89v7.96c0,1.65.28,2.82.86,3.54.54.73,1.41,1.12,2.58,1.12,1.79,0,3-.68,3.69-2.04.33-.74.53-1.79.53-3.17v-7.28c0-.83-.1-1.41-.4-1.7-.34-.44-.96-.63-1.93-.63v-.64h5.24ZM50.68,368.2h-.68c-.3-1.07-.74-2.03-1.41-2.81-.92-1.06-1.99-1.6-3.24-1.6-.69,0-1.27.2-1.81.58-.48.39-.77.93-.77,1.65,0,.67.19,1.17.54,1.55.29.35.96.78,1.94,1.27l3.5,1.74c.62.35,1.16.78,1.6,1.37.67.91,1.01,1.94,1.01,3.06,0,1.26-.43,2.32-1.3,3.25-1.07,1.16-2.63,1.75-4.62,1.75-.73,0-1.45-.1-2.09-.28-.62-.16-1.3-.35-1.99-.53-.19,0-.34.04-.42.23-.11.15-.2.34-.25.59h-.68v-5.92h.68c.29,1.45.77,2.62,1.44,3.49.88,1.07,2.05,1.61,3.41,1.61.97,0,1.7-.25,2.23-.73.49-.49.77-1.16.77-1.95,0-.68-.23-1.26-.73-1.75-.33-.28-1.01-.67-1.94-1.16l-1.6-.73c-1.75-.86-2.95-1.79-3.54-2.86-.35-.63-.54-1.41-.54-2.29,0-1.5.54-2.67,1.59-3.55.93-.77,2.14-1.11,3.64-1.11.78,0,1.55.09,2.38.38.83.24,1.26.39,1.36.39.29,0,.49-.15.63-.39.05-.09.1-.23.16-.38h.72v5.14Z"/>
  </g>
</svg>