<?xml version="1.0" encoding="UTF-8"?>
<svg id="_图层_1" data-name="图层 1" xmlns="http://www.w3.org/2000/svg" viewBox="0 0 771.47 280">
  <defs>
    <style>
      .cls-1 {
        fill-rule: evenodd;
      }

      .cls-1, .cls-2 {
        fill: #00561f;
      }
    </style>
  </defs>
  <g>
    <path class="cls-1" d="M678.74,98.37v-4.37c-2.04-1.05-3.62-1.81-4.61-2.04-.47-.12-1.81-.29-2.28-.29-1.1-.17-1.23.29-1.1.88.29,1.28,1.69,1.8,2.1,1.75,1.28-.24,1.69.29,2.62.64.58.17,2.04.52,1.63.93-.47.47-.52.06-.99.35-.41.29-1.92-.58-2.45-.12-.29.3.06,1.17-.53,1.28-.35.06-.87-.46-1.34-.76-1.34-.76-2.74-2.1-4.08-2.68-1.46-.58-1.58.11-1.4,1.05.06.53,0,.76.47,1.75.53,1.05,3.44,1.58,4.49,2.63.64.58,1.23.76.93,1.05-.52.87-.99,1.58-1.92,1.93-.88.41-4.37-3.27-4.43-2.21.11.81.76,1.81.87,2.68.23,1.28.23,2.33.29,2.68.23.82,1.81,1.17,3.61.58.76-.29,1.69-.75,2.51-1.22,1.11-.64,2.28-3.21,2.92-2.86,1.52.82,1.58,1.11,2.68,2.45h0v-3.96c-1.17-.64-2.16-1.23-1.81-1.63.24-.29.93-.47,1.81-.47ZM671.8,87.7c.47,0,3.27-3.73,3.97-5.02.18-.76.76-1.57,1.11-1.92.59-.47.99-.35,1.23.06.29.53.23,1.52-.06,2.92-.18.93-.47.53-.64.82-.99,1.23-2.1,2.39-2.74,3.27-.41.46.24,1.04.58.87,1.17-1.4,2.45-3.27,3.5-4.61v3.91l-.06.06c-.7.76-1.11.41-1.46,1.28.06.23.88.41,1.52.41v3.09c-.35-.23-.76-.41-1.05-.58-.23-.12-.64-.35-1.11-.41-.35-.06-.82.18-1.17,0-.52-.29-.93-.58-1.22-.76-.35-.23-.59-.29-1.06-.52-.46-.23-1.4-.76-2.33-.7-.88.06-1.92,1.34-2.62,1.63-.64.29-1.23.58-1.75.82-.64.29-1.16.52-1.81.23-.93-.41-.7-2.1-.17-2.57.82-.64,1.51-1.17,2.16-1.87.41-.47.64-1.11.99-1.46.35-.35.76-.35,1.11-.41.41-.12.88-.24,1.17.11.29.29.29.7.58.99.41.41.76.41,1.34.35h0ZM678.74,100.48c.35.23.76.47,1.17.7.29.18.53.23.82.35v3.79c-.7.12-1.57-.35-1.98-.88v-3.96ZM680.73,98.72v-3.62c-.58-.35-1.11-.64-1.63-.94l-.35-.17v4.37c.52,0,1.17.06,1.63.29.12,0,.24.06.35.06h0ZM678.74,84.09c.41-.59.81-1.11,1.17-1.46.29-.35.58-.81.82-1.17v4.14c-.12.11-.17.23-.29.35.06.06.12.12.29.17v5.31c-.29.06-.23,0-.47.18-.06.12.23.41.47.47v1.98l-.12-.06c-.64-.41-1.28-.82-1.87-1.17v-3.09c.29,0,.58-.06.7-.23.76-.76,1.11-1.23.24-1.58-.06.06-.47-.35-.94.06v-3.91h0ZM682.88,95.52v-2.8c-.11-.12-.23-.35-.23-.41.12-.12.17-.18.23-.18v-3.44c-.23,0-.53-.05-.58-.12.18-.35.23-.35.58-.53h0v-2.74c-.06.12-.17.29-.35.41-.41.41-1.34.53-1.81.41v5.31l.06-.06c.29-.06.24.24.29.24.17.29.12.35-.29.47h-.06v1.98c.82.53,1.57,1.05,2.16,1.46ZM680.73,101.52c.35.12.64.17.7.41.35,1.16.41,1.34-.06,2.74-.12.41-.35.58-.64.64v-3.79h0ZM682.88,98.43c-.17-.12-.41-.18-.7-.24-.47.06-.82.64-1.46.53v-3.62c.82.53,1.63,1.05,2.16,1.4v1.93h0ZM680.73,81.46c.23-.47.47-.82.76-.82.52,0,1.11.64,1.4,1.11v2.1c-.06-.06-.17-.12-.29-.12-.18,0-.23.18-.29.23-.58.58-1.11,1.05-1.57,1.64v-4.14h0ZM682.88,81.75c.06.06.12.12.12.17.17.41.58-.11.87,0,.58.17,1.11.64,1.17,1.05.12.47.29.99.59,1.23v5.77c-.12-.06-.18-.12-.24-.18-.35-.18-.46.23-.58.47-.06.17.12.47.41.58.17.17.29.29.41.41v3.62c-.06.06-.06.18,0,.23v5.31c-.82-.58-1.63-1.46-2.74-1.98v-1.93c.18.06.29.18.41.23.35.24.82,0,.7-.35,0-.12-.47-.41-1.11-.87v-2.8c.12.06.18.12.29.12.18-.06.47,0,.47-.29-.06-.18-.06-.29-.35-.41-.17-.12-.29-.12-.41,0v-3.44c.18,0,.23-.05.29-.12.35-.29.47-.41.12-.58-.05.06-.12-.06-.41.06v-2.74c.41-.58.47-1.11,0-1.46v-2.1ZM685.63,95.11h.06c1.86.88,2.27,1.34,2.57,2.8.23,1.22.64,2.1-.35,2.8-.88.35-1.58.11-2.28-.29v-5.31ZM685.63,84.2c.18.17.41.23.7.17.99-.12,1.58-2.16,2.74-1.46.64.53.64,1.63.7,2.28,0,.81-.52,1.22-2.56,1.57-.12.06-.17,0-.52.35-.29.47.52.93-.29,1.63-.41.35,1.28,1.69,1.4,1.92.12.29.53.06.47-.4-.06-.12-.12-.59-.29-.99-.23-.7-.58-1.46-.41-1.75.18-.41.88,0,1.63.52.58.41,1.69.41,2.04.93.41.53.76.76.24,2.86-.12.35-.76.58-1.34.76-.93.35-1.46.88-2.39,1.23-.53.23-1.81.7-2.1,1.05v-3.62c.18.11.35.18.52.18.17-.06.41-.35.35-.52-.23-.35-.58-.7-.87-.93v-5.77h0Z"/>
    <path class="cls-1" d="M644.21,67.35c1.28.41,2.16.47,2.22.23.35-1.05.82-2.91.87-4.43.06-.76.7-1.05,1.17-1.17,1.11-.35,1.46-.53,1.98-.35.94.41,1.46,1.22,1.92,2.27.18.52.65-.06-.41,2.22-.46,1.11-.35,1.28-.17,1.52.47.35,1.05.29,1.98.29,1.11-.06,1.81-1.52,3.21,1.4.23.35.29.82-.18,1.22-.58.47-1.69.52-3.03.88-1.75.41-4.26-.06-4.2,1.1.35,2.92,2.22,7.35,5.25,10.91.76.93,1.81,1.81,3.03,2.51,1.75.99,3.21,1.81,2.16,2.04-1.64.35-7.18-.17-8.46-1.34-1.34-1.28-4.08-9.8-4.49-11.49-.06-.06-.18-.12-.3.06-1.34,1.69-4.14,4.78-6.36,5.77-.99.41-2.1-.23-2.39-.64-.35-.41-2.92-1.69-3.15-2.68-.06-.58.29-.52.59-.47,3.62.76,4.37-.18,5.36-.58,2.62-1.11,3.73-3.97,3.5-4.14-3.38-.58-4.61-.46-5.31-1.92-.99-4.61.82-4.84,2.68-4.14.93.41,2.16.88,2.51.94Z"/>
    <path class="cls-1" d="M604.33,76.68c.47-.06.88,0,1.46.47,1.58,1.05,2.04,3.09,2.8,4.14.29,0,.82-.35,1.46-.75.82-.59,1.75-1.17,1.58-1.4-.65-1.23-4.08-9.33-4.79-10.38-.06-.12-.29-.41-.35-.52-1.28-1.69.23-3.03.82-3.21.93-.29,3.56.58,3.61,1.52-.11.99.88,3.32,1.81,5.54.88,1.87,1.63,3.73,2.04,4.37.23.58,2.27-1.17,2.92-1.87.88-.58-.7-3.62-.12-4.55.23-.47,2.74-1.11,3.97.7.58,1.05.88,2.57,1.17,3.96.23.99.59,2.22.76,2.63.18.47-.81,3.09-1.22,3.79-.82.64-2.16-1.46-2.68-2.63-.29-.64-.35-.87-.58-.93-.58.18-1.93,1.11-2.57,1.92-.35.41-.23,1.17-.76,1.58-2.45.99-4.72,2.57-4.9,3.09-.12.29-.88,1.81-.94,2.16-.06.35-1.05.47-1.28.64-.53.53-1.34-.41-2.45-1.05-1.17-.58-.87-1.34-.93-2.57,0-1.34-.76-3.44-1.46-4.79-.35-.7-.76-1.52.64-1.86Z"/>
    <path class="cls-1" d="M576.21,92.31c.47-.24.52-.7.65-1.4.52-1.87.58-2.57,1.16-3.79-.93-.87-1.98-1.69-2.86-2.57-.17-.17-.41-.29-.58-.35-.58-.18-.93-.82-.93-1.57v-.24c0-.58.18-1.22.59-1.86.23-.35,2.45-1.17,3.09-.53.93.93,1.92,2.16,2.92,2.86.06-.05.17-.17.29-.23v7.76c-.12-.11-.23-.18-.29-.23-.35,0-.29.46-.29.64-.23.87-.7,1.52-1.28,1.87-.35.11.99,1.17,1.87,1.57v6.48c-.17-.06-.35-.12-.58-.17-.87-.06-1.63-.06-2.33-.76-.41-.87-.64-1.29-.82-1.86-.12-.23-.29-.47-.52-.76-.7-.76-1.22-1.46-1.63-2.45-.18-.58.18-2.22,1.57-2.39ZM580.53,82.63c.47-.41,1.05-.99,1.63-1.63.52-.76.82-2.1,1.34-2.74.12-.12.24-.18.35-.23v4.9c-.76.29-1.4,1.46-1.57,1.98.06.35.88,1.34,1.57,1.98v13.76c-.35.35-.82.64-1.28.7-.52.06-1.11-.41-2.04-.64v-6.48c.29.18.59.23.7.12.87-.7.99-.87,1.23-1.8.12-.35-1.23-1.63-1.93-2.16v-7.76ZM583.86,78.02c1.05-.64,3.03-.59,3.96-.18.88.47.99,1.46.76,2.16l-.23.53c-.23.7.06,2.56.29,2.74.29.35.53.58,1.11.47.47.06,1.28,1.81.93,2.62-.11.29-.17.58-.58,1.05-.99.93-1.57,2.45-1.87,3.96,3.03,3.04,5.66,6.01,8.57,9.1,1.4,1.75,2.33,3.73,1.64,4.61-.58.52-2.45-.12-4.49-2.04l-8.46-7.93c-.41.64-.82,1.69-1.34,2.92v1.05c.06.35.23.76.12,1.05-.12.17-.23.35-.41.52v-13.76c.41.41.82.7.93.64.7-.53.76-1.92.59-2.45-.17-.76-.52-1.87-1.34-2.22-.06.06-.12.06-.18.06v-4.9Z"/>
    <path class="cls-1" d="M631.47,40c-55.23,0-100,44.77-100,100s44.77,100,100,100,100-44.77,100-100-44.77-100-100-100ZM631.47,233.4c-51.58,0-93.4-41.82-93.4-93.4s41.82-93.4,93.4-93.4,93.4,41.82,93.4,93.4-41.82,93.4-93.4,93.4ZM631.47,49.31c-50.08,0-90.69,40.6-90.69,90.68s40.6,90.69,90.69,90.69,90.69-40.6,90.69-90.69-40.61-90.68-90.69-90.68ZM631.47,228.78c-49.04,0-88.79-39.75-88.79-88.79s39.75-88.78,88.79-88.78,88.78,39.75,88.78,88.78-39.75,88.79-88.78,88.79Z"/>
    <g>
      <path class="cls-2" d="M570.83,125.36l-4.96-1.29.13-.45c1.29.14,2.44-.09,3.42-.7.99-.61,1.62-1.39,1.89-2.35.21-.74.18-1.39-.09-1.93-.27-.54-.67-.89-1.18-1.04-.33-.09-.64-.1-.94-.02-.4.11-.84.35-1.3.72-.34.27-.99.94-1.95,2-1.35,1.49-2.48,2.42-3.41,2.81-.93.38-1.88.43-2.85.15-1.24-.35-2.16-1.14-2.78-2.35-.61-1.22-.71-2.57-.29-4.05.13-.47.3-.89.52-1.28.21-.39.54-.86.98-1.41.24-.31.4-.57.46-.8.05-.19.04-.41-.05-.66-.09-.25-.26-.49-.52-.7l.12-.4,5.58,1.59-.12.4c-1.66-.13-3.03.15-4.12.82-1.08.68-1.78,1.54-2.08,2.59-.23.81-.19,1.53.11,2.13.31.61.75,1,1.34,1.17.35.1.71.1,1.09.01.38-.09.77-.28,1.18-.58.4-.29.97-.85,1.72-1.68,1.04-1.16,1.88-1.96,2.51-2.42.63-.46,1.28-.76,1.94-.91.67-.15,1.34-.13,2.03.07,1.18.33,2.05,1.05,2.64,2.15.58,1.1.68,2.31.31,3.62-.14.48-.33.93-.57,1.35-.18.32-.46.68-.84,1.11-.38.42-.59.73-.65.93-.06.19-.04.35.05.5.09.14.34.32.75.54l-.09.33Z"/>
      <path class="cls-2" d="M570.12,125.72l-1.07,7.86-.42-.06.05-.39c.08-.59.08-1.01-.02-1.24-.1-.24-.24-.42-.45-.54-.2-.12-.74-.25-1.61-.36l-7.46-1.02c-1.36-.19-2.28-.21-2.75-.06-.47.15-.88.43-1.24.87-.36.43-.58,1.01-.68,1.72-.11.82-.02,1.55.27,2.18.29.63.74,1.14,1.36,1.51.61.38,1.72.67,3.34.89l6.21.85c.68.09,1.18.09,1.49-.02.31-.1.54-.26.68-.46.22-.31.37-.78.45-1.39l.41.06-.72,5.27-.42-.06.04-.31c.06-.43.02-.8-.11-1.1-.14-.31-.36-.55-.69-.72-.23-.13-.65-.24-1.27-.32l-5.78-.79c-1.79-.24-3.07-.54-3.83-.88-.76-.35-1.41-1.02-1.95-2.02-.54-1-.71-2.3-.49-3.87.18-1.32.5-2.31.94-2.98.61-.92,1.32-1.52,2.13-1.83.8-.3,1.84-.37,3.1-.2l7.46,1.02c.88.12,1.43.15,1.65.08.23-.07.42-.21.58-.44.16-.22.28-.65.36-1.3l.42.06Z"/>
      <path class="cls-2" d="M568.32,144.3l-9.14,8.06,6.6-.33c.92-.05,1.54-.21,1.85-.49.42-.39.6-1,.54-1.86l.42-.02.26,5.07-.42.02c-.12-.65-.25-1.07-.39-1.29-.14-.22-.37-.38-.67-.49-.31-.11-.82-.15-1.55-.11l-12.78.65-.02-.39,12.26-11.03-9.76.5c-.88.05-1.47.28-1.76.7-.29.42-.42.89-.4,1.41l.02.36-.42.02-.28-5.45.42-.02c.05.85.25,1.42.61,1.74.36.31.94.45,1.76.41l10.83-.55.39-.35c.39-.35.64-.65.76-.9.12-.25.17-.62.16-1.09l.42-.02.28,5.45Z"/>
      <path class="cls-2" d="M575.51,173.44l-.39.15c-.25-.45-.53-.75-.84-.92-.44-.24-1.46-.47-3.08-.71l-6.4-1.04-3.46,1.37c-.74.29-1.18.51-1.33.66-.15.15-.25.36-.29.65-.05.28,0,.61.16.99l.32.8-.39.16-3.18-8.02.39-.15.3.75c.17.42.37.72.62.91.17.14.4.22.68.23.2.01.66-.13,1.37-.41l2.87-1.14,4.79-5.79c.94-1.15,1.47-1.9,1.57-2.26.11-.36.07-.77-.1-1.23l.39-.16,2.72,6.85-.39.16-.12-.31c-.16-.41-.34-.68-.52-.8-.18-.12-.34-.15-.48-.1-.25.1-.78.63-1.57,1.6l-3.71,4.46,5.33.86c1.31.22,2.13.26,2.48.12.19-.08.31-.23.37-.46.08-.31.01-.79-.21-1.44l.39-.16,1.73,4.36Z"/>
      <path class="cls-2" d="M569.07,182.82l-2.95-4.56-1.61.27c-.53.09-.94.23-1.21.41-.36.23-.53.55-.52.96.01.24.21.71.59,1.41l-.35.23-2.78-4.29.35-.23c.37.42.81.68,1.31.77.51.09,1.39.04,2.66-.15l13.29-2.05.12.18-7.57,11.5c-.71,1.09-1.11,1.87-1.19,2.32-.06.34.03.72.25,1.13l-.35.23-4.04-6.24.35-.23.16.26c.32.5.62.81.89.92.19.07.38.05.57-.08.11-.07.22-.17.32-.28.05-.05.22-.3.53-.75l1.16-1.73ZM569.57,182.04l3.2-4.8-5.73.89,2.52,3.9Z"/>
      <path class="cls-2" d="M589.22,189.48l-3.02,2.87-.28-.3c.53-.84.85-1.51.94-2.01.1-.5.06-1.02-.11-1.57-.1-.3-.4-.71-.89-1.23l-.79-.83-8.59,8.17c-.57.54-.89.91-.98,1.11-.08.2-.09.44-.02.73.07.29.25.59.55.9l.35.37-.31.29-5.54-5.83.31-.29.35.37c.31.32.61.53.91.62.21.07.45.06.72-.04.19-.06.56-.36,1.12-.89l8.59-8.16-.76-.81c-.71-.75-1.39-1.14-2.03-1.18-.89-.06-1.81.25-2.75.9l-.3-.31,3.02-2.86,9.51,10Z"/>
      <path class="cls-2" d="M588.09,200.12l-4.4-3.41,1.21-1.56,4.39,3.41-1.21,1.56Z"/>
      <path class="cls-2" d="M601.99,197.34l-2.56,4.44-.4-.24c.48-1.21.56-2.37.23-3.49-.33-1.11-.92-1.93-1.77-2.45-.66-.4-1.29-.54-1.89-.42-.6.12-1.04.41-1.32.86-.18.29-.27.59-.27.9,0,.42.12.9.35,1.45.17.4.64,1.2,1.41,2.41,1.08,1.69,1.68,3.03,1.81,4.03.12.99-.08,1.92-.61,2.79-.67,1.1-1.67,1.78-3.01,2.05-1.34.27-2.66,0-3.98-.8-.41-.25-.78-.53-1.1-.84-.32-.31-.68-.75-1.1-1.32-.23-.32-.45-.54-.65-.66-.17-.1-.39-.15-.65-.13-.27.01-.54.12-.82.31l-.36-.22,3.02-4.96.36.22c-.56,1.57-.66,2.96-.3,4.19.36,1.23,1.02,2.12,1.95,2.69.72.44,1.42.59,2.09.46.67-.13,1.16-.46,1.48-.98.19-.31.29-.66.3-1.05.01-.39-.07-.82-.25-1.29-.18-.47-.56-1.17-1.16-2.11-.84-1.31-1.39-2.34-1.66-3.07-.27-.73-.39-1.44-.36-2.12.03-.68.23-1.33.6-1.94.64-1.04,1.56-1.7,2.78-1.97,1.22-.27,2.41-.05,3.58.66.43.26.81.56,1.15.91.26.26.54.63.85,1.11.31.47.55.77.72.87.17.1.33.13.49.09.16-.04.4-.24.72-.58l.29.18Z"/>
      <path class="cls-2" d="M606.8,200.84l-2.31,5.81.28.11c.91.36,1.68.34,2.31-.07.63-.41,1.22-1.14,1.78-2.21l.4.16-2.98,7.47-.4-.16c.24-.85.33-1.59.26-2.21-.06-.63-.24-1.1-.52-1.42-.29-.32-.77-.62-1.45-.89l-1.6,4.02c-.31.79-.47,1.28-.48,1.48,0,.2.06.4.2.58.14.19.41.36.82.52l.85.34c1.33.53,2.53.65,3.58.35,1.05-.3,2-1.01,2.86-2.13l.39.16-2.45,4.28-12.34-4.92.15-.39.47.19c.41.16.78.22,1.09.18.22-.03.43-.14.62-.34.14-.14.36-.57.64-1.28l3.74-9.39c.26-.64.4-1.05.42-1.21.03-.27-.03-.51-.16-.72-.19-.3-.52-.55-.98-.73l-.48-.19.15-.39,11.95,4.76-1.68,4.22-.4-.16c.21-1.11.22-1.97.03-2.56-.19-.6-.58-1.13-1.17-1.61-.34-.28-1.05-.64-2.13-1.07l-1.47-.59Z"/>
      <path class="cls-2" d="M618.83,203.81l5.75,10.73,1.18-6.5c.16-.91.15-1.54-.05-1.91-.28-.5-.84-.81-1.68-.95l.07-.41,5,.91-.08.41c-.65-.03-1.1,0-1.35.09-.24.09-.45.27-.63.54-.17.27-.33.76-.46,1.48l-2.29,12.59-.38-.07-7.93-14.45-1.75,9.61c-.16.87-.07,1.49.27,1.87.34.38.77.61,1.28.71l.36.06-.07.41-5.36-.98.08-.41c.83.14,1.45.08,1.83-.2.39-.27.65-.81.8-1.62l1.94-10.67-.25-.46c-.25-.46-.48-.78-.7-.95-.22-.17-.56-.31-1.02-.41l.07-.41,5.36.98Z"/>
      <path class="cls-2" d="M633.54,205.69l7.85-1.16.06.42-.4.06c-.59.09-.99.21-1.19.36-.2.16-.34.35-.4.58-.06.23-.03.78.1,1.65l1.1,7.45c.2,1.36.43,2.25.7,2.66.27.41.66.73,1.18.95.51.22,1.13.28,1.85.18.82-.12,1.5-.41,2.02-.86.53-.46.89-1.03,1.08-1.72.19-.69.17-1.85-.07-3.46l-.91-6.2c-.1-.68-.24-1.16-.43-1.43-.19-.27-.39-.45-.63-.53-.36-.12-.85-.14-1.46-.05l-.06-.41,5.26-.77.06.41-.32.05c-.43.06-.77.2-1.03.42-.26.21-.43.5-.5.86-.06.25-.05.69.04,1.31l.85,5.78c.27,1.79.34,3.1.22,3.92-.12.83-.59,1.64-1.4,2.44-.82.8-2.01,1.32-3.59,1.55-1.31.19-2.36.17-3.13-.08-1.05-.33-1.83-.85-2.34-1.53-.51-.69-.86-1.66-1.05-2.93l-1.1-7.45c-.13-.88-.26-1.41-.38-1.61-.13-.2-.32-.34-.58-.44-.26-.09-.71-.09-1.35.02l-.06-.41Z"/>
      <path class="cls-2" d="M652.92,201.85l10.39,6.36-2.26-6.21c-.31-.87-.65-1.41-1.01-1.62-.49-.29-1.14-.28-1.93.03l-.14-.39,4.77-1.74.14.39c-.58.3-.96.55-1.12.75-.17.2-.25.46-.27.79-.01.32.1.83.35,1.51l4.38,12.03-.36.13-14.15-8.47,3.34,9.18c.3.83.7,1.32,1.18,1.48.49.15.98.14,1.46-.04l.34-.12.14.39-5.12,1.87-.14-.39c.79-.3,1.29-.66,1.48-1.1.2-.43.15-1.03-.12-1.8l-3.72-10.2-.45-.27c-.45-.27-.81-.43-1.09-.46-.28-.03-.64.02-1.09.17l-.14-.4,5.13-1.87Z"/>
      <path class="cls-2" d="M676.88,207.08l.21.36-6.98,3.98-.21-.37.45-.25c.39-.22.66-.47.81-.74.12-.19.16-.42.13-.7-.02-.2-.22-.63-.6-1.3l-5-8.79c-.39-.68-.67-1.09-.84-1.22-.17-.13-.4-.2-.7-.2-.29,0-.62.1-1,.31l-.44.25-.2-.36,6.98-3.98.21.37-.44.25c-.39.22-.66.47-.82.74-.12.19-.16.42-.13.7.02.2.22.63.6,1.3l5,8.78c.39.68.67,1.09.85,1.22.17.13.41.19.7.2s.63-.1,1-.32l.45-.25Z"/>
      <path class="cls-2" d="M681.49,184.51l.27.32c-.37.43-.57.97-.58,1.64,0,.49.2,1.48.61,2.96l3.43,12.41-.29.24-11.86-6.03c-1.43-.73-2.31-1.12-2.64-1.18-.33-.06-.75.07-1.25.4l-.27-.32,5.67-4.71.27.32-.2.16c-.51.43-.81.78-.88,1.06-.06.2-.02.38.12.55.09.1.21.21.38.31.16.1.64.36,1.42.76l7.41,3.79-2.02-7.18c-.25-.86-.43-1.43-.54-1.7-.11-.27-.24-.48-.36-.63-.15-.17-.32-.29-.52-.35-.2-.06-.42-.04-.66.04-.34.11-.71.33-1.12.68l-.27-.32,3.88-3.22Z"/>
      <path class="cls-2" d="M684.52,181.47l5.02,3.73.19-.25c.58-.78.75-1.53.52-2.25-.23-.72-.79-1.48-1.68-2.29l.26-.35,6.46,4.79-.26.35c-.76-.45-1.45-.72-2.07-.82-.62-.1-1.12-.05-1.51.14-.39.19-.8.59-1.23,1.17l3.48,2.58c.68.5,1.12.78,1.31.84.2.05.4.04.61-.05.21-.09.45-.3.71-.66l.55-.74c.86-1.15,1.27-2.28,1.25-3.37-.02-1.09-.46-2.19-1.33-3.3l.25-.34,3.51,3.46-7.91,10.67-.34-.25.3-.41c.27-.36.42-.7.45-1.01.03-.22-.02-.45-.17-.69-.1-.17-.46-.49-1.07-.95l-8.12-6.02c-.56-.41-.91-.65-1.06-.72-.26-.1-.51-.11-.74-.03-.34.11-.66.36-.96.76l-.3.41-.34-.25,7.66-10.33,3.65,2.71-.26.35c-1.02-.49-1.85-.71-2.47-.68-.62.03-1.24.27-1.86.72-.36.26-.89.85-1.58,1.79l-.94,1.27Z"/>
      <path class="cls-2" d="M698.31,172.92l4,1.59c.77.31,1.28.45,1.51.44.24-.01.46-.12.68-.31.22-.19.45-.61.71-1.27l.39.15-2.91,7.31-.39-.16c.27-.66.38-1.13.35-1.42-.03-.28-.12-.51-.28-.68-.16-.17-.62-.41-1.4-.72l-9.27-3.68c-.77-.31-1.28-.45-1.51-.44-.24.01-.47.12-.68.31-.22.19-.45.61-.71,1.26l-.39-.15,2.63-6.64c.69-1.73,1.31-2.94,1.87-3.65.56-.71,1.26-1.18,2.1-1.43.84-.25,1.7-.2,2.56.14,1.05.42,1.77,1.14,2.16,2.18.24.66.3,1.46.17,2.42l6.2-1.51c.8-.2,1.32-.36,1.55-.49.33-.2.59-.49.76-.86l.39.15-1.79,4.5-8.34,2.02-.37.94ZM691.3,170.14l6.26,2.49.24-.6c.39-.98.59-1.74.6-2.3.01-.56-.16-1.06-.51-1.53-.36-.46-.91-.84-1.66-1.14-1.09-.43-1.99-.5-2.72-.19-.72.3-1.31,1.02-1.76,2.15l-.45,1.13Z"/>
      <path class="cls-2" d="M694.92,151.82l5.07.72-.07.46c-1.3,0-2.41.37-3.32,1.08-.91.72-1.45,1.57-1.62,2.55-.12.76-.02,1.4.31,1.91.33.51.76.81,1.29.9.34.06.65.03.93-.09.39-.16.79-.45,1.21-.87.3-.31.88-1.04,1.71-2.21,1.17-1.63,2.19-2.69,3.07-3.18.88-.48,1.82-.64,2.81-.48,1.27.21,2.28.89,3.02,2.03.75,1.14,1,2.47.75,3.99-.08.48-.2.92-.37,1.33-.17.41-.44.91-.81,1.51-.21.33-.33.62-.37.85-.03.2,0,.41.12.65.11.24.31.45.59.64l-.07.41-5.73-.95.07-.41c1.67-.06,3-.49,4-1.28,1-.8,1.59-1.73,1.77-2.81.14-.83.02-1.54-.35-2.11-.37-.57-.86-.91-1.46-1.01-.36-.06-.72-.02-1.09.11-.37.13-.73.37-1.1.71-.37.34-.88.96-1.52,1.86-.91,1.27-1.65,2.16-2.23,2.69-.57.53-1.19.9-1.83,1.13-.64.23-1.32.28-2.03.16-1.21-.2-2.16-.82-2.86-1.85-.7-1.03-.94-2.22-.72-3.57.08-.49.22-.96.42-1.4.15-.33.39-.73.71-1.2.33-.46.51-.79.54-1,.03-.19,0-.36-.1-.49-.1-.13-.37-.28-.81-.46l.05-.34Z"/>
      <path class="cls-2" d="M711.2,142.86h.42s-.12,8.04-.12,8.04h-.42s0-.52,0-.52c0-.44-.06-.81-.22-1.08-.1-.2-.28-.35-.54-.46-.18-.09-.66-.14-1.43-.14l-10.11-.15c-.79-.01-1.28.03-1.47.11-.2.08-.37.25-.52.5-.15.25-.23.59-.24,1.02v.51s-.43,0-.43,0l.12-8.04h.42s0,.52,0,.52c0,.45.07.81.22,1.08.1.2.28.35.54.47.18.08.65.13,1.42.14l10.11.14c.79.01,1.28-.03,1.47-.11.2-.09.37-.25.53-.5.15-.25.23-.59.23-1.02v-.51Z"/>
      <path class="cls-2" d="M695.44,128.52l4.12-.54.05.4c-.92.37-1.57.72-1.95,1.07-.38.35-.65.79-.84,1.33-.1.3-.1.81,0,1.52l.15,1.14,11.76-1.53c.78-.1,1.26-.21,1.44-.32.18-.11.33-.3.44-.57.11-.27.14-.62.09-1.06l-.07-.5.42-.06,1.04,7.98-.41.05-.07-.51c-.06-.44-.18-.79-.37-1.04-.13-.18-.33-.31-.6-.39-.19-.06-.67-.04-1.43.06l-11.75,1.53.14,1.1c.14,1.03.45,1.74.94,2.15.69.57,1.61.87,2.76.9l.06.43-4.12.54-1.79-13.69Z"/>
      <path class="cls-2" d="M690.82,112.43l.4-.12c.21.47.46.8.75,1,.41.27,1.41.6,2.99.99l6.28,1.64,3.57-1.04c.76-.22,1.22-.4,1.38-.53.16-.14.28-.34.35-.62.07-.28.05-.61-.06-1l-.24-.83.4-.12,2.42,8.28-.4.12-.23-.77c-.13-.44-.3-.76-.53-.97-.16-.16-.38-.26-.65-.29-.2-.03-.67.07-1.41.28l-2.96.86-5.31,5.32c-1.05,1.05-1.64,1.75-1.78,2.1-.14.35-.14.76-.01,1.23l-.4.12-2.07-7.07.4-.12.09.32c.12.43.28.71.45.84.17.14.33.18.47.14.26-.08.83-.56,1.72-1.44l4.1-4.09-5.22-1.35c-1.28-.34-2.1-.46-2.46-.36-.19.06-.33.2-.41.43-.11.3-.08.79.07,1.46l-.4.12-1.32-4.5Z"/>
    </g>
    <path class="cls-2" d="M631.47,137.93c-.38,0-.69.31-.69.69v5.49c0,.38.31.69.69.69s.69-.31.69-.69v-5.49c0-.38-.31-.69-.69-.69ZM653.7,113.54c-2.88-9.56-11.74-16.52-22.24-16.52s-19.36,6.96-22.24,16.52c-15.75.9-28.25,13.95-28.25,29.93s12.5,29.03,28.25,29.93c2.88,9.56,11.74,16.52,22.24,16.52s19.36-6.96,22.24-16.52c15.75-.9,28.25-13.95,28.25-29.93s-12.5-29.03-28.25-29.93ZM677.75,145.1c-.02.32-.04.63-.07.95-.02.15-.04.3-.05.44-.03.27-.06.54-.11.82-.02.16-.05.32-.08.48-.04.25-.09.51-.14.76-.03.17-.07.33-.11.5-.05.24-.11.48-.17.72-.04.17-.09.34-.14.5-.06.23-.12.46-.19.69-.05.17-.1.34-.16.5-.07.22-.15.45-.22.67-.06.17-.12.33-.19.5-.08.22-.17.43-.26.65-.07.16-.14.33-.2.49-.09.21-.19.42-.28.63-.08.16-.15.32-.23.48-.1.21-.2.41-.31.61-.08.16-.16.31-.25.47-.11.2-.23.4-.34.6-.09.15-.18.3-.27.45-.12.2-.25.39-.38.59-.09.14-.19.29-.28.43-.14.2-.27.39-.41.58-.1.14-.19.27-.29.4-.15.2-.31.39-.46.59-.1.12-.19.24-.29.36-.19.23-.38.45-.58.67-.07.08-.14.16-.21.24-.27.29-.54.58-.82.86-.11.11-.22.21-.33.31-.18.17-.35.35-.54.51-.13.12-.27.24-.41.36-.17.14-.33.29-.5.43-.15.12-.3.24-.44.36-.16.13-.33.26-.49.39-.16.12-.32.23-.48.35-.17.12-.33.24-.5.36-.16.11-.33.22-.5.33-.17.11-.34.22-.51.33-.17.11-.35.21-.53.32-.17.1-.34.2-.52.3-.18.1-.36.2-.54.3-.17.09-.35.18-.53.27-.19.09-.38.19-.56.27-.18.08-.35.16-.54.24-.19.09-.38.17-.58.25-.18.07-.36.14-.55.21-.2.08-.4.15-.6.22-.18.06-.37.13-.55.19-.2.07-.41.14-.62.2-.19.06-.37.11-.56.16-.21.06-.42.12-.64.17-.19.05-.37.09-.56.13-.22.05-.44.1-.66.14-.18.04-.37.07-.55.1-.23.04-.46.08-.68.12-.17.03-.35.04-.53.07-1.09.14-2.2.22-3.32.22-.54,0-1.07-.02-1.59-.05-.19,1.41-.53,2.78-1.01,4.08h0c-.09.23-.18.47-.28.7-.05.12-.11.25-.16.37-.06.13-.12.26-.18.39-.06.13-.12.25-.18.38-.06.12-.13.25-.19.38-.06.12-.12.24-.19.36-.08.15-.17.29-.25.44-.1.17-.2.34-.31.5-.08.14-.17.27-.26.41-.07.11-.15.22-.22.33-.08.12-.17.24-.25.35-.08.11-.16.21-.24.32-.09.12-.19.24-.28.36-.07.09-.15.19-.23.28-.16.2-.33.39-.5.57-.08.09-.16.17-.24.25-.11.12-.22.23-.33.35-.09.09-.17.18-.26.26-.11.11-.23.22-.34.33-.09.08-.17.16-.26.24-.16.14-.33.28-.49.43-.09.07-.17.14-.26.21-.16.13-.33.26-.49.38-.09.07-.18.13-.27.2-.14.1-.28.2-.42.3-.09.06-.18.12-.27.19-.16.11-.32.21-.48.31-.07.05-.14.09-.22.14-.23.14-.46.28-.7.41-.07.04-.15.08-.22.12-.17.09-.35.18-.53.27-.09.04-.18.09-.27.13-.17.08-.35.16-.52.24-.09.04-.17.08-.26.11-.25.11-.51.21-.77.3-.02,0-.04.01-.06.02-.25.09-.5.18-.76.25-.09.03-.17.05-.26.08-.19.06-.38.11-.58.16-.09.02-.18.05-.28.07-.22.05-.43.1-.65.15-.06.02-.13.03-.2.05-.28.06-.56.1-.85.15-.07.01-.14.02-.21.03-.22.03-.44.06-.67.08-.1.01-.19.02-.29.03-.21.02-.42.03-.63.05-.09,0-.18.01-.27.02-.3.01-.59.02-.89.02h0c-.3,0-.59,0-.89-.02-.09,0-.18-.01-.27-.02-.21-.01-.41-.03-.62-.05-.1-.01-.2-.02-.3-.03-.22-.02-.43-.05-.65-.08-.07-.01-.15-.02-.22-.03-.28-.04-.56-.09-.85-.15-.07-.02-.14-.03-.22-.05-.21-.04-.42-.09-.62-.14-.1-.03-.2-.05-.29-.08-.19-.05-.37-.1-.56-.16-.09-.03-.19-.05-.28-.08-.24-.08-.47-.16-.7-.24-.05-.02-.1-.04-.16-.06-.24-.09-.47-.18-.7-.28-.1-.04-.19-.08-.29-.12-.16-.07-.33-.14-.49-.22-.1-.05-.2-.1-.3-.15-.16-.08-.32-.16-.48-.25-.09-.05-.18-.09-.27-.14-.23-.13-.46-.26-.68-.39-.09-.05-.18-.11-.27-.17-.14-.09-.29-.18-.43-.28-.11-.07-.21-.14-.31-.21-.13-.09-.25-.18-.38-.27-.1-.07-.2-.15-.3-.22-.14-.1-.27-.21-.41-.32-.14-.11-.28-.23-.42-.35-.13-.11-.26-.22-.39-.34-.1-.09-.2-.19-.3-.28-.1-.09-.2-.19-.3-.28-.1-.1-.2-.2-.3-.3-.09-.1-.19-.19-.28-.29-.1-.1-.19-.2-.29-.31-.15-.16-.29-.33-.43-.49-.11-.13-.22-.27-.32-.4-.08-.1-.15-.19-.23-.29-.09-.12-.18-.24-.27-.37-.07-.1-.14-.19-.2-.29-.09-.13-.18-.25-.26-.38-.06-.1-.12-.19-.19-.29-.15-.24-.3-.49-.45-.74-.06-.09-.11-.18-.16-.28-.08-.14-.15-.28-.23-.42-.05-.1-.1-.2-.15-.3-.07-.14-.14-.29-.21-.43-.05-.1-.09-.21-.14-.31-.07-.15-.13-.3-.2-.45-.02-.04-.04-.09-.05-.14-.59-1.46-1.01-3.01-1.23-4.62-.53.03-1.06.05-1.59.05-1.14,0-2.26-.08-3.36-.23-.16-.02-.32-.04-.48-.06-.24-.04-.48-.08-.72-.12-.17-.03-.35-.06-.52-.09-.23-.05-.46-.1-.69-.15-.18-.04-.35-.08-.52-.12-.23-.06-.45-.12-.67-.18-.17-.05-.35-.1-.52-.15-.22-.07-.43-.14-.65-.21-.17-.06-.35-.12-.52-.17-.21-.08-.42-.16-.63-.24-.17-.06-.34-.13-.51-.2-.2-.09-.41-.17-.61-.26-.17-.07-.34-.15-.5-.23-.2-.1-.4-.19-.6-.29-.17-.08-.33-.17-.49-.25-.19-.1-.39-.21-.58-.31-.16-.09-.32-.18-.48-.27-.19-.11-.38-.22-.56-.34-.16-.1-.31-.2-.47-.3-.18-.12-.36-.24-.54-.36-.15-.1-.3-.21-.45-.32-.18-.13-.36-.25-.53-.39-.15-.11-.29-.23-.43-.34-.17-.14-.34-.27-.51-.41-.14-.12-.28-.24-.42-.36-.16-.14-.33-.28-.49-.43-.13-.12-.26-.25-.39-.37-.16-.15-.32-.3-.47-.46-.11-.11-.21-.22-.32-.33-.31-.32-.6-.65-.9-.98-.13-.14-.26-.29-.38-.44-.13-.16-.25-.32-.38-.48-.12-.16-.25-.31-.37-.47-.12-.16-.24-.33-.36-.49-.12-.16-.24-.32-.35-.49-.11-.17-.22-.33-.33-.5-.11-.17-.22-.34-.33-.51-.1-.17-.21-.34-.31-.52-.1-.18-.21-.35-.31-.53-.1-.18-.19-.35-.28-.53-.09-.18-.19-.36-.28-.55-.09-.18-.17-.36-.26-.54-.09-.19-.17-.38-.26-.57-.08-.18-.16-.37-.23-.55-.08-.19-.16-.39-.23-.58-.07-.19-.14-.38-.21-.56-.07-.2-.14-.4-.2-.6-.06-.19-.12-.38-.18-.57-.06-.2-.12-.41-.17-.62-.05-.19-.11-.38-.15-.58-.05-.21-.1-.42-.15-.64-.04-.19-.09-.39-.13-.58-.04-.22-.08-.44-.12-.66-.03-.19-.07-.38-.1-.58-.03-.23-.06-.46-.09-.69-.02-.19-.05-.38-.07-.57-.02-.25-.04-.5-.06-.75-.01-.18-.03-.35-.04-.53-.01-.33-.02-.67-.02-1,0-.09,0-.19,0-.28s0-.19,0-.28c0-.34,0-.67.02-1,0-.18.03-.35.04-.53.02-.25.03-.5.06-.75.02-.19.05-.38.07-.57.03-.23.05-.46.09-.69.03-.19.07-.39.1-.58.04-.22.08-.44.12-.65.04-.19.08-.39.13-.58.05-.21.09-.42.15-.63.05-.19.1-.39.15-.58.06-.21.11-.41.17-.62.06-.19.12-.38.18-.57.07-.2.13-.4.2-.6.07-.19.14-.38.21-.56.07-.19.15-.39.23-.58.08-.19.15-.37.23-.55.08-.19.17-.38.26-.56.09-.18.17-.36.26-.54.09-.18.19-.36.28-.54.09-.18.19-.36.28-.53.1-.18.2-.35.31-.53.1-.17.2-.35.31-.52.11-.17.22-.34.33-.51.11-.17.22-.34.33-.5.11-.17.23-.33.35-.49.12-.17.23-.33.36-.49.12-.16.25-.31.37-.47.13-.16.25-.32.38-.48.13-.15.25-.29.38-.44.29-.33.59-.66.9-.98.11-.11.21-.22.32-.33.15-.16.31-.3.47-.45.13-.12.26-.25.39-.38.16-.15.33-.29.49-.43.14-.12.28-.24.42-.36.16-.14.34-.27.51-.41.15-.11.29-.23.43-.34.17-.13.35-.26.53-.39.15-.11.29-.21.45-.32.18-.12.36-.24.54-.36.15-.1.31-.2.47-.3.19-.12.37-.23.56-.34.16-.09.32-.19.48-.28.19-.11.38-.21.58-.31.16-.09.33-.17.49-.25.2-.1.4-.19.6-.29.17-.08.33-.15.5-.23.2-.09.41-.18.61-.26.17-.07.34-.14.51-.2.21-.08.42-.16.63-.24.17-.06.34-.12.52-.18.22-.07.43-.14.65-.21.17-.05.35-.1.52-.15.22-.06.44-.12.67-.18.17-.04.35-.08.52-.12.23-.05.46-.11.69-.15.17-.03.35-.06.52-.09.24-.04.48-.09.72-.12.16-.03.32-.04.48-.06,1.1-.14,2.22-.23,3.36-.23.54,0,1.07.02,1.6.05.21-1.56.6-3.07,1.17-4.49.03-.09.07-.18.11-.27.06-.15.12-.29.19-.43.05-.11.1-.22.14-.32.07-.14.13-.28.2-.42.05-.11.11-.21.17-.32.07-.14.14-.27.22-.41.06-.11.12-.21.18-.32.13-.23.27-.46.41-.68.07-.1.13-.21.2-.32.08-.12.17-.25.25-.37.07-.1.15-.21.22-.31.09-.12.17-.24.27-.35.08-.1.16-.21.25-.31.08-.11.17-.22.26-.32.16-.19.32-.37.48-.56.09-.1.18-.2.27-.29.1-.1.19-.21.29-.31.09-.1.19-.19.29-.29.1-.1.21-.2.31-.3.1-.09.19-.18.28-.26.14-.13.28-.24.43-.37.12-.1.24-.2.36-.3.14-.11.29-.23.43-.34.1-.07.19-.14.29-.21.13-.09.26-.19.39-.28.1-.07.2-.14.3-.2.15-.1.3-.19.44-.28.09-.06.17-.11.25-.16.22-.14.46-.27.69-.39.08-.05.17-.09.25-.13.16-.09.33-.17.49-.25.1-.05.2-.09.3-.14.17-.08.33-.15.5-.22.09-.04.18-.08.28-.12.24-.1.48-.19.72-.28.04-.01.09-.03.13-.05.23-.09.48-.17.72-.24.09-.03.18-.06.27-.08.19-.06.37-.11.56-.16.1-.03.19-.05.29-.08.21-.05.41-.1.62-.14.07-.02.14-.03.22-.05.28-.06.56-.11.85-.15.07-.01.14-.02.22-.03.22-.03.44-.06.66-.08.1-.01.19-.02.29-.03.21-.02.41-.03.62-.05.09,0,.18-.01.27-.02.3-.01.59-.02.89-.02h0c.3,0,.6,0,.89.02.09,0,.18.01.27.02.21.01.42.03.63.05.09.01.19.02.28.03.23.02.45.05.67.08.07,0,.14.02.2.03.29.04.57.09.85.15.07.01.13.03.2.04.22.05.43.1.65.15.09.02.19.05.28.07.2.05.39.11.58.17.08.03.17.05.25.08.26.08.52.17.77.26.01,0,.02,0,.04.01.26.1.52.2.78.31.08.03.17.07.25.11.18.08.35.16.53.24.09.04.18.09.27.13.18.09.36.18.54.28.07.04.14.07.21.11.24.13.48.27.71.41.07.04.14.09.2.13.17.11.33.21.5.32.09.06.17.12.26.18.15.1.29.2.43.31.08.06.17.12.25.19.17.13.35.27.52.41.07.06.14.11.2.17.18.15.35.3.53.46.08.07.16.15.24.23.12.11.24.23.36.34.09.08.17.17.25.25.12.12.23.24.35.36.08.08.15.16.22.24.17.19.34.38.5.58.07.08.14.17.21.26.1.13.2.26.3.39.08.1.15.2.23.31.09.12.17.24.26.37.07.11.14.21.22.31.09.14.19.29.28.43.09.15.18.29.27.44.09.16.19.32.28.48.06.12.12.23.18.35.07.13.14.26.2.39.06.12.12.24.18.36.06.14.12.27.19.41.05.12.1.23.15.35.1.23.19.46.28.7h0c.48,1.3.82,2.66,1.01,4.08.53-.03,1.06-.05,1.59-.05,1.12,0,2.23.08,3.32.22.17.02.35.04.53.07.23.04.46.08.68.12.18.03.37.06.55.1.22.04.44.1.66.14.19.04.37.08.56.13.22.05.43.11.64.17.19.05.37.1.56.16.21.06.41.13.62.2.18.06.37.12.55.19.2.07.4.15.6.22.18.07.36.14.55.21.2.08.39.17.58.25.18.08.36.16.54.24.19.09.38.18.56.27.18.09.35.18.53.27.18.1.36.19.54.29.17.1.35.2.52.3.17.1.35.21.53.31.17.11.34.22.51.33.17.11.34.22.5.33.17.12.33.24.5.35.16.12.32.23.48.35.17.13.33.26.49.39.15.12.3.24.44.36.17.14.34.29.5.44.14.12.27.24.41.36.18.17.36.34.54.51.11.11.22.21.33.32.28.28.56.57.82.86.07.08.14.16.21.24.2.22.39.44.58.67.1.12.19.24.29.36.16.19.31.39.46.59.1.13.19.27.29.41.14.19.28.38.41.58.1.14.19.29.28.43.13.19.26.39.38.59.09.15.18.3.27.45.12.2.23.4.34.6.09.15.17.31.25.47.11.2.21.41.31.61.08.16.15.32.23.48.1.21.19.42.28.63.07.16.14.33.2.49.09.21.18.43.26.65.06.17.12.33.19.5.08.22.15.44.22.67.06.17.11.34.16.51.07.23.13.46.19.69.05.17.09.34.14.51.06.24.11.48.17.72.04.17.08.33.11.5.05.25.09.5.14.75.03.16.06.32.08.48.04.27.07.54.11.82.02.15.04.29.05.44.03.31.05.63.07.95,0,.11.02.22.02.33.02.43.03.86.03,1.3s-.01.87-.03,1.3c0,.11-.01.22-.02.33ZM631.47,130.96c.83,0,1.51-.68,1.51-1.51s-.67-1.51-1.51-1.51-1.51.68-1.51,1.51.67,1.51,1.51,1.51ZM637.61,125.71h-3.66v8.34h-1.25c-.35-.27-.79-.43-1.26-.43s-.91.16-1.27.43h-1.2v-8.34h-3.66v25.45h-1.5v3.73h15.29v-3.73h-1.5v-25.45ZM633.95,151.17h-4.97v-2.38h4.97v2.38ZM633.95,147.15h-4.97v-11.56h1.4c.06-.53.51-.95,1.06-.95s1,.42,1.06.95h1.45v11.56ZM637.57,120.38h-3.04v-2.41h-.84v-1.54h.8v-1.39h-.8v-.22c0-1.12-.83-2.04-1.9-2.2v-3.87h-.66v3.87c-1.08.16-1.9,1.09-1.9,2.2v.22h-.8v1.39h.8v1.54h-.84v2.41h-3.04v2.27h-1.5v1.46h15.21v-1.46h-1.5v-2.27ZM630.77,120.38h-.86v-2.41h.86v2.41ZM633.02,120.38h-.86v-2.41h.86v2.41ZM651.97,119.81h-3.39c-.23-9.25-7.8-16.68-17.11-16.68s-16.87,7.43-17.11,16.68h-3.39c-13.07,0-23.66,10.59-23.66,23.66s10.59,23.66,23.66,23.66h3.39c.23,9.25,7.8,16.68,17.11,16.68s16.87-7.43,17.11-16.68h3.39c13.07,0,23.66-10.59,23.66-23.66s-10.59-23.66-23.66-23.66ZM611.13,151.1c-1.37-1.19-3.07-2.03-4.94-2.35h9.52c-1.88,0-3.55.93-4.58,2.35ZM612.28,152.26c.72-1.15,1.99-1.91,3.45-1.91,2.25,0,4.07,1.82,4.07,4.07h0v4.62h-5.14c0-.07,0-.14,0-.22,0-2.5-.9-4.78-2.38-6.56ZM619.8,160.64v9.78h-2.19v-6.3h0c0-1.33-.48-2.54-1.28-3.47h3.47ZM631.47,182.29c-6.74,0-12.48-4.28-14.66-10.28h29.31c-2.17,5.99-7.91,10.28-14.66,10.28ZM627.39,170.41v-8.06c.35-2.05,2.09-3.62,4.18-3.62,1.93,0,3.55,1.33,4.05,3.15v8.52h-8.24ZM645.31,164.11h0v6.3h-2.26v-9.78h3.54c-.8.94-1.28,2.15-1.28,3.47ZM648.26,158.82c0,.07,0,.14,0,.22h-5.21v-4.62h0c0-2.25,1.82-4.07,4.07-4.07,1.47,0,2.76.78,3.47,1.96-1.47,1.77-2.35,4.04-2.35,6.51ZM651.75,151.13c-1.02-1.44-2.7-2.38-4.6-2.38h9.58c-1.89.33-3.6,1.17-4.98,2.38ZM670.01,135.29c-5.49,0-10.1,3.73-11.44,8.8h-20.42v1.6h20.12c-.06.47-.09.95-.09,1.44,0,0,0,.02,0,.02h-20.03v1.6h8.97c-3.13,0-5.66,2.54-5.66,5.67h0v15.99h-2.21v-13.81h1.36v-1.07h-4.99v3.8c-.69-.79-1.6-1.38-2.62-1.66v-1.21h.58v-.94h-4.25v.94h.58v1.28c-.99.32-1.86.93-2.52,1.73v-3.91h-5.07v1.05h1.38v13.81h-2.3v-15.99h0c0-3.13-2.53-5.66-5.66-5.67h9.03v-1.6h-20.03v-.02c0-.49-.03-.97-.09-1.44h20.11v-1.6h-20.42c-1.34-5.06-5.95-8.8-11.44-8.8-.81,0-1.61.08-2.37.24,3.18-8.17,11.12-13.97,20.42-13.98h4.92v-1.31h0c0-8.61,6.98-15.59,15.59-15.59s15.59,6.98,15.59,15.59v1.31h4.92c9.3,0,17.24,5.8,20.42,13.98-.77-.16-1.57-.24-2.38-.24ZM630.08,174.16h-2.81l-.67,2.03h2.26l-.09.81h-2.45l-.3.93h3.77l.29-3.77ZM629,175.5h-1.27l.17-.68,1.23-.02-.13.69ZM638.19,176.93l.47,1,1.4-.06-.54-.87.64-.03-.55-.94h-.78l-.95-1.87h-.97l-.99,1.77.35,1h1.91ZM637.39,175.16l.39.84h-.81l.42-.84ZM625.76,174.16h-1.1l-1.71,3.77h1.52l1.29-3.77ZM631.28,177.93h3.84l-.25-.97h-1.51l1.19-1.06-.4-1.74h-2.84l-.02,1.45h1.09l-.09-.58h1.03l.06.64-2.06,1.26-.04,1Z"/>
  </g>
  <g>
    <g>
      <path class="cls-1" d="M461.5,70.37v.07c1.16,1.36,1.36,2.78,0,5.11v-5.18h0ZM461.5,89.66c2.26.58,5.69.71,6.21.97.9.51,1.75-1.1.51-2.07-.45-.39-1.68-1.55-3.04-2.4-1.29-.84-2.66-1.62-3.69-2.39v-3.18c1.16-.39,2.85-.52,4.78-.65,2.53-.19,5.76-2.65,7.97-1.94,2.13.65,3.75.45,6.86,7.7.45,1.29-.9,3.29-2.14,5.24-1.87,2.91-2.38,5.76-4.33,8.87-1.35,2.2-5.24,8.67-3.17,8.22,7.32-1.55,9.64-1.23,13.72,2.4,2.59,2.33,5.18,3.82,5.38,6.53v.71c0,.52-.13,1.03-.33,1.62-4.21,7.18-13.72,1.75-21.94,5.12-1.36,1.55-.91,4.27-4.2,5.3-.85.26-1.75.65-2.59,1.1v-12.29c2.85-.26,5.31-.45,6.79-.59,1.55-.13,2.39-1.88,1.17-2.59-.39-.26-3.63-.19-7.96.13v-18.64c1.62.13,2.72.19,3.17-.45.52-.59.52-1.81-.13-2.33-.84-.33-2.01-.51-3.04-.58v-3.82h0ZM461.5,138.98c2.13-.26,4.53-.65,6.73-.91,3.04-.39,4.92-2.08,6.15-1.17,3.5,2.66,4.07,3.04,5.83,8.02,1.55,4.4-4.86,5.95-8.22,5.18-5.05-1.23-6.41-1.94-10.48-1.55v-9.58ZM458.4,67.07c1.3,1.04,2.39,2.39,3.1,3.3v5.18c-.65,1.17-1.62,2.52-3.1,4.15v-12.62h0ZM458.4,84.61c.91.65,1.68,1.42,1.22,3.49-.19.71.71,1.23,1.88,1.55v3.82c-1.04-.13-2.07-.13-2.59-.07-.2.07-.39.13-.51.19v-8.99h0ZM461.5,83.77c-.72-.58-1.23-1.1-1.36-1.62-.12-.71.39-1.23,1.36-1.55v3.18h0ZM461.5,130.82c-1.1.59-2.14,1.3-3.1,2.01v-14.04c1.1-.13,2.13-.2,3.1-.26v12.29h0ZM458.4,139.23c.97,0,2-.13,3.1-.26v9.58c-.72.13-1.55.25-2.53.39-.19.06-.39.13-.58.32v-10.03h0ZM461.5,115.48c-.97.06-2,.13-3.1.19v-8.47c.38,0,.64-.06.83-.26.52-.52,1.49-1.04.65-1.88-.33-.39-.65-.52-1.48-.45v-8.36c.32.39,1.42.72,2.52.59h.58v18.64ZM448.69,76.52c.38-.19.77-.45,1.1-.77,2.46-2.53-.19-9.77,4.79-10.29,1.36-.07,2.72.65,3.82,1.62v12.62c-.26.32-.59.64-.85,1.03-.26.2-.58.39-.78,1.95.14,1.04.91,1.42,1.63,1.94v8.99c-.72.45-.33,1.62-.07,2.52,0,0,.07.06.07.13v8.36h-.26c-1.37.26-1.1.65-1.49,1.94.06.32,1.03.65,1.75.65v8.47c-1.23.13-2.59.2-3.89.33-1.93.13-3.88.26-5.82.45v-6.15c.64.19,1.55.13,1.94-.26,1.1-1.17,1.17-1.49-.13-2.01-.07.13-.52-.78-1.23,0-.26.32-.45.52-.58.64v-12.56c.64-.39,1.29-.97,1.36-1.42.19-1.55.26-2.2-1.03-1.87,0,.06-.13.13-.32.19v-16.5h0ZM458.4,132.83c-2.2,1.81-3.82,3.82-3.89,5.05-.06,1.23,1.55,1.49,3.89,1.36v10.03c-1.69,1.75,0,10.36-1.56,14.3-1.23,2.97-2.91,6.6-4.52,9.06-1.1,1.62-2.33,3.04-3.62,4.14v-56.56l1.74-.32c2.59-.45,5.37-.84,7.97-1.1v14.04ZM437.88,73.87c1.94-.52,4.08-.33,5.11.58,1.69,1.49,3.82,2.85,5.7,2.07v16.5c-.2.06-.52.2-.71.71-.65,1.29-.91,1.56-.52,2.85.19.13.71-.07,1.23-.46v12.56q-.26.32-.52,1.23c0,.19.26.32.52.39v6.15c-2.27.26-4.47.52-6.54.97-.84.19-2.59.33-4.01,1.23-.07,0-.2.06-.26.13v-9.71c1.62-.91,3.23-2.33,3.43-3.36.45-4.02.39-6.09-2.91-5.25,0,.13-.19.19-.52.26v-7.83c1.62-.91,3.69-3.11,4.01-5.05.38-3.88-.91-6.6-4.01-5.95v-8.03h0ZM448.69,176.77c-3.04,2.59-6.15,3.43-7.89,2.07-.65-.52-1.56-1.62-2.92-3.11v-11.58c2.66-.19,4.85-.52,5.38-1.49,1.81-3.11,1.68-6.15,1.29-9.84.07-1.42-1.94-.58-5.11-.97-.52-.06-.98-.06-1.56-.06v-9.06c1.1-.06,2.07-.19,2.59-.78,1.43-1.61-1.49-3.3-1.23-4.79.33-2.52,6.67-3.24,7.32-4.92.64-1.94,1.75-.91,2-3.17.2-2.14-4.72.13-6.73.71-1.49.45-2.71.65-3.95.97v-8.48c3.04-.71,6.73-1.43,10.81-2.07v56.56ZM415.29,117.36c1.43-1.16,1.04-18.05.26-23.23-.97-2.59-1.23-6.15-.85-8.02.52-2.66,1.94-3.31,3.62-2.46,1.88.97,3.95,3.82,6.15,8.35,1.49,3.11-.13,2.65-.13,3.82-.13,5.76-.64,11.58-.72,15.47,0,2.33,3.17,2.58,3.7,1.17.52-9.45-.65-22.07.2-27.63.13-3.56-1.43-8.09.06-9.19,1.68-1.3,5.56-.52,7.31.39,1.36.71,1.29-1.62,2.33-1.94.19-.13.45-.19.64-.19v8.03c-.07,0-.13.06-.25.06-.52.45-.39,1.1-.39,1.48-.39,3.57-.97,6.41-.91,9.71.25.26.91.13,1.55-.25v7.83c-.72.19-1.88.58-2.01,2.46-.26,3.56-2.39,3.5-1.29,6.8.45.39,1.88-.07,3.3-.91v9.71c-.97.77-1.75,2.2-3.03,2.39-2.21.33-4.01.2-5.19.39-1.62.19-2.45.58-4.33.84-1.69.26-5.57.91-8.09,3.1-2.39,2.07-2.71,8.09-4.01,10.62-1.1,2.14-2.27,4.27-3.17,6.08-1.23,2.26-2.27,4.08-4.66,4.66-3.3.78-5.95-3.3-6.28-5.89v-.97c.97-3.75,1.81-6.79,2.14-10.22.19-2.33-.65-4.53-.39-6.41.26-1.81,1.49-2.59,2.32-3.49.98-1.17,1.95-2.52,3.69-2.2,1.43.26,2.27,1.36,3.7,1.49,2.13.26,3.24-.59,4.72-1.81h0ZM437.88,175.73c-1.04-1.16-2.27-2.52-3.82-3.94-2.38-2.13-6.46-3.69-8.6-5.69-1.37-2.26,6.66-1.62,12.43-1.94v11.58h0ZM437.88,151.79v-9.06c-.97.07-2.07.07-2.91.13-5.5.71-12.49,0-17.73,1.36-5.43,1.49-4.27,3.76-1.68,6.15,1.29,1.23,1.68,2.13,5.17,3.88,3.44,1.69,11.66-2.26,17.15-2.45h0ZM437.88,130.75v-8.48c-2.72.64-4.98,1.29-6.54,2.07-1.49.71-5.7,3.17-7.18,4.01-3.57,2.07-2.78,3.62-1.24,4.98,3.69,3.11,8.93,1.55,9.9.52,1.88-2,3.43-2.65,5.05-3.1Z"/>
      <path class="cls-1" d="M289.87,104.35c4.92.13,8.09-.39,8.03-1.29.19-4.08.26-11-.97-16.31-.64-2.72,1.36-4.4,2.84-5.3,3.69-2.14,4.67-3.11,6.67-2.85,3.62.52,6.27,2.78,8.8,6.09,1.22,1.75,2.19-.71.77,8.09-.77,4.53-.06,4.85.59,5.51,2.01.84,4.14.19,7.25-.78,3.82-1.03,5.11-6.92,12.62,2.01,1.04,1.03,1.81,2.52.45,4.4-1.62,2.2-5.5,3.43-9.84,5.89-5.7,3.17-14.95,3.75-13.65,7.83,3.88,9.71,14.44,23.69,28.35,33.4,3.56,2.45,7.9,4.53,12.81,5.89,7.12,1.94,13.07,3.43,9.57,5.24-5.37,2.78-25.36,6.02-31,2.98-5.75-3.11-23.17-30.68-26.21-36.11-.13-.26-.64-.26-.9.45-3.24,7.12-10.1,20.45-17.09,25.95-3.04,2.46-7.57,1.16-9,.13-1.55-1.24-11.71-3.43-13.33-6.6-.9-2.01.46-2.14,1.56-2.33,13.4-.52,15.21-4.4,18.32-6.86,8.22-6.34,9.44-17.28,8.35-17.73-12.23,1.17-16.51,2.65-20.32-1.81-7.57-15.21-1.42-17.8,5.7-16.89,3.56.52,8.35.97,9.64,1.03Z"/>
      <path class="cls-1" d="M166.78,118.84c1.49.45,2.72,1.3,4.01,3.76,3.62,5.83,2.13,13.14,3.17,17.73.91.58,3.3.07,5.95-.33,3.56-.58,7.44-1.29,7.31-2.26-.51-4.92.27-36.89-.45-41.29-.12-.45-.38-1.88-.51-2.33-1.62-7.38,5.36-9.51,7.44-9.32,3.62.39,10.81,7.18,9.77,10.29-1.94,3.23-2.13,12.36-2.2,21.1-.06,7.38-.19,14.62.19,17.34,0,2.26,9.25-.58,12.36-1.81,3.88-.72,3.04-12.95,6.34-15.21,1.62-1.1,10.81.45,12.24,8.15.19,4.21-1.04,9.64-2.07,14.89-.71,3.68-1.29,8.09-1.43,9.77-.13,1.75-7.25,9.06-9.64,10.74-3.76.91-4.92-7.9-4.92-12.69,0-2.59.06-3.43-.65-4.02-2.2-.19-7.96.79-11.26,2.59-1.81.97-2.46,3.56-4.86,4.01-9.58-.39-19.35,1.55-20.83,3.04-.85.84-5.38,4.73-6.15,5.82-.77,1.04-4.14-.07-5.18.32-2.46.78-3.88-3.56-6.66-7.19-2.91-3.69-.91-5.89.84-9.96,1.88-4.53,2.53-12.5,2.07-17.93,0-2.78-.13-5.96,5.11-5.25Z"/>
      <path class="cls-1" d="M95.26,81.83c1.62.07,3.49.07,5.38-.06,3.35-.39,7.56-3.24,10.61-3.3,4.4,0,10.42,6.21,11.9,10.16.91,3.43-1.23,6.15-3.62,7.44l-2.08.58c-2.33,1.23-6.53,6.73-6.33,7.83-.13,1.62-.13,2.72,1.55,3.95,1.04,1.49-1.48,7.83-4.59,9.06-.91.51-1.74,1.04-4.08,1.1-2.91-.13-5.82.59-8.73,1.81v-16.96c1.36-.97,2.4-2.14,2.78-2.98,1.69-2.26,3.76-6.08,2.47-8.99-1.23-.9-3.31-1.04-5.25-.78v-8.87ZM66.6,90.11c2.79-1.55,4.72-2.53,7.83-3.62-.13-4.6-.71-9.45-.58-13.85.06-.9-.26-1.75-.58-2.39-1.88-3.82,2.39-8.8,8.54-10.22,1.69-.33,9.26,3.3,9.32,6.73-.13,4.92-.64,10.42-.26,14.76,1.17.13,2.65.26,4.4.32v8.87c-1.81.26-3.49.84-4.52,1.3-1.04,1.74-1.68,12.43-.32,13.14,1.55.26,3.36-.59,4.85-1.69v16.96c-2.13.91-4.27,2.07-6.28,3.36-.26,15.4-1.48,29.84-2.01,45.11-1.04,8.02-3.81,15.46-7.96,16.05-2.91-.33-5.76-6.74-5.89-16.96l-.65-41.94c-1.68.26-3.63.91-5.89,1.81v-14.43c1.74,0,2.72-.46,4.85-1.68,1.36-.85.91-10.1.46-11.78-.65-.97-1.89.46-2.27.71-1.03.58-2,1.03-3.04,1.3v-11.84ZM56.31,95.03c1.75.59,3.11-.71,5.31-1.94,2-1.22,3.62-2.13,4.98-2.97v11.84c-1.81.52-3.56.52-5.12.06-1.61-.71.14,10.62,2.01,11.13,1.36.13,2.33.26,3.1.26v14.43c-1.55.58-3.29,1.36-5.24,2.14-.91.78-1.75,1.55-2.59,2.53-.91,1.03-1.49,2.65-2.59,2.91-2.53.65-5.31.26-7.51-1.29-1.75-1.42-1.81-4.98-4.34-8.8-2-2.53-4.01-4.41-4.01-7.9,1.29-3.24,1.75-4.92,2.84-6.86.27-.97.45-1.88.59-3.37.32-3.69.84-6.79,2.26-10.36,1.04-1.94,6.21-5.24,10.29-1.82Z"/>
    </g>
    <path class="cls-1" d="M491.47,197.86v.84c-.65.07-1.1.19-1.43.39-.26.19-.52.45-.78.84l-6.08,9.84v5.89c0,1.23.25,2.01.64,2.33.33.26,1.1.45,2.32.59v.77h-11.06v-.77c1.23-.13,2-.32,2.33-.52.46-.39.65-1.17.65-2.4v-4.66l-5.83-10.55c-.19-.39-.32-.58-.39-.71-.59-.71-1.29-1.04-2.13-1.04v-.84h10.61v.84c-1.1,0-1.81.07-2.07.19-.33.13-.45.39-.45.84,0,.19.07.51.26.91.26.45.39.71.45.91l3.81,7.37,3.56-5.89c.26-.39.45-.84.72-1.29.32-.77.52-1.29.52-1.68,0-.52-.25-.91-.71-1.1-.46-.19-1.1-.26-1.94-.26v-.84h6.99ZM400.41,212.49v-4.33c.64-.13,1.16-.33,1.48-.59.9-.71,1.43-2.01,1.43-4.01,0-1.62-.33-2.78-.98-3.49-.45-.52-1.1-.91-1.94-1.04v-1.17c2.58.07,4.59.58,6.01,1.49,1.55.97,2.27,2.33,2.27,4.15,0,1.68-.58,2.98-1.82,3.94-.64.52-1.74,1.03-3.16,1.49l6.4,9.06c.2.26.39.39.58.45.26.06.46.13.72.13v.77h-6.47l-4.53-6.86h0ZM462.73,218.58v.77h-11.33v-.77c1.23,0,2.07-.13,2.39-.46.46-.32.72-1.16.72-2.46v-16.76c-1.62,0-2.85.25-3.68.78-1.36.84-2.2,2.33-2.46,4.59h-.91l.06-6.4h19.09l.07,6.4h-.97c-.26-2.2-1.04-3.75-2.4-4.59-.9-.52-2.14-.78-3.69-.78v16.76c0,1.3.26,2.14.65,2.46.38.33,1.23.46,2.45.46h0ZM444.22,218.58v.77h-11.07v-.77c1.3-.13,2.13-.32,2.46-.65.32-.32.46-.84.46-1.62v-15.4c0-.91-.27-1.56-.91-1.88-.46-.26-1.11-.32-2.01-.32v-.84h11.07v.84c-.91,0-1.62.07-2.01.32-.65.26-.97.9-.97,1.88v15.4c0,.91.26,1.55.84,1.88.46.26,1.17.39,2.14.39h0ZM428.62,204.27h-.91c-.39-1.42-1.03-2.71-1.88-3.75-1.23-1.42-2.65-2.14-4.34-2.14-.91,0-1.68.26-2.39.77-.65.52-1.04,1.23-1.04,2.21,0,.91.26,1.56.65,2.07.45.46,1.36,1.03,2.66,1.68l4.66,2.33c.84.46,1.55,1.03,2.13,1.81.91,1.23,1.36,2.59,1.36,4.08,0,1.68-.58,3.11-1.74,4.33-1.42,1.55-3.5,2.33-6.15,2.33-.97,0-1.94-.13-2.78-.39-.84-.19-1.75-.46-2.66-.71-.26,0-.45.06-.58.32-.13.2-.26.45-.32.78h-.97v-7.89h.97c.39,1.94,1.04,3.49,1.94,4.66,1.17,1.42,2.72,2.13,4.53,2.13,1.3,0,2.27-.32,2.98-.97.65-.65,1.04-1.55,1.04-2.59,0-.91-.32-1.68-1.04-2.33-.39-.39-1.3-.9-2.52-1.55l-2.13-.97c-2.39-1.17-3.95-2.39-4.73-3.82-.52-.84-.71-1.88-.71-3.04,0-2.01.71-3.56,2.14-4.73,1.23-1.04,2.84-1.49,4.85-1.49,1.04,0,2.07.13,3.17.52,1.1.32,1.68.52,1.81.52.38,0,.65-.19.84-.52.07-.13.13-.32.19-.52h.97v6.85ZM400.41,197.86v1.17c-.33-.06-.65-.06-.97-.06-.85,0-1.36.06-1.56.26-.19.13-.32.52-.39,1.1v8.09c1.17,0,2.14-.06,2.92-.26v4.33l-2.08-3.03h-.85v6.21c0,1.17.2,1.94.59,2.26.32.26,1.03.52,2.2.65v.77h-10.75v-.77c1.16-.13,1.94-.32,2.2-.59.39-.32.59-1.1.59-2.33v-14.04c0-1.29-.2-2.14-.72-2.47-.33-.32-1.04-.45-2.07-.45v-.84h10.88ZM167.81,219.35v-.77h.06v.77h-.06ZM167.81,204.27h.84c.26-2.26,1.1-3.75,2.46-4.59.84-.52,2.07-.78,3.62-.78v16.76c0,1.3-.19,2.14-.64,2.46-.33.33-1.17.46-2.39.46v.77h11.32v-.77c-1.23,0-2.07-.13-2.46-.46-.45-.32-.65-1.16-.65-2.46v-16.76c1.55,0,2.78.25,3.69.78,1.3.84,2.14,2.39,2.39,4.59h.97l-.06-6.4h-19.09v6.4h0ZM367.72,198.71v-.84h18.32v6.4h-.77c-.39-2.13-1.1-3.55-2.33-4.33-.97-.64-2.66-.97-4.99-.97-.9,0-1.55.06-1.88.26-.26.19-.45.59-.45,1.23v7.38c1.68,0,2.85-.33,3.56-.91.84-.72,1.36-1.94,1.62-3.82h.84v10.74h-.84c-.2-1.94-.72-3.24-1.49-3.88-.78-.71-2.01-1.04-3.69-1.04v7.71c0,.64.19,1.16.59,1.36.39.26,1.1.39,2.13.39,1.88,0,3.36-.32,4.6-.97,1.55-.91,2.78-2.4,3.75-4.66h.85l-1.23,6.59h-18.58v-.77c1.04-.13,1.76-.26,2.01-.46.51-.26.77-.9.77-1.81v-15.4c0-.91-.26-1.56-.84-1.88-.39-.26-1.03-.32-1.94-.32h0ZM364.94,197.86v.84c-.85.07-1.43.32-1.81.65-.32.33-.65.97-1.03,1.94l-7.25,18.64h-.91l-8.09-19.02c-.39-.91-.78-1.5-1.04-1.69-.33-.26-.85-.39-1.69-.52v-.84h10.67v.84c-1.1,0-1.8.07-2.13.19-.39.13-.58.52-.58,1.1,0,.25.13.71.39,1.36.26.71.45,1.16.58,1.43l4.15,10.03,4.08-10.48c.19-.45.32-.84.45-1.23.12-.38.12-.71.12-.96,0-.98-.9-1.43-2.71-1.43v-.84h6.79ZM341.13,218.58v.77h-11.13v-.77c1.29-.13,2.13-.32,2.46-.65.32-.32.45-.84.45-1.62v-15.4c0-.91-.26-1.56-.9-1.88-.39-.26-1.1-.32-2-.32v-.84h11.13v.84c-.97,0-1.68.07-2.07.32-.65.26-.97.9-.97,1.88v15.4c0,.91.25,1.55.84,1.88.46.26,1.16.39,2.2.39h0ZM305.66,219.35v-.77c1.04-.13,1.75-.32,2.08-.52.45-.39.71-1.04.71-2.01v-15.08c-.84-1.04-1.43-1.68-1.88-1.94-.25-.26-.58-.32-.84-.32v-.84h6.73l11,13.59.07-9.64c0-1.04-.2-1.81-.52-2.27-.39-.58-1.23-.84-2.46-.84v-.84h6.86v.84c-1.1.13-1.75.32-2.07.71-.26.32-.39.97-.39,1.81v18.7h-.91l-14.17-17.22-.06,12.69c0,1.16.19,1.94.65,2.39.39.39,1.16.65,2.4.78v.77h-7.19ZM303.2,197.86v.84c-.97.13-1.62.32-1.88.58-.38.39-.64,1.1-.64,2.07v10.16c0,1.1-.13,2.2-.33,3.23-.32,1.3-.84,2.27-1.42,2.91-.72.78-1.75,1.42-2.99,1.81-1.03.32-2.14.52-3.3.52-1.04,0-2.01-.13-2.91-.33-1.42-.33-2.58-.91-3.49-1.68-.84-.72-1.36-1.42-1.62-2.07-.39-.84-.59-2.07-.59-3.69v-10.61c0-1.23-.26-2.01-.64-2.4-.26-.26-.97-.45-2.01-.52v-.84h10.75v.84c-1.17,0-1.94.13-2.27.39-.52.38-.78,1.23-.78,2.52v10.61c0,2.2.39,3.75,1.11,4.72.77.97,1.94,1.49,3.43,1.49,2.46,0,4.07-.9,4.98-2.72.46-.97.71-2.39.71-4.2v-9.71c0-1.1-.19-1.88-.52-2.27-.45-.58-1.3-.84-2.59-.84v-.84h6.99ZM248,219.35v-.77c1.1-.13,1.74-.32,2.07-.52.45-.39.71-1.04.71-2.01v-15.08c-.84-1.04-1.43-1.68-1.81-1.94-.33-.26-.58-.32-.91-.32v-.84h6.73l11,13.59.07-9.64c0-1.04-.13-1.81-.52-2.27-.39-.58-1.23-.84-2.39-.84v-.84h6.8v.84c-1.11.13-1.75.32-2.01.71-.32.32-.45.97-.45,1.81v18.7h-.91l-14.1-17.22-.06,12.69c0,1.16.19,1.94.57,2.39.39.39,1.23.65,2.4.78v.77h-7.18ZM225.22,198.71v-.84h18.31v6.4h-.78c-.33-2.13-1.1-3.55-2.34-4.33-.97-.64-2.65-.97-4.98-.97-.9,0-1.56.06-1.81.26-.33.19-.45.59-.45,1.23v7.38c1.62,0,2.78-.33,3.49-.91.84-.72,1.36-1.94,1.62-3.82h.84v10.74h-.84c-.2-1.94-.65-3.24-1.49-3.88-.77-.71-2-1.04-3.62-1.04v7.71c0,.64.12,1.16.52,1.36.39.26,1.1.39,2.13.39,1.88,0,3.43-.32,4.59-.97,1.56-.91,2.85-2.4,3.75-4.66h.91l-1.29,6.59h-18.58v-.77c1.03-.13,1.75-.26,2.07-.46.44-.26.71-.9.71-1.81v-15.4c0-.91-.26-1.56-.84-1.88-.39-.26-1.03-.32-1.94-.32h0ZM220.82,204.27h-.9c-.39-1.42-.97-2.71-1.88-3.75-1.23-1.42-2.65-2.14-4.33-2.14-.91,0-1.69.26-2.4.77-.64.52-1.04,1.23-1.04,2.21,0,.91.26,1.56.71,2.07.39.46,1.3,1.03,2.59,1.68l4.65,2.33c.84.46,1.56,1.03,2.13,1.81.91,1.23,1.36,2.59,1.36,4.08,0,1.68-.58,3.11-1.75,4.33-1.43,1.55-3.49,2.33-6.15,2.33-.97,0-1.94-.13-2.79-.39-.84-.19-1.74-.46-2.65-.71-.25,0-.45.06-.58.32-.13.2-.26.45-.32.78h-.9v-7.89h.9c.39,1.94,1.04,3.49,1.94,4.66,1.17,1.42,2.71,2.13,4.53,2.13,1.3,0,2.27-.32,2.98-.97.64-.65,1.04-1.55,1.04-2.59,0-.91-.33-1.68-.97-2.33-.45-.39-1.36-.9-2.59-1.55l-2.13-.97c-2.33-1.17-3.95-2.39-4.73-3.82-.46-.84-.71-1.88-.71-3.04,0-2.01.71-3.56,2.13-4.73,1.23-1.04,2.84-1.49,4.85-1.49,1.04,0,2.07.13,3.17.52,1.1.32,1.68.52,1.81.52.38,0,.65-.19.84-.52.06-.13.13-.32.18-.52h.98v6.85h0ZM202.37,210.23v3.69h-10.93v-3.69h10.93ZM167.81,197.86v6.4h-.13l.13-6.4h0ZM167.81,218.58c-.72,0-1.23-.32-1.69-.97-.38-.45-.9-1.62-1.68-3.43l-7.12-16.76h-.84l-1.36,3.36v3.62l3.11,7.44h-3.11v1.3h3.56c.45,1.03.77,1.75.9,2.13.4.97.58,1.68.58,2.07,0,.52-.19.84-.52.97-.39.19-1.03.26-2.08.26v.77h10.23v-.77ZM155.13,200.78v3.62l-.13-.26-2.97,7.7h3.1v1.3h-3.56c-.51,1.17-.84,2.13-1.1,2.78-.19.65-.33,1.1-.33,1.3,0,.51.33.9.91,1.16.39.13.97.2,1.68.2v.77h-6.02v-.9c.65-.13,1.1-.45,1.42-.9.33-.39.71-1.3,1.3-2.66l5.69-14.11h0ZM146.71,198.77v-.91h.46v.84c-.13,0-.26,0-.46.07ZM146.71,197.86v.91c-.39.06-.71.19-.9.32-.33.19-.58.45-.78.84l-6.08,9.84v5.89c0,1.23.19,2.01.58,2.33.33.26,1.1.45,2.33.59v.77h-11v-.77c1.23-.13,2.01-.32,2.26-.52.46-.39.71-1.17.71-2.4v-4.66l-5.83-10.55c-.19-.39-.32-.58-.45-.71-.59-.71-1.3-1.04-2.14-1.04v-.84h10.68v.84c-1.1,0-1.81.07-2.13.19-.32.13-.45.39-.45.84,0,.19.13.51.32.91.19.45.39.71.45.91l3.82,7.37,3.5-5.89c.25-.39.52-.84.71-1.29.38-.77.52-1.29.52-1.68,0-.52-.19-.91-.65-1.1-.52-.19-1.16-.26-2.01-.26v-.84h6.54ZM146.71,218.45c-.13.06-.26.13-.39.13v.77h.39v-.9h0ZM83.17,219.35v-.77c1.09-.13,1.74-.32,2.06-.52.45-.39.71-1.04.71-2.01v-15.08c-.84-1.04-1.42-1.68-1.81-1.94-.33-.26-.59-.32-.91-.32v-.84h6.73l11,13.59.06-9.64c0-1.04-.12-1.81-.51-2.27-.39-.58-1.23-.84-2.4-.84v-.84h6.79v.84c-1.03.13-1.75.32-2.01.71-.32.32-.45.97-.45,1.81v18.7h-.91l-14.1-17.22-.07,12.69c0,1.16.19,1.94.59,2.39.39.39,1.23.65,2.39.78v.77h-7.18ZM80.38,197.86v.84c-.97.13-1.56.32-1.88.58-.39.39-.58,1.1-.58,2.07v10.16c0,1.1-.13,2.2-.39,3.23-.32,1.3-.77,2.27-1.42,2.91-.72.78-1.75,1.42-2.98,1.81-1.03.32-2.14.52-3.24.52-1.03,0-2.07-.13-2.97-.33-1.43-.33-2.59-.91-3.5-1.68-.78-.72-1.35-1.42-1.62-2.07-.39-.84-.58-2.07-.58-3.69v-10.61c0-1.23-.19-2.01-.65-2.4-.25-.26-.9-.45-1.94-.52v-.84h10.75v.84c-1.23,0-2.01.13-2.34.39-.51.38-.77,1.23-.77,2.52v10.61c0,2.2.39,3.75,1.16,4.72.72.97,1.88,1.49,3.44,1.49,2.39,0,4-.9,4.92-2.72.45-.97.71-2.39.71-4.2v-9.71c0-1.1-.13-1.88-.52-2.27-.45-.58-1.3-.84-2.59-.84v-.84h6.99ZM54.24,204.27h-.91c-.39-1.42-.97-2.71-1.88-3.75-1.22-1.42-2.65-2.14-4.33-2.14-.91,0-1.69.26-2.4.77-.64.52-1.03,1.23-1.03,2.21,0,.91.25,1.56.71,2.07.39.46,1.29,1.03,2.59,1.68l4.66,2.33c.84.46,1.55,1.03,2.13,1.81.9,1.23,1.35,2.59,1.35,4.08,0,1.68-.58,3.11-1.74,4.33-1.42,1.55-3.5,2.33-6.15,2.33-.97,0-1.94-.13-2.78-.39-.85-.19-1.75-.46-2.66-.71-.25,0-.45.06-.57.32-.13.2-.26.45-.33.78h-.9v-7.89h.9c.39,1.94,1.04,3.49,1.94,4.66,1.16,1.42,2.72,2.13,4.53,2.13,1.29,0,2.26-.32,2.97-.97.65-.65,1.04-1.55,1.04-2.59,0-.91-.32-1.68-.97-2.33-.45-.39-1.36-.9-2.59-1.55l-2.13-.97c-2.33-1.17-3.95-2.39-4.72-3.82-.45-.84-.71-1.88-.71-3.04,0-2.01.71-3.56,2.13-4.73,1.22-1.04,2.85-1.49,4.85-1.49,1.04,0,2.08.13,3.18.52,1.09.32,1.68.52,1.81.52.39,0,.65-.19.84-.52.06-.13.13-.32.2-.52h.97v6.85Z"/>
  </g>
</svg>