<?xml version="1.0" encoding="UTF-8"?>
<svg id="_图层_1" data-name="图层 1" xmlns="http://www.w3.org/2000/svg" viewBox="0 0 480 480">
  <defs>
    <style>
      .cls-1 {
        fill-rule: evenodd;
      }

      .cls-1, .cls-2 {
        fill: #00561f;
      }
    </style>
  </defs>
  <path class="cls-1" d="M334.56,156.75v-8.75c-4.09-2.1-7.23-3.62-9.21-4.08-.94-.24-3.62-.59-4.55-.59-2.21-.35-2.45.59-2.21,1.75.58,2.57,3.37,3.61,4.2,3.5,2.56-.47,3.38.58,5.25,1.28,1.16.35,4.08,1.04,3.26,1.86-.93.94-1.05.12-1.99.7-.81.59-3.84-1.17-4.9-.24-.58.59.12,2.34-1.05,2.57-.7.12-1.75-.93-2.68-1.51-2.68-1.52-5.49-4.2-8.16-5.36-2.92-1.17-3.15.23-2.81,2.1.12,1.05,0,1.51.93,3.5,1.05,2.1,6.88,3.15,8.98,5.25,1.29,1.17,2.45,1.52,1.87,2.1-1.05,1.75-1.98,3.15-3.85,3.85-1.75.82-8.75-6.53-8.86-4.43.23,1.63,1.51,3.62,1.75,5.36.46,2.56.46,4.66.59,5.36.46,1.63,3.61,2.33,7.23,1.16,1.52-.58,3.39-1.51,5.02-2.44,2.22-1.29,4.55-6.42,5.83-5.72,3.04,1.64,3.15,2.22,5.37,4.9h0v-7.93c-2.33-1.28-4.31-2.45-3.62-3.26.47-.59,1.87-.94,3.62-.94ZM320.67,135.4c.93,0,6.54-7.47,7.93-10.03.35-1.51,1.51-3.15,2.21-3.84,1.17-.93,1.98-.7,2.45.12.58,1.05.46,3.03-.12,5.83-.35,1.87-.93,1.05-1.29,1.63-1.98,2.45-4.19,4.78-5.48,6.54-.82.92.47,2.09,1.17,1.74,2.33-2.79,4.9-6.53,7-9.21v7.82l-.12.12c-1.4,1.52-2.21.82-2.92,2.57.12.46,1.75.81,3.03.81v6.19c-.7-.47-1.52-.82-2.1-1.17-.46-.24-1.28-.7-2.21-.82-.7-.11-1.64.35-2.34,0-1.04-.58-1.87-1.17-2.44-1.52-.7-.46-1.18-.58-2.11-1.05-.93-.47-2.79-1.52-4.66-1.4-1.75.12-3.85,2.68-5.25,3.26-1.29.59-2.45,1.17-3.5,1.64-1.28.58-2.33,1.05-3.61.47-1.87-.82-1.4-4.2-.35-5.14,1.64-1.28,3.03-2.33,4.31-3.73.82-.94,1.28-2.22,1.98-2.92.7-.7,1.51-.7,2.22-.81.82-.24,1.75-.47,2.34.23.58.58.58,1.4,1.17,1.99.81.81,1.51.81,2.68.7h0ZM334.56,160.95c.7.47,1.52.93,2.33,1.4.59.35,1.05.47,1.64.7v7.58c-1.4.23-3.15-.71-3.97-1.75v-7.93ZM338.52,157.45v-7.23c-1.17-.7-2.21-1.28-3.26-1.87l-.7-.34v8.75c1.05,0,2.33.12,3.26.58.23,0,.47.12.7.12h0ZM334.56,128.17c.82-1.17,1.63-2.22,2.33-2.91.59-.7,1.17-1.63,1.64-2.34v8.29c-.23.23-.35.46-.59.7.12.12.24.23.59.35v10.62c-.59.12-.47,0-.93.35-.12.23.46.82.93.93v3.97l-.23-.11c-1.29-.82-2.57-1.64-3.73-2.33v-6.19c.58,0,1.17-.11,1.4-.46,1.52-1.52,2.22-2.46.48-3.15-.12.11-.94-.7-1.87.11v-7.82h0ZM342.84,151.04v-5.6c-.23-.24-.46-.7-.46-.82.24-.24.35-.35.46-.35v-6.88c-.46,0-1.05-.11-1.17-.23.35-.7.46-.7,1.17-1.05h0v-5.48c-.12.23-.35.59-.7.81-.81.82-2.68,1.06-3.61.82v10.62l.12-.12c.59-.12.47.47.59.47.35.58.23.7-.59.93h-.12v3.97c1.63,1.05,3.15,2.1,4.31,2.92ZM338.52,163.05c.7.23,1.28.35,1.4.82.7,2.33.81,2.67-.12,5.48-.23.82-.7,1.17-1.28,1.29v-7.58h0ZM342.84,156.87c-.35-.24-.81-.35-1.4-.47-.93.12-1.64,1.29-2.92,1.05v-7.23c1.63,1.05,3.26,2.1,4.31,2.8v3.85h0ZM338.52,122.92c.46-.93.93-1.63,1.51-1.63,1.05,0,2.21,1.28,2.8,2.22v4.2c-.12-.11-.35-.24-.59-.24-.35,0-.46.35-.58.46-1.17,1.17-2.22,2.1-3.15,3.27v-8.29h0ZM342.84,123.51c.12.12.24.23.24.35.34.82,1.17-.23,1.75,0,1.17.35,2.22,1.28,2.33,2.1.24.93.59,1.98,1.17,2.45v11.54c-.24-.12-.35-.23-.48-.35-.7-.35-.92.47-1.16.94-.12.35.24.93.82,1.16.34.35.58.58.82.82v7.23c-.12.12-.12.36,0,.47v10.62c-1.64-1.16-3.26-2.91-5.49-3.96v-3.85c.35.11.58.35.81.46.71.47,1.64,0,1.41-.7,0-.24-.93-.82-2.22-1.75v-5.6c.24.11.35.23.58.23.36-.12.94,0,.94-.58-.12-.35-.12-.58-.71-.82-.34-.23-.57-.23-.81,0v-6.88c.35,0,.47-.11.58-.23.71-.59.94-.81.23-1.17-.11.12-.23-.11-.81.12v-5.48c.81-1.17.94-2.21,0-2.92v-4.2ZM348.32,150.22h.12c3.73,1.75,4.55,2.68,5.13,5.6.46,2.44,1.28,4.19-.7,5.6-1.75.7-3.16.23-4.55-.59v-10.62ZM348.32,128.41c.35.35.82.46,1.39.35,1.99-.23,3.16-4.32,5.49-2.92,1.29,1.05,1.29,3.26,1.4,4.55,0,1.63-1.05,2.45-5.13,3.15-.23.12-.35,0-1.05.7-.59.93,1.05,1.87-.59,3.27-.82.7,2.56,3.38,2.8,3.84.24.59,1.05.12.93-.81-.12-.24-.24-1.17-.59-1.99-.46-1.4-1.17-2.91-.82-3.5.35-.82,1.75,0,3.27,1.05,1.16.82,3.38.82,4.08,1.87.82,1.05,1.52,1.51.47,5.72-.24.7-1.52,1.16-2.69,1.52-1.86.7-2.91,1.76-4.78,2.46-1.05.46-3.62,1.39-4.2,2.09v-7.23c.35.23.7.35,1.05.35.34-.12.82-.7.7-1.05-.47-.7-1.17-1.4-1.75-1.87v-11.54h0Z"/>
  <path class="cls-1" d="M265.5,94.7c2.57.81,4.32.93,4.44.46.7-2.1,1.64-5.83,1.75-8.87.13-1.52,1.4-2.1,2.34-2.33,2.22-.69,2.92-1.05,3.96-.69,1.87.81,2.92,2.44,3.85,4.55.35,1.05,1.29-.12-.81,4.43-.93,2.21-.7,2.56-.35,3.03.93.7,2.1.58,3.96.58,2.23-.12,3.62-3.04,6.43,2.8.46.7.57,1.63-.36,2.45-1.17.93-3.37,1.04-6.07,1.75-3.5.81-8.51-.12-8.4,2.21.7,5.83,4.44,14.7,10.5,21.82,1.51,1.87,3.61,3.61,6.07,5.02,3.5,1.98,6.41,3.61,4.32,4.08-3.27.7-14.35-.34-16.92-2.68-2.68-2.56-8.16-19.59-8.98-22.98-.12-.11-.35-.24-.59.12-2.67,3.38-8.28,9.56-12.71,11.55-1.98.82-4.2-.46-4.78-1.28-.7-.81-5.83-3.38-6.3-5.37-.12-1.16.59-1.05,1.17-.93,7.23,1.52,8.75-.35,10.73-1.17,5.25-2.22,7.47-7.93,7-8.29-6.77-1.17-9.21-.93-10.61-3.84-1.98-9.22,1.64-9.68,5.36-8.29,1.87.82,4.32,1.75,5.02,1.87Z"/>
  <path class="cls-1" d="M185.72,113.36c.93-.12,1.75,0,2.91.93,3.15,2.1,4.08,6.18,5.6,8.28.58,0,1.63-.7,2.91-1.51,1.64-1.17,3.5-2.34,3.15-2.81-1.29-2.45-8.17-18.67-9.57-20.77-.11-.23-.58-.81-.7-1.05-2.57-3.38.46-6.06,1.63-6.41,1.86-.59,7.12,1.17,7.23,3.03-.23,1.99,1.75,6.65,3.62,11.08,1.75,3.73,3.27,7.47,4.09,8.75.46,1.16,4.55-2.33,5.83-3.73,1.75-1.17-1.4-7.23-.24-9.1.46-.93,5.48-2.21,7.93,1.4,1.17,2.1,1.75,5.13,2.33,7.93.46,1.99,1.17,4.44,1.51,5.25.36.93-1.62,6.18-2.44,7.58-1.64,1.28-4.32-2.91-5.37-5.25-.59-1.28-.7-1.75-1.17-1.87-1.17.35-3.85,2.22-5.13,3.85-.7.82-.46,2.34-1.52,3.15-4.9,1.98-9.45,5.13-9.79,6.18-.24.58-1.75,3.61-1.87,4.32-.12.7-2.1.93-2.56,1.28-1.05,1.05-2.68-.82-4.9-2.1-2.33-1.17-1.75-2.69-1.87-5.13,0-2.68-1.52-6.88-2.91-9.57-.7-1.4-1.52-3.03,1.28-3.73Z"/>
  <path class="cls-1" d="M129.5,144.62c.94-.47,1.05-1.4,1.29-2.8,1.04-3.73,1.16-5.13,2.33-7.58-1.87-1.75-3.97-3.38-5.72-5.13-.35-.35-.81-.58-1.17-.7-1.17-.35-1.87-1.63-1.87-3.15v-.48c0-1.15.35-2.45,1.17-3.72.46-.7,4.9-2.34,6.18-1.06,1.87,1.87,3.85,4.32,5.84,5.71.11-.11.35-.35.58-.46v15.51c-.23-.23-.47-.35-.58-.46-.7,0-.59.93-.59,1.28-.46,1.75-1.4,3.03-2.57,3.73-.7.23,1.99,2.34,3.73,3.15v12.95c-.35-.12-.7-.24-1.17-.35-1.75-.12-3.26-.12-4.66-1.52-.81-1.75-1.28-2.57-1.63-3.73-.23-.47-.58-.93-1.05-1.51-1.4-1.52-2.45-2.92-3.26-4.9-.36-1.17.35-4.43,3.15-4.78ZM138.13,125.26c.93-.82,2.1-1.98,3.27-3.27,1.05-1.51,1.63-4.2,2.68-5.48.24-.24.47-.35.7-.46v9.79c-1.52.58-2.8,2.92-3.15,3.97.12.7,1.75,2.69,3.15,3.97v27.53c-.7.7-1.63,1.28-2.57,1.4-1.05.11-2.21-.82-4.08-1.28v-12.95c.58.35,1.17.47,1.4.23,1.75-1.4,1.98-1.74,2.45-3.61.23-.7-2.45-3.27-3.85-4.32v-15.51ZM144.78,116.04c2.1-1.28,6.07-1.17,7.93-.35,1.75.93,1.99,2.92,1.52,4.31l-.47,1.06c-.46,1.39.12,5.13.58,5.47.58.7,1.05,1.17,2.22.93.93.12,2.57,3.62,1.86,5.25-.23.58-.34,1.17-1.16,2.1-1.98,1.87-3.15,4.9-3.73,7.93,6.06,6.07,11.32,12.01,17.14,18.2,2.8,3.5,4.67,7.46,3.27,9.21-1.17,1.05-4.9-.24-8.99-4.08l-16.91-15.86c-.82,1.28-1.63,3.38-2.68,5.83v2.1c.12.7.46,1.52.24,2.1-.24.35-.47.7-.82,1.04v-27.53c.82.82,1.63,1.4,1.86,1.28,1.4-1.05,1.52-3.84,1.17-4.9-.35-1.51-1.05-3.73-2.68-4.44-.12.12-.24.12-.35.12v-9.79Z"/>
  <path class="cls-1" d="M240,40c-110.46,0-200,89.54-200,199.99s89.54,200.01,200,200.01,200-89.55,200-200.01S350.45,40,240,40ZM240,426.8c-103.17,0-186.8-83.63-186.8-186.8S136.83,53.2,240,53.2s186.8,83.63,186.8,186.8-83.64,186.8-186.8,186.8ZM240,58.63c-100.17,0-181.37,81.2-181.37,181.37s81.21,181.38,181.37,181.38,181.37-81.2,181.37-181.38S340.16,58.63,240,58.63ZM240,417.57c-98.07,0-177.57-79.5-177.57-177.57S141.93,62.43,240,62.43s177.57,79.5,177.57,177.57-79.5,177.57-177.57,177.57Z"/>
  <g>
    <path class="cls-2" d="M118.73,210.73l-9.92-2.57.25-.89c2.59.28,4.87-.19,6.84-1.41,1.97-1.22,3.23-2.79,3.78-4.7.43-1.49.36-2.77-.18-3.86-.55-1.09-1.33-1.78-2.36-2.08-.65-.19-1.28-.2-1.87-.04-.8.23-1.67.71-2.61,1.45-.67.55-1.97,1.88-3.9,4-2.69,2.98-4.96,4.85-6.81,5.62-1.85.76-3.75.86-5.7.31-2.47-.71-4.32-2.28-5.55-4.71-1.23-2.43-1.42-5.13-.57-8.1.26-.93.61-1.78,1.03-2.55.42-.78,1.08-1.72,1.96-2.82.49-.61.8-1.14.93-1.6.11-.38.07-.82-.09-1.32-.17-.51-.52-.97-1.04-1.4l.23-.81,11.16,3.18-.23.81c-3.32-.26-6.07.29-8.24,1.65-2.17,1.35-3.55,3.08-4.15,5.19-.46,1.63-.39,3.05.22,4.27.61,1.22,1.51,2,2.69,2.33.7.2,1.42.21,2.18.02.76-.18,1.54-.57,2.35-1.15.8-.59,1.95-1.71,3.44-3.35,2.09-2.31,3.77-3.92,5.03-4.83,1.27-.91,2.56-1.52,3.89-1.83,1.33-.3,2.68-.26,4.07.13,2.36.67,4.11,2.11,5.28,4.31,1.17,2.2,1.37,4.62.62,7.25-.27.96-.66,1.86-1.15,2.69-.37.63-.93,1.37-1.68,2.22-.75.85-1.19,1.46-1.3,1.86-.11.38-.08.71.09.99.17.28.67.65,1.51,1.09l-.19.65Z"/>
    <path class="cls-2" d="M117.31,211.44l-2.14,15.72-.83-.12.11-.79c.16-1.18.15-2.01-.04-2.49-.19-.48-.49-.83-.9-1.08-.41-.25-1.48-.49-3.22-.72l-14.91-2.03c-2.73-.37-4.56-.42-5.5-.12-.94.29-1.76.87-2.47,1.74-.71.86-1.17,2.01-1.36,3.45-.23,1.65-.05,3.1.53,4.36.59,1.27,1.49,2.27,2.72,3.03,1.22.75,3.45,1.35,6.68,1.79l12.42,1.7c1.36.19,2.36.17,2.98-.03.62-.2,1.07-.51,1.36-.92.44-.62.74-1.55.91-2.78l.83.11-1.43,10.54-.83-.11.09-.63c.12-.86.04-1.59-.22-2.2-.27-.62-.73-1.1-1.38-1.45-.45-.26-1.3-.48-2.54-.64l-11.57-1.58c-3.58-.49-6.13-1.08-7.65-1.76-1.52-.69-2.83-2.04-3.91-4.05-1.09-2-1.41-4.59-.98-7.75.36-2.64.99-4.62,1.89-5.97,1.23-1.83,2.64-3.05,4.25-3.65,1.61-.61,3.68-.74,6.21-.39l14.92,2.03c1.75.24,2.85.29,3.31.16.45-.14.84-.43,1.16-.87.32-.45.56-1.31.72-2.6l.83.12Z"/>
    <path class="cls-2" d="M113.71,248.6l-18.28,16.11,13.2-.67c1.84-.09,3.07-.42,3.7-.98.84-.77,1.2-2.01,1.09-3.71l.83-.04.52,10.14-.84.04c-.23-1.29-.49-2.15-.78-2.58-.29-.43-.73-.76-1.34-.98-.61-.22-1.64-.29-3.09-.22l-25.57,1.3-.04-.77,24.51-22.06-19.52.99c-1.76.09-2.94.56-3.52,1.39-.58.84-.84,1.78-.79,2.82l.04.72-.83.04-.55-10.89.84-.04c.1,1.69.51,2.85,1.22,3.48.71.63,1.88.9,3.52.82l21.67-1.1.78-.7c.78-.69,1.29-1.3,1.52-1.81.23-.51.34-1.24.32-2.17l.84-.04.56,10.89Z"/>
    <path class="cls-2" d="M128.08,306.89l-.78.31c-.5-.9-1.06-1.51-1.68-1.84-.87-.47-2.92-.94-6.15-1.41l-12.81-2.08-6.91,2.75c-1.48.58-2.37,1.02-2.66,1.32-.3.3-.49.73-.59,1.29-.09.57.01,1.23.31,1.99l.64,1.6-.78.31-6.37-16.04.78-.31.59,1.5c.33.84.75,1.45,1.24,1.82.34.29.79.44,1.35.46.4.02,1.31-.25,2.75-.82l5.73-2.28,9.57-11.58c1.88-2.3,2.93-3.8,3.14-4.52.21-.72.14-1.54-.2-2.46l.78-.31,5.44,13.7-.78.31-.24-.61c-.33-.83-.68-1.36-1.05-1.6-.37-.24-.69-.3-.95-.19-.51.2-1.55,1.27-3.14,3.2l-7.42,8.92,10.66,1.72c2.61.44,4.26.52,4.95.25.38-.15.63-.46.73-.92.16-.62.02-1.58-.41-2.88l.78-.31,3.46,8.73Z"/>
    <path class="cls-2" d="M115.22,325.65l-5.9-9.12-3.21.54c-1.07.19-1.87.46-2.42.81-.73.47-1.07,1.11-1.04,1.91.02.47.41,1.41,1.18,2.83l-.7.46-5.56-8.58.7-.46c.74.84,1.62,1.35,2.63,1.54,1.02.19,2.79.09,5.32-.31l26.58-4.09.23.36-15.15,23.01c-1.43,2.19-2.22,3.73-2.37,4.64-.11.68.05,1.44.5,2.27l-.7.46-8.08-12.49.71-.46.33.51c.65,1.01,1.25,1.62,1.79,1.85.38.14.76.1,1.14-.15.23-.15.44-.34.64-.57.09-.1.45-.6,1.06-1.5l2.33-3.45ZM116.2,324.09l6.4-9.6-11.45,1.79,5.05,7.81Z"/>
    <path class="cls-2" d="M155.52,338.95l-6.03,5.73-.56-.59c1.06-1.67,1.69-3.01,1.89-4.02.2-1,.13-2.05-.21-3.14-.2-.6-.79-1.43-1.78-2.46l-1.58-1.66-17.18,16.33c-1.14,1.09-1.79,1.82-1.96,2.22-.17.4-.18.88-.05,1.45.13.57.51,1.17,1.11,1.81l.71.74-.61.57-11.09-11.66.61-.58.7.74c.61.65,1.22,1.05,1.83,1.23.42.14.9.12,1.43-.08.38-.13,1.12-.72,2.24-1.78l17.18-16.33-1.53-1.61c-1.42-1.5-2.78-2.29-4.07-2.36-1.79-.11-3.63.49-5.51,1.8l-.59-.62,6.03-5.73,19.02,20.01Z"/>
    <path class="cls-2" d="M153.25,360.24l-8.79-6.82,2.42-3.12,8.79,6.83-2.42,3.12Z"/>
    <path class="cls-2" d="M181.05,354.67l-5.11,8.89-.79-.49c.96-2.43,1.11-4.75.46-6.98-.65-2.23-1.83-3.86-3.54-4.9-1.32-.8-2.57-1.09-3.77-.85-1.2.24-2.07.82-2.63,1.73-.36.59-.53,1.18-.53,1.8,0,.83.24,1.8.7,2.9.35.79,1.29,2.41,2.83,4.82,2.15,3.38,3.36,6.07,3.62,8.06.24,1.99-.16,3.85-1.22,5.58-1.34,2.19-3.34,3.56-6.01,4.1-2.67.54-5.33.01-7.96-1.59-.83-.5-1.56-1.06-2.19-1.68-.64-.62-1.37-1.49-2.19-2.64-.46-.64-.89-1.07-1.3-1.32-.34-.2-.77-.29-1.3-.26-.53.03-1.08.24-1.63.62l-.72-.43,6.03-9.92.72.44c-1.13,3.13-1.33,5.93-.6,8.38.73,2.45,2.03,4.24,3.91,5.38,1.44.88,2.84,1.18,4.18.92,1.34-.27,2.32-.92,2.96-1.97.38-.62.58-1.32.6-2.1.02-.79-.14-1.64-.49-2.57-.35-.93-1.13-2.33-2.33-4.21-1.67-2.63-2.78-4.67-3.32-6.14-.55-1.46-.79-2.87-.73-4.24.06-1.36.46-2.65,1.21-3.88,1.27-2.09,3.12-3.41,5.56-3.94,2.43-.54,4.82-.1,7.15,1.33.85.52,1.62,1.12,2.29,1.82.52.53,1.08,1.26,1.7,2.21.62.95,1.1,1.53,1.45,1.74.34.2.66.26.98.17.32-.09.8-.48,1.45-1.16l.58.35Z"/>
    <path class="cls-2" d="M190.66,361.67l-4.63,11.62.57.22c1.81.72,3.35.68,4.62-.13,1.27-.82,2.45-2.28,3.56-4.41l.8.32-5.96,14.95-.8-.32c.48-1.7.66-3.17.52-4.42-.13-1.25-.48-2.2-1.04-2.84-.57-.64-1.54-1.23-2.9-1.78l-3.21,8.04c-.62,1.57-.94,2.56-.95,2.96,0,.41.13.79.4,1.16.27.37.82.72,1.63,1.04l1.71.68c2.67,1.06,5.05,1.29,7.15.7,2.1-.6,4-2.02,5.71-4.26l.78.31-4.9,8.56-24.67-9.83.31-.78.95.38c.82.33,1.55.45,2.17.36.44-.05.86-.28,1.25-.68.29-.27.72-1.13,1.29-2.56l7.48-18.78c.52-1.29.8-2.09.85-2.42.06-.55-.05-1.03-.33-1.45-.38-.6-1.03-1.09-1.95-1.46l-.95-.38.31-.78,23.9,9.52-3.36,8.44-.8-.32c.42-2.23.43-3.93.06-5.13-.38-1.19-1.16-2.26-2.34-3.23-.69-.57-2.11-1.28-4.27-2.14l-2.95-1.17Z"/>
    <path class="cls-2" d="M214.73,367.62l11.51,21.47,2.36-13c.33-1.82.29-3.09-.11-3.82-.56-.99-1.68-1.63-3.36-1.9l.15-.83,9.99,1.82-.16.82c-1.3-.07-2.2-.01-2.69.17-.49.18-.91.54-1.26,1.08-.35.54-.66,1.53-.91,2.95l-4.59,25.17-.76-.14-15.87-28.89-3.5,19.22c-.32,1.74-.13,2.99.55,3.74.68.75,1.54,1.22,2.57,1.41l.71.13-.15.83-10.73-1.96.15-.82c1.67.29,2.89.16,3.67-.39.77-.55,1.31-1.63,1.6-3.23l3.88-21.34-.5-.92c-.49-.92-.96-1.55-1.41-1.89-.45-.34-1.12-.61-2.04-.81l.15-.83,10.73,1.95Z"/>
    <path class="cls-2" d="M244.15,371.37l15.7-2.31.13.83-.79.11c-1.18.18-1.97.42-2.38.73-.41.31-.67.7-.8,1.16-.12.46-.06,1.56.2,3.29l2.19,14.89c.4,2.72.87,4.49,1.41,5.31.54.82,1.33,1.46,2.35,1.9,1.02.45,2.26.56,3.69.35,1.64-.24,2.99-.82,4.04-1.73,1.06-.91,1.77-2.06,2.15-3.44.38-1.39.34-3.69-.14-6.92l-1.82-12.4c-.2-1.36-.49-2.31-.86-2.85-.37-.54-.78-.89-1.25-1.05-.72-.25-1.7-.28-2.92-.1l-.12-.83,10.51-1.55.13.83-.63.09c-.85.12-1.54.4-2.05.83-.52.43-.86,1-1.01,1.73-.13.51-.09,1.38.09,2.62l1.7,11.55c.53,3.57.67,6.19.44,7.84-.24,1.65-1.17,3.28-2.8,4.88-1.63,1.6-4.02,2.63-7.18,3.1-2.63.38-4.72.33-6.25-.16-2.1-.67-3.66-1.69-4.69-3.07-1.03-1.38-1.73-3.33-2.1-5.86l-2.19-14.89c-.26-1.75-.51-2.82-.77-3.22-.26-.4-.65-.69-1.16-.87-.52-.18-1.42-.17-2.7.03l-.12-.83Z"/>
    <path class="cls-2" d="M282.91,363.71l20.78,12.73-4.52-12.42c-.63-1.74-1.31-2.82-2.03-3.25-.98-.58-2.27-.56-3.87.05l-.29-.79,9.55-3.48.29.79c-1.16.6-1.91,1.11-2.24,1.51-.33.4-.51.93-.54,1.57-.03.65.2,1.65.7,3.02l8.76,24.05-.72.27-28.3-16.94,6.69,18.36c.6,1.66,1.4,2.65,2.36,2.95.97.3,1.95.28,2.93-.08l.69-.25.29.78-10.25,3.73-.29-.79c1.58-.59,2.57-1.32,2.97-2.19.39-.87.31-2.07-.25-3.6l-7.43-20.39-.89-.54c-.89-.55-1.62-.85-2.17-.93-.56-.07-1.28.04-2.17.34l-.29-.79,10.25-3.73Z"/>
    <path class="cls-2" d="M330.84,374.15l.41.73-13.96,7.96-.42-.73.89-.51c.77-.44,1.32-.94,1.63-1.48.24-.38.33-.84.25-1.39-.03-.4-.43-1.26-1.2-2.61l-10.01-17.57c-.78-1.36-1.34-2.18-1.67-2.44-.34-.26-.8-.39-1.39-.4-.58,0-1.25.21-2,.63l-.89.51-.41-.73,13.96-7.96.42.73-.88.51c-.78.44-1.33.93-1.64,1.48-.24.38-.33.85-.27,1.4.03.4.43,1.27,1.19,2.61l10.01,17.57c.79,1.37,1.35,2.18,1.69,2.43.34.26.81.39,1.4.39s1.25-.2,2-.63l.89-.51Z"/>
    <path class="cls-2" d="M340.06,329.02l.54.65c-.75.86-1.13,1.95-1.16,3.29,0,.99.4,2.96,1.22,5.91l6.86,24.83-.58.48-23.72-12.07c-2.86-1.46-4.61-2.25-5.28-2.36-.66-.12-1.49.15-2.5.8l-.54-.64,11.34-9.41.54.65-.39.31c-1.02.85-1.61,1.56-1.77,2.12-.13.4-.04.77.23,1.11.18.2.43.41.76.62.33.21,1.28.72,2.84,1.51l14.82,7.59-4.03-14.36c-.49-1.73-.86-2.86-1.08-3.4-.23-.54-.47-.95-.72-1.26-.29-.35-.64-.58-1.05-.7-.4-.11-.85-.09-1.32.07-.67.22-1.41.67-2.24,1.36l-.53-.65,7.76-6.44Z"/>
    <path class="cls-2" d="M346.11,322.93l10.05,7.45.37-.49c1.15-1.57,1.51-3.07,1.04-4.5-.46-1.43-1.57-2.96-3.35-4.57l.51-.69,12.93,9.59-.51.69c-1.51-.9-2.89-1.45-4.14-1.64-1.24-.2-2.25-.1-3.02.29-.77.39-1.6,1.17-2.47,2.35l6.96,5.16c1.36,1.01,2.23,1.57,2.62,1.68.39.11.8.08,1.23-.09.43-.17.9-.61,1.43-1.32l1.09-1.47c1.71-2.31,2.55-4.55,2.51-6.73-.04-2.18-.92-4.38-2.66-6.61l.5-.67,7.02,6.93-15.82,21.34-.67-.5.61-.82c.53-.72.83-1.39.9-2.02.06-.44-.05-.9-.33-1.38-.2-.35-.91-.98-2.15-1.9l-16.24-12.04c-1.12-.83-1.82-1.31-2.12-1.44-.52-.19-1.01-.21-1.49-.06-.68.21-1.32.71-1.92,1.52l-.6.82-.67-.5,15.32-20.66,7.3,5.41-.51.69c-2.04-.97-3.7-1.43-4.94-1.36-1.25.06-2.49.54-3.71,1.44-.72.51-1.78,1.71-3.17,3.58l-1.89,2.55Z"/>
    <path class="cls-2" d="M373.69,305.84l8,3.18c1.55.62,2.55.91,3.03.88.48-.03.93-.24,1.36-.62.43-.38.9-1.23,1.42-2.53l.78.31-5.81,14.62-.78-.31c.53-1.32.76-2.27.7-2.83-.05-.57-.24-1.02-.56-1.37-.32-.35-1.25-.83-2.8-1.44l-18.54-7.37c-1.54-.61-2.55-.91-3.03-.87-.48.03-.93.23-1.36.62-.43.38-.91,1.22-1.43,2.53l-.77-.31,5.27-13.27c1.38-3.45,2.62-5.89,3.73-7.29,1.11-1.41,2.51-2.37,4.2-2.87,1.68-.5,3.4-.41,5.13.28,2.1.84,3.54,2.29,4.31,4.35.49,1.31.6,2.93.35,4.84l12.4-3.02c1.61-.4,2.64-.73,3.1-.99.67-.4,1.17-.97,1.51-1.71l.78.31-3.58,8.99-16.67,4.03-.75,1.87ZM359.68,300.27l12.51,4.97.47-1.2c.77-1.95,1.18-3.49,1.21-4.59.03-1.11-.32-2.13-1.03-3.06-.71-.93-1.82-1.69-3.33-2.29-2.17-.86-3.99-1-5.43-.39-1.44.6-2.62,2.04-3.51,4.3l-.9,2.25Z"/>
    <path class="cls-2" d="M366.9,263.63l10.15,1.44-.15.92c-2.61,0-4.82.73-6.65,2.17-1.83,1.44-2.91,3.14-3.23,5.1-.25,1.52-.05,2.79.62,3.82.67,1.02,1.53,1.62,2.59,1.8.67.11,1.29.06,1.87-.17.77-.32,1.58-.9,2.43-1.74.61-.62,1.75-2.09,3.42-4.41,2.34-3.26,4.38-5.38,6.14-6.36,1.76-.97,3.63-1.28,5.62-.95,2.54.43,4.55,1.78,6.05,4.05,1.5,2.28,2,4.94,1.49,7.98-.16.95-.41,1.84-.74,2.65-.34.82-.88,1.83-1.63,3.02-.42.67-.67,1.23-.74,1.69-.07.39.02.83.24,1.31.22.48.62.91,1.19,1.28l-.14.83-11.45-1.91.14-.83c3.33-.12,5.99-.97,8-2.56,2-1.59,3.19-3.46,3.55-5.63.28-1.67.04-3.07-.7-4.21-.75-1.14-1.72-1.82-2.93-2.02-.72-.12-1.44-.04-2.18.22-.73.27-1.46.74-2.19,1.42-.74.67-1.75,1.91-3.05,3.72-1.82,2.53-3.3,4.32-4.46,5.37-1.15,1.05-2.37,1.8-3.66,2.25-1.28.46-2.64.56-4.05.33-2.41-.4-4.33-1.64-5.73-3.69-1.4-2.06-1.88-4.43-1.44-7.13.17-.99.45-1.92.84-2.81.3-.67.77-1.47,1.43-2.39.65-.93,1.01-1.59,1.08-1.99.06-.39,0-.71-.2-.98-.2-.26-.74-.57-1.62-.91l.11-.67Z"/>
    <path class="cls-2" d="M399.47,245.72h.84s-.23,16.09-.23,16.09h-.84s.01-1.03.01-1.03c.02-.89-.13-1.61-.44-2.16-.2-.4-.56-.71-1.07-.92-.36-.17-1.31-.27-2.86-.29l-20.22-.29c-1.57-.02-2.55.05-2.95.21-.4.16-.75.49-1.04.99-.31.5-.46,1.18-.48,2.04l-.02,1.02h-.84s.23-16.09.23-16.09h.84s-.02,1.03-.02,1.03c-.01.89.14,1.61.45,2.16.2.39.56.71,1.08.95.36.17,1.31.27,2.85.29l20.22.29c1.57.02,2.56-.05,2.95-.22.4-.17.75-.5,1.05-1.01.3-.5.46-1.19.47-2.05l.02-1.02Z"/>
    <path class="cls-2" d="M367.95,217.04l8.25-1.07.11.81c-1.85.73-3.14,1.44-3.9,2.13-.75.69-1.31,1.58-1.67,2.66-.19.61-.2,1.62-.01,3.04l.29,2.27,23.52-3.07c1.56-.21,2.52-.42,2.89-.64.36-.22.66-.6.89-1.14.23-.54.29-1.25.17-2.12l-.14-1.01.83-.11,2.08,15.96-.83.11-.14-1.01c-.11-.88-.36-1.57-.75-2.07-.27-.36-.66-.62-1.2-.78-.38-.12-1.33-.07-2.86.12l-23.51,3.07.28,2.2c.27,2.06.9,3.49,1.89,4.31,1.39,1.15,3.22,1.74,5.51,1.79l.11.86-8.24,1.07-3.57-27.38Z"/>
    <path class="cls-2" d="M358.71,184.87l.8-.24c.42.93.92,1.6,1.51,1.99.82.55,2.82,1.2,5.98,1.98l12.56,3.27,7.13-2.09c1.52-.44,2.45-.8,2.77-1.07.33-.27.56-.68.71-1.24.14-.56.11-1.22-.12-2l-.49-1.66.8-.24,4.84,16.56-.8.23-.45-1.54c-.26-.87-.61-1.52-1.06-1.93-.32-.32-.75-.51-1.3-.59-.4-.06-1.34.13-2.81.56l-5.92,1.73-10.61,10.64c-2.09,2.11-3.28,3.51-3.56,4.2-.28.69-.28,1.52-.02,2.46l-.8.24-4.14-14.14.81-.24.18.63c.25.86.55,1.42.9,1.69.35.27.66.37.93.28.52-.15,1.67-1.12,3.43-2.89l8.2-8.19-10.44-2.71c-2.56-.69-4.2-.92-4.92-.72-.39.11-.66.4-.81.85-.22.6-.17,1.57.14,2.91l-.8.24-2.63-9Z"/>
  </g>
  <path class="cls-2" d="M240,235.86c-.76,0-1.37.61-1.37,1.37v10.97c0,.76.61,1.37,1.37,1.37s1.38-.61,1.38-1.37v-10.97c0-.76-.62-1.37-1.38-1.37ZM284.48,187.08c-5.76-19.11-23.49-33.04-44.47-33.04s-38.72,13.93-44.48,33.04c-31.5,1.8-56.5,27.91-56.5,59.87s24.99,58.06,56.5,59.86c5.76,19.12,23.49,33.04,44.48,33.04s38.72-13.93,44.47-33.04c31.5-1.8,56.5-27.91,56.5-59.86s-25-58.07-56.5-59.87ZM332.57,250.2c-.04.64-.08,1.27-.14,1.89-.03.3-.07.59-.1.88-.07.55-.13,1.09-.21,1.63-.04.32-.1.64-.16.96-.09.51-.17,1.01-.27,1.51-.07.34-.14.67-.22,1-.11.48-.22.96-.33,1.44-.09.34-.18.67-.27,1.01-.12.46-.25.92-.39,1.38-.1.34-.21.67-.33,1.01-.14.45-.29.9-.45,1.33-.12.34-.24.67-.37,1-.16.43-.33.86-.51,1.29-.13.33-.27.66-.41.98-.19.42-.37.84-.57,1.25-.16.33-.3.65-.46.97-.2.41-.41.82-.62,1.22-.17.32-.33.63-.5.94-.22.4-.45.8-.69,1.19-.18.3-.35.61-.54.9-.24.4-.5.79-.75,1.17-.19.29-.37.58-.56.86-.27.39-.55.78-.83,1.16-.19.27-.38.54-.58.81-.3.4-.61.78-.92,1.18-.19.24-.38.48-.57.72-.37.45-.76.9-1.16,1.33-.14.16-.28.33-.42.49-.54.59-1.08,1.16-1.65,1.72-.22.22-.44.42-.66.63-.35.35-.71.7-1.07,1.03-.27.24-.54.48-.81.71-.33.29-.66.58-1.01.87-.29.24-.59.48-.89.71-.33.26-.65.53-.99.78-.32.24-.64.47-.96.7-.33.24-.66.48-1,.71-.33.23-.67.45-1,.66-.34.22-.67.44-1.02.65-.35.21-.7.42-1.05.63-.34.2-.69.4-1.03.59-.36.2-.72.4-1.09.59-.35.18-.7.36-1.06.54-.37.19-.75.37-1.13.55-.35.17-.71.33-1.07.48-.38.17-.77.34-1.16.5-.36.15-.73.29-1.09.43-.39.15-.8.3-1.2.45-.37.13-.74.25-1.1.37-.41.14-.82.28-1.24.4-.37.11-.74.22-1.11.31-.42.12-.85.24-1.28.35-.37.09-.74.17-1.12.26-.44.1-.87.2-1.31.29-.37.07-.74.13-1.1.2-.46.08-.91.17-1.37.23-.35.05-.7.09-1.05.13-2.18.28-4.39.44-6.64.44-1.07,0-2.14-.04-3.19-.11-.38,2.83-1.07,5.56-2.03,8.16h0c-.18.47-.36.93-.55,1.39-.1.25-.21.49-.32.73-.12.26-.23.53-.35.79-.12.25-.24.5-.36.75-.13.25-.26.5-.39.75-.13.24-.25.48-.38.72-.17.29-.34.59-.5.87-.2.34-.41.67-.62,1.01-.17.27-.34.54-.52.81-.14.22-.29.44-.45.66-.17.23-.33.47-.5.7-.16.22-.31.43-.48.64-.18.25-.38.48-.56.73-.15.19-.3.38-.45.56-.33.39-.65.77-.99,1.15-.16.17-.32.34-.48.51-.22.24-.44.47-.66.7-.17.18-.35.35-.52.53-.23.22-.46.44-.69.66-.17.16-.34.32-.52.48-.32.29-.65.57-.98.85-.17.14-.34.28-.51.43-.32.26-.65.52-.98.77-.18.13-.35.26-.53.39-.28.2-.56.4-.84.6-.18.12-.37.25-.55.37-.32.21-.64.41-.97.62-.14.09-.29.19-.44.27-.46.28-.93.55-1.4.81-.14.08-.3.15-.45.23-.35.19-.7.37-1.06.54-.18.09-.36.18-.55.26-.35.16-.69.32-1.04.47-.18.07-.35.15-.52.22-.51.22-1.02.42-1.54.61-.04.01-.07.03-.11.04-.5.18-1.01.35-1.51.51-.17.06-.35.1-.52.16-.39.12-.77.23-1.16.33-.18.05-.37.1-.55.15-.43.1-.86.2-1.3.3-.13.03-.26.06-.39.09-.56.11-1.13.21-1.7.3-.14.02-.28.04-.42.06-.44.06-.88.12-1.33.17-.19.02-.39.04-.57.06-.42.04-.84.07-1.27.1-.18,0-.36.02-.54.03-.59.03-1.19.04-1.78.04h0c-.6,0-1.19-.02-1.78-.04-.18-.01-.37-.02-.55-.03-.42-.03-.83-.06-1.25-.1-.2-.02-.39-.04-.59-.06-.43-.04-.87-.1-1.3-.17-.15-.02-.29-.04-.44-.06-.57-.09-1.13-.19-1.69-.3-.14-.03-.29-.07-.43-.1-.42-.09-.83-.18-1.25-.29-.19-.05-.39-.1-.59-.16-.38-.1-.75-.2-1.12-.31-.19-.06-.37-.11-.56-.17-.48-.15-.94-.31-1.41-.48-.1-.04-.21-.08-.32-.11-.48-.18-.95-.36-1.4-.56-.19-.08-.38-.16-.58-.25-.33-.14-.65-.29-.97-.44-.2-.09-.4-.19-.61-.29-.33-.16-.65-.32-.96-.49-.18-.09-.36-.18-.54-.28-.46-.25-.91-.51-1.36-.78-.18-.11-.35-.23-.54-.34-.29-.18-.57-.37-.86-.55-.21-.14-.41-.27-.61-.41-.25-.18-.5-.35-.76-.54-.2-.15-.4-.29-.6-.45-.28-.21-.55-.42-.81-.64-.28-.23-.56-.46-.84-.69-.26-.22-.52-.45-.77-.67-.2-.18-.4-.37-.6-.55-.2-.19-.4-.38-.59-.56-.2-.2-.4-.4-.6-.6-.19-.19-.37-.39-.55-.58-.19-.2-.39-.41-.57-.62-.29-.32-.58-.65-.86-.99-.22-.26-.44-.53-.65-.8-.15-.2-.31-.39-.46-.58-.19-.24-.36-.48-.55-.73-.14-.19-.27-.39-.41-.58-.18-.25-.35-.51-.52-.76-.13-.19-.24-.39-.37-.57-.31-.49-.61-.98-.9-1.49-.11-.18-.22-.36-.32-.55-.16-.28-.3-.56-.45-.85-.1-.2-.2-.4-.31-.61-.14-.29-.28-.57-.41-.86-.09-.2-.18-.41-.28-.61-.14-.3-.27-.59-.39-.9-.04-.09-.07-.18-.11-.27-1.19-2.92-2.02-6.01-2.46-9.24-1.06.06-2.12.11-3.18.11-2.28,0-4.52-.16-6.73-.45-.32-.04-.64-.08-.96-.12-.48-.07-.96-.16-1.43-.24-.35-.06-.69-.12-1.04-.19-.46-.09-.91-.2-1.37-.31-.35-.08-.7-.16-1.05-.24-.45-.11-.89-.24-1.34-.36-.35-.1-.7-.19-1.05-.3-.44-.13-.86-.28-1.3-.42-.35-.12-.69-.23-1.04-.35-.43-.15-.85-.31-1.26-.48-.34-.13-.69-.27-1.02-.4-.41-.17-.81-.34-1.22-.52-.34-.15-.67-.3-1.01-.45-.4-.19-.8-.38-1.19-.57-.33-.16-.66-.34-.99-.5-.39-.2-.77-.41-1.15-.62-.32-.18-.64-.36-.96-.55-.38-.22-.75-.45-1.12-.68-.31-.19-.62-.39-.93-.59-.37-.24-.73-.48-1.09-.72-.31-.21-.6-.43-.89-.64-.36-.26-.72-.51-1.06-.77-.29-.22-.57-.45-.86-.68-.34-.27-.69-.54-1.01-.82-.28-.23-.56-.48-.84-.72-.32-.29-.66-.56-.98-.86-.27-.25-.52-.5-.79-.75-.32-.3-.64-.6-.94-.91-.22-.22-.42-.44-.63-.66-.61-.64-1.21-1.29-1.79-1.97-.25-.29-.51-.58-.76-.87-.26-.32-.51-.64-.76-.96-.24-.31-.5-.62-.73-.94-.24-.32-.47-.65-.71-.98-.23-.33-.47-.65-.7-.98-.23-.33-.44-.67-.66-1.01-.22-.34-.45-.68-.66-1.02-.21-.34-.41-.69-.61-1.04-.2-.35-.41-.7-.61-1.06-.19-.35-.38-.71-.57-1.06-.19-.37-.38-.73-.56-1.09-.18-.36-.35-.72-.52-1.08-.17-.38-.34-.75-.51-1.13-.16-.36-.31-.73-.46-1.1-.16-.38-.31-.77-.46-1.16-.14-.37-.28-.75-.41-1.13-.14-.4-.28-.8-.41-1.19-.12-.38-.25-.76-.36-1.14-.12-.41-.24-.82-.35-1.23-.11-.38-.22-.77-.31-1.16-.11-.42-.2-.85-.29-1.27-.09-.39-.18-.77-.25-1.16-.09-.43-.16-.88-.24-1.31-.06-.39-.14-.77-.19-1.16-.07-.46-.12-.92-.17-1.38-.04-.38-.1-.76-.14-1.14-.05-.49-.08-.99-.12-1.49-.02-.35-.06-.7-.08-1.06-.03-.67-.04-1.34-.05-2.01,0-.19-.02-.37-.02-.56s.01-.37.02-.56c0-.67.02-1.34.05-2.01.02-.36.05-.7.08-1.06.04-.5.07-1,.12-1.49.04-.38.09-.76.14-1.13.06-.46.1-.92.17-1.38.06-.39.13-.78.19-1.16.07-.44.15-.88.24-1.31.07-.39.16-.78.25-1.17.09-.42.19-.85.29-1.27.09-.39.2-.77.31-1.15.11-.41.22-.83.35-1.23.11-.39.24-.77.36-1.14.13-.4.27-.8.41-1.2.13-.38.27-.75.41-1.13.15-.39.3-.77.46-1.16.15-.37.31-.74.46-1.1.17-.38.34-.75.51-1.13.17-.36.34-.73.52-1.09.18-.37.37-.73.56-1.09.19-.35.37-.71.57-1.06.2-.36.41-.71.61-1.06.2-.34.4-.69.61-1.03.21-.34.43-.68.66-1.02.22-.34.44-.68.66-1.01.22-.33.46-.66.7-.98.24-.33.47-.66.71-.98.24-.32.49-.62.73-.93.25-.32.5-.64.76-.96.25-.3.51-.58.76-.88.58-.67,1.18-1.32,1.79-1.96.21-.22.41-.45.63-.66.31-.31.63-.61.94-.91.27-.25.52-.51.79-.75.32-.29.65-.58.98-.86.28-.24.55-.49.84-.72.33-.28.67-.54,1.01-.82.29-.23.57-.46.86-.68.34-.27.7-.51,1.06-.77.3-.21.59-.43.89-.64.36-.25.72-.48,1.09-.72.31-.2.62-.4.93-.59.37-.23.74-.45,1.12-.67.32-.19.63-.37.96-.55.38-.21.77-.42,1.15-.62.33-.17.65-.34.99-.5.39-.2.79-.39,1.19-.57.33-.16.67-.31,1.01-.46.41-.18.81-.35,1.22-.53.34-.14.68-.27,1.02-.4.42-.16.84-.32,1.26-.47.34-.12.69-.23,1.04-.35.43-.14.86-.28,1.3-.42.35-.1.7-.2,1.05-.3.44-.12.89-.25,1.34-.36.35-.09.7-.16,1.05-.24.46-.1.91-.21,1.37-.3.35-.07.69-.12,1.04-.18.48-.09.95-.18,1.43-.25.31-.05.64-.08.96-.12,2.2-.29,4.44-.45,6.73-.45,1.07,0,2.13.04,3.19.1.42-3.13,1.21-6.13,2.35-8.97.07-.19.14-.36.21-.55.12-.29.25-.58.38-.86.09-.22.19-.43.29-.65.13-.28.27-.56.41-.84.1-.21.22-.43.33-.64.14-.28.28-.55.43-.82.12-.21.24-.43.36-.64.27-.46.54-.91.83-1.36.13-.21.27-.42.4-.63.17-.25.34-.49.5-.74.14-.2.29-.41.44-.61.18-.24.35-.48.53-.71.16-.21.33-.42.49-.63.17-.22.34-.44.52-.65.32-.38.64-.75.96-1.11.18-.2.36-.39.55-.59.19-.21.39-.41.59-.61.19-.19.38-.39.57-.57.2-.2.41-.4.62-.6.19-.18.38-.35.57-.53.28-.25.56-.49.85-.74.24-.2.48-.4.72-.6.29-.23.57-.46.87-.68.19-.15.39-.28.59-.43.25-.19.51-.37.78-.56.19-.14.39-.27.59-.4.29-.2.59-.38.89-.57.17-.11.34-.22.51-.32.45-.27.91-.54,1.38-.79.17-.09.34-.18.5-.27.33-.18.66-.35.99-.51.2-.1.4-.19.59-.28.33-.16.66-.3.99-.45.18-.08.37-.17.56-.24.48-.2.96-.39,1.44-.57.09-.03.18-.06.27-.09.47-.17.95-.33,1.44-.49.18-.06.36-.11.55-.17.38-.11.75-.22,1.12-.32.19-.06.39-.11.59-.16.42-.11.83-.2,1.25-.29.14-.03.29-.07.43-.09.56-.12,1.12-.22,1.69-.31.14-.02.29-.04.43-.06.44-.06.88-.12,1.31-.17.19-.02.39-.04.59-.06.42-.04.83-.07,1.25-.09.18-.01.37-.02.55-.03.59-.03,1.18-.05,1.78-.05h0c.6,0,1.19.02,1.78.05.18,0,.36.02.54.03.43.03.85.06,1.27.09.19.02.38.04.57.06.45.05.9.1,1.34.17.13.02.27.04.4.06.58.09,1.14.19,1.7.31.13.02.27.06.39.08.44.09.87.19,1.3.3.19.04.37.09.55.14.39.1.78.22,1.17.33.17.05.34.1.51.16.52.16,1.03.34,1.54.52.03,0,.05.01.08.02.53.19,1.04.4,1.56.62.17.07.33.15.5.21.35.16.71.31,1.06.48.18.09.36.17.54.26.36.18.72.36,1.07.55.14.07.29.15.43.22.48.26.95.53,1.42.81.14.08.28.17.41.26.34.21.67.42,1,.64.17.12.35.24.53.36.29.2.58.41.87.62.17.12.34.25.5.37.35.27.7.54,1.03.81.14.11.27.22.41.33.36.3.71.61,1.05.92.17.14.33.3.49.45.24.23.49.46.72.69.17.17.34.33.5.5.23.24.46.48.69.72.16.16.3.32.45.48.34.38.68.77,1.01,1.17.14.17.28.34.42.52.21.26.41.51.6.77.15.2.31.4.46.61.18.24.35.49.53.74.14.21.29.42.43.63.19.29.37.58.55.87.18.29.36.58.54.88.19.32.38.64.55.96.13.23.25.46.36.69.14.26.28.52.4.78.12.24.24.48.35.73.13.27.25.54.37.82.1.23.21.47.31.71.19.46.38.93.55,1.4h0c.96,2.6,1.65,5.33,2.03,8.15,1.05-.06,2.12-.1,3.19-.1,2.25,0,4.46.16,6.64.44.35.04.7.08,1.05.13.46.07.91.15,1.37.24.37.06.74.12,1.1.2.44.09.88.19,1.31.29.38.08.75.17,1.12.26.43.11.86.23,1.28.34.37.11.74.2,1.11.32.41.13.83.26,1.24.4.36.12.73.24,1.1.38.4.14.81.29,1.2.45.36.14.73.28,1.09.43.39.16.78.33,1.16.5.37.16.72.32,1.07.48.38.18.76.36,1.13.55.35.18.71.36,1.06.54.36.19.73.39,1.09.59.35.19.69.39,1.03.6.35.2.7.41,1.05.62.34.22.68.43,1.02.65.33.22.67.44,1,.67.34.23.67.47,1,.71.32.23.64.46.96.7.34.26.66.52.99.78.3.24.6.47.89.71.34.29.67.58,1.01.87.27.23.55.47.81.71.36.33.72.68,1.07,1.03.22.21.45.42.66.64.56.56,1.11,1.14,1.65,1.72.14.16.28.33.42.49.39.44.79.88,1.16,1.33.2.24.38.49.57.72.31.39.62.77.92,1.17.21.27.39.54.58.81.28.38.56.76.83,1.15.19.29.38.58.56.86.26.39.51.78.75,1.17.18.3.36.6.54.9.23.4.47.8.69,1.2.18.31.34.62.5.93.21.41.43.81.62,1.23.16.32.31.64.46.96.19.42.38.83.57,1.26.14.32.28.66.41.99.18.43.35.86.51,1.29.13.33.25.66.37,1,.16.44.3.89.45,1.33.12.34.22.67.33,1.01.14.46.27.92.39,1.38.09.33.18.67.27,1.01.12.47.23.96.33,1.44.07.33.15.66.22,1,.1.5.18,1.01.27,1.51.06.32.12.64.16.97.08.54.14,1.09.21,1.64.03.29.07.58.1.88.06.63.11,1.26.14,1.9.02.22.03.44.04.66.05.86.07,1.72.07,2.6s-.02,1.74-.07,2.6c-.01.22-.03.44-.04.66ZM240,221.93c1.67,0,3.02-1.35,3.02-3.02s-1.35-3.02-3.02-3.02-3.02,1.35-3.02,3.02,1.35,3.02,3.02,3.02ZM252.29,211.43h-7.32v16.68h-2.49c-.7-.54-1.58-.86-2.53-.86s-1.83.32-2.53.86h-2.39v-16.68h-7.32v50.91h-2.99v7.46h30.58v-7.46h-3v-50.91ZM244.97,262.34h-9.94v-4.76h9.94v4.76ZM244.97,254.31h-9.94v-23.13h2.81c.12-1.07,1.02-1.9,2.12-1.9s2,.83,2.12,1.9h2.91v23.13ZM252.21,200.75h-6.07v-4.83h-1.68v-3.07h1.61v-2.78h-1.61v-.44c0-2.24-1.65-4.09-3.81-4.41v-7.73h-1.31v7.73c-2.15.32-3.81,2.17-3.81,4.41v.44h-1.61v2.78h1.61v3.07h-1.68v4.83h-6.08v4.53h-2.99v2.93h30.43v-2.93h-3v-4.53ZM238.61,200.75h-1.72v-4.83h1.72v4.83ZM243.11,200.75h-1.72v-4.83h1.72v4.83ZM281,199.62h-6.79c-.46-18.51-15.59-33.37-34.21-33.37s-33.75,14.86-34.21,33.37h-6.79c-26.14,0-47.33,21.19-47.33,47.33s21.19,47.32,47.33,47.32h6.79c.47,18.51,15.6,33.37,34.21,33.37s33.75-14.86,34.21-33.37h6.79c26.13,0,47.32-21.19,47.32-47.32s-21.19-47.33-47.32-47.33ZM199.34,262.2c-2.75-2.39-6.14-4.05-9.89-4.7h19.04c-3.77.01-7.1,1.86-9.15,4.7ZM201.63,264.52c1.44-2.29,3.98-3.82,6.89-3.82,4.5,0,8.15,3.65,8.15,8.14h0v9.23h-10.29c0-.14.01-.29.01-.43,0-4.99-1.79-9.57-4.77-13.12ZM216.67,281.27v19.56h-4.38v-12.61h0c0-2.65-.97-5.08-2.56-6.95h6.94ZM240,324.58c-13.49,0-24.97-8.57-29.31-20.56h58.62c-4.35,11.99-15.83,20.56-29.31,20.56ZM231.84,300.83v-16.11c.7-4.1,4.18-7.23,8.37-7.23,3.85,0,7.09,2.67,8.11,6.31v17.03h-16.48ZM267.7,288.22h0v12.61h-4.51v-19.56h7.07c-1.6,1.87-2.56,4.3-2.56,6.95ZM273.59,277.64c0,.14,0,.29,0,.43h-10.41v-9.23h0c0-4.5,3.65-8.14,8.15-8.14,2.94,0,5.52,1.57,6.95,3.91-2.93,3.54-4.69,8.07-4.69,13.03ZM280.56,262.27c-2.05-2.87-5.41-4.76-9.2-4.77h19.16c-3.78.65-7.19,2.35-9.96,4.77ZM317.09,230.59c-10.97,0-20.2,7.47-22.87,17.59h-40.84v3.2h40.24c-.12.94-.18,1.9-.18,2.87,0,.02,0,.03,0,.05h-40.06v3.2h17.93c-6.25.01-11.31,5.08-11.31,11.34h0v31.99h-4.42v-27.63h2.72v-2.14h-9.98v7.6c-1.39-1.58-3.2-2.75-5.25-3.33v-2.43h1.16v-1.89h-8.5v1.89h1.16v2.55c-1.98.65-3.72,1.86-5.05,3.45v-7.82h-10.14v2.1h2.76v27.63h-4.6v-31.99h0c0-6.26-5.06-11.33-11.31-11.34h18.05v-3.2h-40.05v-.05c0-.97-.07-1.93-.18-2.87h40.23v-3.2h-40.84c-2.68-10.13-11.91-17.59-22.88-17.59-1.62,0-3.21.17-4.74.48,6.36-16.35,22.24-27.95,40.84-27.95h9.83v-2.62h0c0-17.22,13.96-31.18,31.19-31.18s31.18,13.96,31.18,31.18v2.62h9.83c18.6,0,34.48,11.61,40.84,27.96-1.54-.31-3.13-.48-4.76-.48ZM237.24,308.32h-5.61l-1.33,4.07h4.51l-.19,1.61h-4.91l-.6,1.87h7.55l.58-7.55ZM235.07,311h-2.55l.35-1.35,2.45-.03-.25,1.39ZM253.46,313.87l.94,2,2.8-.13-1.09-1.74,1.29-.07-1.09-1.87h-1.55l-1.89-3.74h-1.93l-1.98,3.55.71,2h3.81ZM251.84,310.32l.77,1.68h-1.61l.84-1.68ZM228.59,308.32h-2.19l-3.42,7.55h3.04l2.57-7.55ZM239.62,315.86h7.67l-.49-1.93h-3.03l2.39-2.13-.8-3.49h-5.67l-.04,2.9h2.19l-.19-1.16h2.06l.13,1.29-4.13,2.52-.09,2Z"/>
</svg>