<?xml version="1.0" encoding="UTF-8"?>
<svg id="_图层_1" data-name="图层 1" xmlns="http://www.w3.org/2000/svg" viewBox="0 0 174 510">
  <defs>
    <style>
      .cls-1 {
        fill: #00561f;
        fill-rule: evenodd;
      }
    </style>
  </defs>
  <g>
    <path class="cls-1" d="M114.12,379.58h.09c1.14,1.4,1.31,2.88-.09,5.24v-5.24h0ZM114.12,398.98c2.27.61,5.77.79,6.29,1.05.96.53,1.83-1.13.53-2.1-.44-.44-1.75-1.57-3.06-2.45-1.31-.87-2.71-1.66-3.76-2.45v-3.15c1.14-.35,2.88-.53,4.9-.7,2.54-.18,5.77-2.62,7.95-1.92,2.27.61,3.85.44,6.99,7.78.44,1.31-.96,3.33-2.18,5.33-1.84,2.97-2.45,5.77-4.37,8.92-1.4,2.27-5.34,8.83-3.15,8.31,7.34-1.57,9.7-1.23,13.81,2.45,2.62,2.36,5.24,3.93,5.51,6.64v.7c-.09.52-.18,1.05-.35,1.66-4.29,7.34-13.9,1.84-22.2,5.24-1.4,1.57-.87,4.28-4.28,5.33-.87.26-1.75.7-2.62,1.14v-12.59c2.88-.18,5.33-.35,6.91-.53,1.57-.18,2.36-1.84,1.22-2.62-.44-.26-3.67-.18-8.13.09v-18.8c1.66.18,2.71.18,3.23-.43.53-.61.53-1.84-.17-2.36-.87-.35-2.01-.52-3.06-.62v-3.93h0ZM114.12,448.99c2.19-.26,4.63-.61,6.82-.87,3.06-.35,4.98-2.19,6.21-1.23,3.5,2.71,4.11,3.15,5.94,8.13,1.58,4.46-4.98,6.03-8.31,5.24-5.16-1.22-6.55-2.01-10.66-1.58v-9.7ZM111.06,376.17c1.22,1.14,2.36,2.45,3.06,3.41v5.24c-.61,1.14-1.66,2.45-3.06,4.11v-12.77h0ZM111.06,394c.78.61,1.57,1.4,1.14,3.5-.18.71.7,1.22,1.92,1.49v3.93c-1.05-.17-2.1-.17-2.62-.09-.18.09-.35.09-.44.18v-9.01h0ZM114.12,393.04c-.7-.53-1.22-1.05-1.31-1.58-.18-.79.35-1.22,1.31-1.57v3.15h0ZM114.12,440.77c-1.05.53-2.19,1.31-3.06,2.01v-14.25c1.05-.08,2.1-.26,3.06-.35v12.59h0ZM111.06,449.34c.87-.09,2.01-.18,3.06-.35v9.7c-.7.09-1.58.26-2.54.44-.26,0-.44.08-.52.26v-10.05h0ZM114.12,425.12c-.96.09-2.01.17-3.06.26v-8.57c.26,0,.61-.08.78-.26.53-.61,1.49-1.05.61-1.93-.26-.35-.61-.52-1.4-.44v-8.48c.26.44,1.4.7,2.45.61h.61v18.8ZM101.18,385.7c.35-.18.78-.44,1.14-.79,2.45-2.54-.26-9.88,4.81-10.4,1.4,0,2.71.7,3.94,1.66v12.77c-.35.35-.61.7-.96,1.05-.18.26-.53.44-.7,2.01.09,1.05.88,1.4,1.66,2.01v9.01c-.79.52-.35,1.66-.09,2.53q0,.09.09.18v8.48h-.35c-1.31.18-1.05.62-1.49,1.93.09.35,1.05.69,1.84.69v8.57c-1.31.09-2.71.18-4.02.27-1.92.17-3.93.35-5.86.53v-6.2c.61.09,1.57.09,1.92-.26,1.13-1.22,1.22-1.58-.09-2.01-.09.09-.53-.88-1.23-.09-.26.35-.43.61-.61.7v-12.68c.61-.44,1.31-1.05,1.4-1.48.17-1.58.26-2.18-1.05-1.84,0,0-.17,0-.35.09v-16.7h0ZM111.06,442.79c-2.27,1.83-3.94,3.84-4.02,5.07,0,1.31,1.57,1.57,4.02,1.49v10.05c-1.75,1.84-.09,10.49-1.66,14.51-1.22,3.06-2.97,6.64-4.55,9.09-1.14,1.75-2.36,3.15-3.67,4.19v-57.26l1.75-.35c2.63-.44,5.42-.79,8.13-1.05v14.25ZM90.25,383.07c2.01-.53,4.11-.35,5.16.53,1.75,1.57,3.85,2.97,5.77,2.1v16.7c-.18.09-.53.26-.79.79-.61,1.31-.87,1.57-.44,2.88.18.18.7-.08,1.23-.43v12.68c-.27.27-.27.35-.53,1.22,0,.18.26.35.53.44v6.2c-2.28.18-4.55.53-6.65.96-.88.18-2.62.35-4.02,1.22-.09.09-.18.09-.26.18v-9.88c1.66-.87,3.24-2.27,3.5-3.41.44-4.02.35-6.12-2.97-5.25,0,.09-.26.18-.53.26v-7.95c1.58-.87,3.76-3.15,4.02-5.07.44-4.02-.88-6.73-4.02-6.03v-8.13h0ZM101.18,487.19c-3.06,2.71-6.29,3.5-8.04,2.19-.62-.52-1.58-1.66-2.89-3.15v-11.72c2.71-.18,4.9-.53,5.42-1.49,1.84-3.15,1.66-6.21,1.31-9.97.09-1.49-1.92-.61-5.16-1.05-.53,0-1.05-.09-1.58,0v-9.18c1.14-.09,2.1-.26,2.62-.79,1.4-1.66-1.49-3.41-1.31-4.9.44-2.54,6.82-3.23,7.43-4.98.7-1.92,1.75-.87,2.01-3.15.26-2.18-4.72.09-6.82.7-1.49.44-2.71.61-3.94.96v-8.57c3.06-.7,6.82-1.4,10.93-2.19v57.26ZM67.35,427.13c1.49-1.22,1.14-18.36.35-23.6-1.05-2.54-1.31-6.21-.96-8.13.53-2.63,2.01-3.32,3.67-2.45,2.01.96,4.02,3.85,6.3,8.48,1.49,3.15-.18,2.71-.18,3.85-.08,5.86-.61,11.71-.7,15.65,0,2.36,3.15,2.62,3.67,1.22.53-9.62-.61-22.38.26-27.97.09-3.67-1.4-8.22,0-9.36,1.75-1.31,5.68-.53,7.43.44,1.4.7,1.31-1.66,2.36-2.01.26-.09.44-.18.7-.18v8.13c-.09,0-.17,0-.26.09-.52.35-.35,1.05-.44,1.49-.44,3.59-.96,6.47-.96,9.79.35.26.96.09,1.66-.26v7.95c-.7.18-1.93.61-2.1,2.45-.26,3.67-2.36,3.58-1.31,6.9.53.44,1.92-.09,3.41-.96v9.88c-1.05.79-1.75,2.27-3.06,2.45-2.27.35-4.11.27-5.25.35-1.66.26-2.45.61-4.46.96-1.66.26-5.59.87-8.13,3.05-2.45,2.19-2.71,8.22-4.11,10.84-1.05,2.1-2.27,4.28-3.14,6.03-1.23,2.36-2.36,4.19-4.81,4.81-3.32.78-6.03-3.41-6.29-6.04v-.87c1.05-3.85,1.83-6.99,2.18-10.4.18-2.36-.61-4.63-.44-6.56.26-1.75,1.49-2.54,2.36-3.58,1.05-1.14,2.01-2.54,3.76-2.19,1.4.26,2.27,1.4,3.76,1.58,2.1.18,3.23-.62,4.72-1.84h0ZM90.25,486.23c-1.05-1.23-2.36-2.54-3.85-4.02-2.45-2.19-6.64-3.76-8.74-5.77-1.4-2.27,6.73-1.66,12.59-1.92v11.72h0ZM90.25,462.01v-9.18c-.96.09-2.1,0-2.97.09-5.59.7-12.59,0-17.92,1.4-5.51,1.48-4.37,3.76-1.75,6.21,1.31,1.22,1.75,2.19,5.33,3.93,3.41,1.66,11.71-2.27,17.31-2.45h0ZM90.25,440.68v-8.57c-2.8.7-5.07,1.31-6.64,2.1-1.49.7-5.77,3.15-7.26,4.02-3.59,2.18-2.8,3.76-1.23,5.07,3.67,3.15,9.01,1.57,9.96.53,1.92-2.01,3.5-2.71,5.16-3.15Z"/>
    <path class="cls-1" d="M77.75,290.75c4.98.09,8.22-.35,8.13-1.31.17-4.11.26-11.1-.96-16.44-.7-2.79,1.31-4.46,2.89-5.42,3.67-2.18,4.63-3.15,6.73-2.88,3.67.52,6.38,2.79,8.92,6.12,1.22,1.83,2.19-.7.7,8.22-.7,4.55,0,4.9.61,5.59,2.1.79,4.28.17,7.43-.79,3.85-1.14,5.07-6.99,12.68,1.92,1.05,1.13,1.84,2.62.53,4.54-1.66,2.27-5.59,3.41-10.05,5.95-5.68,3.23-15.12,3.76-13.72,7.96,3.94,9.79,14.6,24.04,28.67,33.83,3.59,2.45,7.96,4.55,12.94,5.94,7.25,2.01,13.29,3.5,9.7,5.33-5.42,2.8-25.7,6.03-31.38,2.97-5.86-3.15-23.43-31.04-26.49-36.54-.18-.26-.7-.26-.96.52-3.23,7.17-10.23,20.63-17.22,26.23-3.15,2.45-7.69,1.22-9.09.09-1.66-1.22-11.89-3.5-13.55-6.64-.87-2.01.44-2.19,1.57-2.36,13.55-.52,15.39-4.46,18.53-6.91,8.31-6.47,9.53-17.57,8.48-18.01-12.41,1.22-16.7,2.71-20.63-1.93-7.6-15.39-1.4-17.92,5.77-17.05,3.59.53,8.48.96,9.79,1.05Z"/>
    <path class="cls-1" d="M68.22,202.03c1.49.44,2.8,1.22,4.02,3.76,3.67,5.95,2.19,13.29,3.23,17.92.96.53,3.32.09,6.03-.35,3.58-.61,7.52-1.31,7.43-2.28-.52-4.89.26-37.33-.44-41.79-.18-.44-.44-1.92-.61-2.36-1.58-7.43,5.42-9.62,7.52-9.44,3.68.44,11.01,7.35,9.97,10.4-1.92,3.32-2.1,12.5-2.18,21.33,0,7.6-.18,14.86.17,17.66,0,2.27,9.35-.52,12.5-1.84,3.93-.7,3.15-13.2,6.47-15.47,1.57-1.14,10.93.52,12.33,8.3.26,4.28-1.05,9.79-2.1,15.04-.7,3.67-1.31,8.22-1.4,9.88-.17,1.75-7.35,9.18-9.79,10.84-3.85.96-4.99-8.04-4.99-12.85,0-2.54.09-3.41-.61-4.02-2.27-.17-8.04.79-11.45,2.63-1.84.96-2.45,3.58-4.9,4.02-9.7-.35-19.58,1.66-21.15,3.15-.88.79-5.42,4.72-6.21,5.86-.79,1.05-4.2-.09-5.25.26-2.45.88-3.93-3.58-6.73-7.17-2.97-3.76-.87-6.03.79-10.06,2.01-4.63,2.63-12.67,2.19-18.09,0-2.8-.17-6.12,5.16-5.33Z"/>
    <path class="cls-1" d="M108.44,42.13c1.66.09,3.5.09,5.42,0,3.41-.44,7.69-3.32,10.75-3.41,4.46,0,10.58,6.29,12.06,10.32.88,3.5-1.22,6.21-3.67,7.52l-2.09.52c-2.36,1.31-6.65,6.91-6.47,7.96-.09,1.66-.09,2.8,1.66,4.02,1.05,1.57-1.57,7.96-4.63,9.18-.96.52-1.83,1.05-4.19,1.05-2.89-.09-5.86.7-8.83,1.92v-17.13c1.4-1.05,2.45-2.27,2.88-3.06,1.66-2.27,3.67-6.12,2.45-9.09-1.22-.96-3.32-1.05-5.33-.78v-9ZM79.41,50.52c2.8-1.58,4.81-2.54,7.96-3.67-.17-4.63-.78-9.53-.61-13.99.09-.96-.26-1.84-.61-2.45-1.83-3.85,2.45-8.92,8.66-10.4,1.75-.26,9.44,3.41,9.44,6.91-.17,4.9-.7,10.49-.26,14.86,1.14.18,2.71.26,4.46.35v9c-1.83.26-3.58.78-4.55,1.31-1.05,1.74-1.75,12.58-.35,13.29,1.57.26,3.41-.61,4.9-1.66v17.13c-2.18.96-4.28,2.1-6.38,3.5-.17,15.56-1.49,30.08-2.01,45.55-1.05,8.22-3.85,15.74-8.04,16.26-2.97-.26-5.86-6.82-5.95-17.14l-.7-42.4c-1.66.26-3.67.88-5.94,1.75v-14.6c1.75,0,2.8-.43,4.9-1.75,1.4-.88.96-10.23.52-11.89-.7-.96-1.92.44-2.36.7-.96.61-2.01,1.05-3.06,1.31v-11.98ZM69.01,55.5c1.83.53,3.15-.7,5.33-2.01,2.1-1.14,3.67-2.1,5.07-2.97v11.98c-1.83.53-3.58.53-5.16.09-1.57-.7.09,10.75,2.01,11.19,1.4.17,2.36.35,3.15.35v14.6c-1.57.61-3.32,1.4-5.24,2.18-.96.78-1.83,1.58-2.71,2.62-.87.96-1.48,2.62-2.53,2.88-2.62.61-5.42.26-7.69-1.31-1.75-1.4-1.75-4.98-4.37-8.92-2.01-2.54-4.02-4.46-4.02-8.04,1.31-3.24,1.75-4.99,2.88-7,.26-.87.44-1.84.61-3.32.26-3.76.87-6.9,2.27-10.49,1.05-2.01,6.3-5.33,10.41-1.84Z"/>
  </g>
  <path class="cls-1" d="M42.98,490h-.78c-.08-.61-.26-1.13-.43-1.39-.18-.35-.43-.61-.87-.87l-3.92-2.35v-1.57l.7.44c.35.26.78.52,1.3.69.79.35,1.39.61,1.74.61.61,0,.96-.26,1.13-.78.26-.43.35-1.13.35-2h.78v7.23h0ZM36.97,471.9l3.39-1.83c.35-.17.61-.35.7-.43.78-.61,1.13-1.39,1.13-2.26h.78v11.14h-.78c0-1.13-.08-1.91-.17-2.26-.17-.26-.44-.43-.96-.43-.18,0-.53.09-.96.35-.44.17-.7.34-.87.43l-2.26,1.13v-5.83h0ZM36.97,464.23v-1.04c2-.35,3.39-1.22,4.18-2.44.52-.96.78-2.18.78-3.83h-4.96v-5.4h4.96c0-1.65-.26-2.87-.78-3.74-.78-1.31-2.18-2.18-4.18-2.53v-1.04l6.01.09v19.85l-6.01.09h0ZM36.97,437.77v-5.4h2.87c.96,0,1.66-.26,2.01-.96.17-.43.35-1.13.35-2.09h.78v11.58h-.78c0-.96-.08-1.74-.35-2.17-.35-.61-.96-.96-2.01-.96h-2.87ZM36.97,424.63v-1.13c1.22-.35,2.35-.96,3.31-1.74,1.48-1.3,2.26-2.78,2.26-4.52,0-.96-.26-1.83-.87-2.53-.52-.7-1.31-1.05-2.26-1.05s-1.65.26-2.17.7c-.09.09-.18.17-.26.26v-4.52h0c2.18,0,3.83.69,5.05,2.18.96,1.31,1.48,2.96,1.48,5.13,0,1.05-.17,2.09-.52,3.22-.35,1.13-.52,1.83-.52,1.92,0,.43.17.69.52.87.09.09.35.17.52.26v.96h-6.53ZM36.97,403.9v-5.66h.17c1.65,0,2.87-.35,3.57-.96.78-.7,1.13-1.66,1.13-3.04,0-.87-.09-1.4-.18-1.57-.17-.26-.61-.35-1.22-.43h-3.48v-5.4h2.18c1.3,0,2.18-.26,2.61-.7.26-.44.43-1.13.43-2.17h.78v10.62c0,3.05-.43,5.31-1.48,6.96-.96,1.57-2.44,2.35-4.35,2.35h-.17ZM36.97,380.32v-.96c1.92-.44,3.22-1.13,3.92-2.26.7-1.05.96-2.79.96-5.22,0-.96-.09-1.57-.26-1.92-.17-.35-.61-.52-1.22-.52h-3.39v-5.31h2.87c.96,0,1.66-.26,2.01-.87.17-.43.35-1.13.35-2.09h.78v19.15h-6.01ZM36.97,375.7h.61v-.87c-.18,0-.43-.09-.61-.09v.96h0ZM36.97,354.37v-1.48l1.39.52c.53.26.96.44,1.31.52.35.09.7.18.96.18,1.04,0,1.57-.96,1.57-2.88h.78v7.05h-.78c-.08-.87-.35-1.48-.7-1.83-.35-.35-1.05-.69-2-1.13l-2.53-.96h0ZM36.97,345.32v-5.66l2.87-1.22c.96-.43,1.57-.78,1.83-1.13.18-.26.35-.87.52-1.66h.78v11.15h-.78c0-1.13-.08-1.92-.26-2.35-.17-.35-.52-.52-1.13-.52-.26,0-.69.17-1.39.43-.7.26-1.22.43-1.48.52l-.96.43h0ZM36.97,330.34v-5.31h2.87c.96,0,1.66-.35,2.01-.96.17-.44.35-1.22.35-2.18h.78v11.58h-.78c0-.96-.08-1.66-.35-2.09-.35-.69-.96-1.04-2.01-1.04h-2.87ZM36.97,316.68v-1.48h1.92c1.13,0,1.91-.17,2.44-.52.52-.43.87-1.31.87-2.52h.78v7.14h-.78c-.17-1.13-.43-1.92-.78-2.18-.35-.26-.96-.44-1.91-.44h-2.53ZM36.97,308.58v-6.71l1.05-.87h-1.05v-1.48h2.87c1.05-.87,1.74-1.56,2.01-1.91.26-.35.35-.61.35-.96h.78v7.05l-6.01,4.87h0ZM36.97,291.43v-1.4h1.92c1.13,0,2-.17,2.44-.6.52-.44.87-1.31.87-2.7h.78v7.31h-.78c-.17-.96-.35-1.65-.7-2-.35-.35-1.13-.61-2.09-.61h-2.44ZM36.97,279.33v-5.22h2.18c1.22,0,2.09-.26,2.44-.7.26-.26.53-.96.61-2h.78v11.14h-.78c0-1.21-.17-2-.43-2.43-.43-.52-1.31-.79-2.61-.79h-2.18ZM36.97,256.61v-1.4h1.92c1.13,0,1.91-.17,2.44-.52.52-.44.87-1.3.87-2.61h.78v7.14h-.78c-.17-1.13-.43-1.83-.78-2.09-.35-.34-.96-.52-1.91-.52h-2.53ZM36.97,248.52v-6.7l1.05-.79h-1.05v-1.57h2.87c1.05-.87,1.74-1.48,2.01-1.92.26-.26.35-.61.35-.87h.78v6.97l-6.01,4.87h0ZM36.97,231.98v-.96c1.92-.44,3.22-1.13,3.92-2.26.7-1.05.96-2.79.96-5.22,0-.95-.09-1.65-.26-1.91-.17-.35-.61-.52-1.22-.52h-3.39v-5.23h2.87c.96,0,1.66-.35,2.01-.87.17-.44.35-1.13.35-2.09h.78v19.07h-6.01ZM36.97,227.36h.61v-.87c-.18,0-.43-.09-.61-.09v.95h0ZM36.97,208.38v-1.13c1.22-.43,2.35-.96,3.31-1.83,1.48-1.22,2.26-2.7,2.26-4.44,0-.96-.26-1.82-.87-2.52-.52-.7-1.31-1.04-2.26-1.04s-1.65.26-2.17.7c-.09.09-.18.17-.26.26v-4.53h0c2.18,0,3.83.7,5.05,2.18.96,1.3,1.48,2.96,1.48,5.14,0,.96-.17,2.09-.52,3.23-.35,1.13-.52,1.74-.52,1.91,0,.35.17.7.52.87.09.09.35.17.52.17v1.04h-6.53ZM36.97,173.04v-1.05c2-.34,3.39-1.22,4.18-2.43.52-.96.78-2.18.78-3.83h-4.96v-5.4h4.96c0-1.65-.26-2.87-.78-3.74-.78-1.31-2.18-2.18-4.18-2.52v-1.04l6.01.09v19.85l-6.01.09h0ZM36.97,145.01v-6.35l6.53,2.61v.95l-6.53,2.79h0ZM36.97,126.99v-1.57l.7.44c.35.26.78.52,1.3.69.79.44,1.39.61,1.74.61.61,0,.96-.26,1.13-.79.26-.43.35-1.13.35-2h.78v7.23h-.78c-.08-.61-.26-1.13-.43-1.4-.18-.26-.43-.61-.87-.78l-3.92-2.44h0ZM36.97,119.33v-5.84l3.39-1.82c.35-.18.61-.35.7-.44.78-.61,1.13-1.39,1.13-2.17h.78v11.05h-.78c0-1.13-.08-1.92-.17-2.18-.17-.34-.44-.52-.96-.52-.18,0-.53.09-.96.35-.44.17-.7.34-.87.43l-2.26,1.13h0ZM36.97,85.03v-1.4h1.92c1.13,0,1.91-.17,2.44-.52.52-.43.87-1.3.87-2.61h.78v7.14h-.78c-.17-1.13-.43-1.83-.78-2.09-.35-.35-.96-.52-1.91-.52h-2.53ZM36.97,76.94v-6.7l1.05-.78h-1.05v-1.57h2.87c1.05-.87,1.74-1.48,2.01-1.91.26-.26.35-.61.35-.87h.78v6.96l-6.01,4.87h0ZM36.97,59.52v-1.48h1.92c1.13,0,2-.17,2.44-.52.52-.44.87-1.39.87-2.7h.78v7.31h-.78c-.17-1.05-.35-1.66-.7-2-.35-.43-1.13-.61-2.09-.61h-2.44ZM36.97,47.42v-5.31h2.18c1.22,0,2.09-.17,2.44-.61.26-.26.53-.95.61-2.09h.78v11.23h-.78c0-1.22-.17-2.09-.43-2.44-.43-.52-1.31-.78-2.61-.78h-2.18ZM36.97,34.89v-1.14c1.22-.43,2.35-.95,3.31-1.82,1.48-1.22,2.26-2.7,2.26-4.44,0-.95-.26-1.83-.87-2.52-.52-.7-1.31-1.05-2.26-1.05s-1.65.26-2.17.7c-.09.09-.18.18-.26.26v-4.53h0c2.18,0,3.83.7,5.05,2.18.96,1.3,1.48,2.96,1.48,5.13,0,1.05-.17,2.09-.52,3.22-.35,1.13-.52,1.74-.52,1.92,0,.35.17.7.52.87.09.09.35.18.52.18v1.04h-6.53ZM36.97,485.39l-4.53-2.79v-1.48l4.53,2.7v1.57h0ZM32.44,474.42l4.53-2.52v5.83l-4.53,2.35v-5.66h0ZM36.97,20.35v4.53c-.43.52-.96,1.31-1.48,2.44l-2.43,4.87c-.18.35-.35.61-.61.87v-10.88c.52-.53.96-.87,1.48-1.13.87-.53,1.83-.7,3.05-.7h0ZM36.97,33.75v1.14h-.61v-.96c.17,0,.43-.09.61-.18h0ZM36.97,42.11v5.31h-4.53v-5.31h4.53ZM36.97,58.04v1.48h-4.53v-1.48h4.53ZM36.97,67.88v1.57l-4.53-.09v-1.48h4.53ZM36.97,70.23v6.7l-4.53,3.66v-6.61l4.53-3.74h0ZM36.97,83.64v1.4h-4.53v-1.48l4.53.08h0ZM36.97,113.49v5.84l-4.53,2.35v-5.66l4.53-2.53h0ZM36.97,125.42v1.57l-4.53-2.79v-1.48l4.53,2.7h0ZM36.97,138.66v6.35l-4.53,1.91v-5.48l4.01-1.65-4.01-1.57v-1.39l4.53,1.83h0ZM36.97,153.02v1.04c-.17,0-.43-.09-.61-.09v-.96h.61ZM36.97,160.33v5.4h-4.53v-5.4h4.53ZM36.97,171.99v1.05h-.61v-.96c.17,0,.43-.09.61-.09h0ZM36.97,193.85v4.53c-.43.52-.96,1.31-1.48,2.43l-2.43,4.88c-.18.35-.35.61-.61.87v-10.88c.52-.52.96-.87,1.48-1.13.87-.52,1.83-.7,3.05-.7h0ZM36.97,207.25v1.13h-.61v-.95c.17,0,.43-.09.61-.18h0ZM36.97,215.87v5.23h-4.35c0,1.74.35,2.96.95,3.65.7.87,1.83,1.39,3.4,1.66v.95h-4.53v-11.49h4.53ZM36.97,231.02v.96h-.61v-.87c.17,0,.43-.09.61-.09h0ZM36.97,239.46v1.57l-4.53-.09v-1.48h4.53ZM36.97,241.81v6.7l-4.53,3.65v-6.61l4.53-3.74h0ZM36.97,255.22v1.4h-4.53v-1.48l4.53.09h0ZM36.97,274.11v5.22h-4.53v-5.22h4.53ZM36.97,290.04v1.4h-4.53v-1.4h4.53ZM36.97,299.53v1.48h-4.53v-1.48h4.53ZM36.97,301.88v6.71l-4.53,3.66v-6.7l4.53-3.66h0ZM36.97,315.2v1.48h-4.53v-1.48h4.53ZM36.97,325.04v5.31h-4.53v-5.31h4.53ZM36.97,339.66v5.66l-4.53,1.91v-5.65l4.53-1.92h0ZM36.97,352.89v1.48l-4.53-1.74v-1.48l4.53,1.74h0ZM36.97,364.12v5.31h-4.35c0,1.74.35,2.96.95,3.74.7.78,1.83,1.31,3.4,1.57v.96h-4.53v-11.58h4.53ZM36.97,379.36v.96h-.61v-.87c.17,0,.43-.09.61-.09h0ZM36.97,386.84v5.4h-4.53v-5.4h4.53ZM36.97,398.25v5.66c-1.65-.09-2.96-.69-3.92-1.91-.18-.26-.44-.52-.61-.96v-5.22c.18.44.35.79.52,1.05.7.87,2,1.39,4.01,1.39h0ZM36.97,410.09v4.52c-.43.52-.96,1.31-1.48,2.44l-2.43,4.88c-.18.35-.35.61-.61.95v-10.97c.52-.43.96-.87,1.48-1.13.87-.43,1.83-.69,3.05-.69h0ZM36.97,423.49v1.13h-.61v-.96c.17,0,.43-.09.61-.18h0ZM36.97,432.37v5.4h-4.53v-5.4h4.53ZM36.97,444.21v1.04c-.17,0-.43-.08-.61-.08v-.96h.61ZM36.97,451.52v5.4h-4.53v-5.4h4.53ZM36.97,463.19v1.04h-.61v-.96c.17,0,.43-.08.61-.08ZM32.44,482.6l-1.82-1.13h-6.1c-1.31,0-2.09.17-2.44.61-.26.35-.52,1.13-.61,2.43h-.87v-11.49h.87c.09,1.31.35,2.09.52,2.35.44.52,1.22.7,2.52.7h4.87l3.04-1.66v5.66l-.87.52.87.52v1.48h0ZM32.44,22.18v10.88c-.34.52-.78.96-1.3,1.39-1.22.87-2.61,1.39-4.18,1.39-1.74,0-3.31-.61-4.52-1.83-1.66-1.48-2.44-3.66-2.44-6.36,0-1.13.17-2.09.35-2.96.26-.87.52-1.83.78-2.7,0-.35-.09-.52-.26-.7-.26-.18-.52-.26-.87-.35v-.96h8.18v.96c-2,.44-3.57,1.13-4.79,2.09-1.48,1.22-2.26,2.79-2.26,4.7,0,1.31.35,2.35,1.04,3.05.7.78,1.57,1.13,2.61,1.13s1.83-.35,2.53-1.05c.35-.43.87-1.39,1.57-2.7l1.05-2.18c.79-1.66,1.65-2.96,2.52-3.83h0ZM32.44,42.11v5.31h-4.35c-2.26,0-3.92.35-4.96,1.13-.96.78-1.48,2-1.48,3.66,0,2.44.87,4.18,2.78,5.14,1.04.44,2.52.69,4.35.69h3.66v1.48h-3.66c-1.13,0-2.26-.17-3.31-.43-1.39-.26-2.35-.78-3.04-1.4-.87-.78-1.48-1.82-1.92-3.13-.34-1.05-.52-2.18-.52-3.39,0-1.13.17-2.09.35-3.13.35-1.48.96-2.61,1.74-3.57.78-.87,1.48-1.39,2.18-1.74.87-.35,2.18-.61,3.83-.61h4.35ZM32.44,67.88v1.48h-7.66c-1.22,0-2,.17-2.44.61-.43.44-.78,1.31-.87,2.52h-.87v-7.49h.87c.09,1.13.35,1.83.52,2.18.34.43,1.05.69,2.09.69h8.35ZM32.44,73.98v6.61l-3.57,2.96h3.57v1.48h-12.36v-.87l12.36-10.18h0ZM32.44,116.02v5.66l-.87.52.87.52v1.48l-1.82-1.13h-6.1c-1.31,0-2.09.17-2.44.6-.26.35-.52,1.13-.61,2.44h-.87v-11.49h.87c.09,1.3.35,2.09.52,2.35.44.52,1.22.7,2.52.7h4.87l3.04-1.65h0ZM32.44,136.83v1.39l-4-1.57v6.44l4-1.65v5.48l-6.35,2.7c-1.92.78-3.14,1.39-3.65,1.74-.61.52-.96,1.13-.96,1.83h-.87v-10.71h.87c0,1.04.09,1.74.26,2.09.17.35.52.61,1.05.61.43,0,1.13-.26,2.09-.61.44-.17,1.22-.44,2.26-.96v-7.4c-1.22-.52-2.18-.87-2.87-1.13-.7-.26-1.13-.35-1.4-.35-.52,0-.96.26-1.13.87-.17.44-.26,1.05-.26,1.83h-.87v-6.7h.87c.09.78.52,1.48,1.05,1.91.43.26,1.39.7,2.79,1.31l7.13,2.87h0ZM32.44,160.33v5.4h-7.92c-1.39,0-2.18.26-2.61.7-.26.35-.43,1.21-.43,2.52h-.87v-11.75h.87c0,1.22.18,2.09.43,2.44.43.52,1.22.69,2.61.69h7.92ZM32.44,195.68v10.88c-.34.52-.78.96-1.3,1.31-1.22.96-2.61,1.48-4.18,1.48-1.74,0-3.31-.61-4.52-1.83-1.66-1.48-2.44-3.66-2.44-6.36,0-1.13.17-2.09.35-2.96.26-.87.52-1.83.78-2.7,0-.35-.09-.52-.26-.7-.26-.17-.52-.26-.87-.35v-.96h8.18v.96c-2,.43-3.57,1.13-4.79,2.09-1.48,1.22-2.26,2.79-2.26,4.7,0,1.3.35,2.35,1.04,3.05.7.7,1.57,1.13,2.61,1.13s1.83-.35,2.53-1.04c.35-.44.87-1.4,1.57-2.7l1.05-2.18c.79-1.65,1.65-2.96,2.52-3.83h0ZM32.44,215.87v11.49h-6v-.87c1.91-.17,3.31-.7,4-1.57.7-.78,1.04-2.09,1.04-3.83h-7.92c-.78,0-1.22.26-1.48.61-.26.35-.43,1.13-.43,2.18,0,2,.35,3.57,1.04,4.78.87,1.66,2.53,2.96,4.88,3.92v.96l-6.96-1.31v-19.32h.87c.09,1.13.26,1.83.43,2.18.35.52.96.78,1.92.78h8.62ZM32.44,239.46v1.48h-7.66c-1.22,0-2,.17-2.44.61-.43.44-.78,1.31-.87,2.53h-.87v-7.49h.87c.09,1.13.35,1.83.52,2.18.34.43,1.05.7,2.09.7h8.35ZM32.44,245.55v6.61l-3.57,2.96h3.57v1.48h-12.36v-.87l12.36-10.19h0ZM32.44,274.11v5.22h-4.35c-2.26,0-3.92.44-4.96,1.22-.96.78-1.48,1.91-1.48,3.57,0,2.52.87,4.18,2.78,5.14,1.04.52,2.52.78,4.35.78h3.66v1.4h-3.66c-1.13,0-2.26-.09-3.31-.35-1.39-.35-2.35-.87-3.04-1.48-.87-.78-1.48-1.83-1.92-3.13-.34-1.05-.52-2.18-.52-3.4,0-1.04.17-2.09.35-3.04.35-1.48.96-2.7,1.74-3.66.78-.79,1.48-1.4,2.18-1.66.87-.43,2.18-.61,3.83-.61h4.35ZM32.44,299.53v1.48l-7.66-.09c-1.22,0-2,.26-2.44.7-.43.35-.78,1.22-.87,2.44h-.87v-7.49h.87c.09,1.13.35,1.83.52,2.17.34.52,1.05.78,2.09.78h8.35ZM32.44,305.54v6.7l-3.57,2.87,3.57.09v1.48h-12.36v-.96l12.36-10.19h0ZM32.44,325.04v5.31h-8.62c-.96,0-1.57.35-1.92.87-.35.52-.43,1.22-.43,2.26h-.87v-11.58h.87c.09,1.4.35,2.26.7,2.61.35.35.87.53,1.65.53h8.62ZM32.44,341.58v5.65l-4.96,2,4.96,1.92v1.48l-12.36-4.87v-.87l12.36-5.31h0ZM32.44,364.12v11.58h-6v-.87c1.91-.17,3.31-.69,4-1.48.7-.87,1.04-2.18,1.04-3.92h-7.92c-.78,0-1.22.26-1.48.61-.26.43-.43,1.13-.43,2.17,0,2,.35,3.57,1.04,4.79.87,1.66,2.53,2.96,4.88,3.92v.96l-6.96-1.31v-19.41h.87c.09,1.13.26,1.92.43,2.18.35.52.96.79,1.92.79h8.62ZM32.44,386.84v5.4h-.34c0,1.48.09,2.7.34,3.57v5.22c-.34-.61-.6-1.39-.96-2.35l-9.4,6.7c-.26.17-.43.35-.52.61-.09.26-.09.43-.09.69h-.87v-6.79l10.36-6.79v-.87h-6.44c-1.22,0-2,.17-2.35.61-.35.35-.52,1.05-.7,2.26h-.87v-11.14h.87c.18,1.22.35,1.91.61,2.26.35.43,1.13.61,2.44.61h7.92ZM32.44,411.91v10.97c-.34.44-.78.87-1.3,1.31-1.22.96-2.61,1.4-4.18,1.4-1.74,0-3.31-.61-4.52-1.83-1.66-1.48-2.44-3.66-2.44-6.36,0-1.04.17-2.09.35-2.96.26-.87.52-1.83.78-2.7,0-.35-.09-.52-.26-.7-.26-.09-.52-.26-.87-.35v-.96h8.18v.96c-2,.43-3.57,1.13-4.79,2.09-1.48,1.21-2.26,2.78-2.26,4.7,0,1.31.35,2.35,1.04,3.05.7.79,1.57,1.13,2.61,1.13s1.83-.35,2.53-1.04c.35-.44.87-1.4,1.57-2.7l1.05-2.17c.79-1.65,1.65-2.96,2.52-3.83h0ZM32.44,432.37v5.4h-8.62c-.96,0-1.57.26-1.92.87-.35.43-.43,1.22-.43,2.26h-.87v-11.58h.87c.09,1.4.35,2.26.7,2.62.35.26.87.43,1.65.43h8.62ZM32.44,451.52v5.4h-7.92c-1.39,0-2.18.26-2.61.7-.26.35-.43,1.22-.43,2.52h-.87v-11.84h.87c0,1.31.18,2.17.43,2.52.43.52,1.22.7,2.61.7h7.92ZM30.18,189.15h-3.92v-11.4h3.92v11.4Z"/>
</svg>