<?xml version="1.0" encoding="UTF-8"?>
<svg id="_图层_1" data-name="图层 1" xmlns="http://www.w3.org/2000/svg" viewBox="0 0 400 170">
  <defs>
    <style>
      .cls-1 {
        fill: #00561f;
        fill-rule: evenodd;
      }
    </style>
  </defs>
  <g>
    <path class="cls-1" d="M356.84,28.38h0c.89,1.1,1.03,2.26,0,4.12v-4.12h0ZM356.84,43.76c1.78.48,4.53.55,4.94.82.75.41,1.44-.89.41-1.71-.34-.27-1.37-1.23-2.4-1.92-1.03-.62-2.2-1.3-2.95-1.92v-2.47c.89-.34,2.26-.48,3.77-.55,2.06-.21,4.6-2.13,6.38-1.58,1.72.55,3.02.34,5.49,6.18.34,1.03-.75,2.68-1.72,4.26-1.51,2.33-1.92,4.53-3.43,7.07-1.1,1.72-4.26,6.93-2.54,6.52,5.83-1.23,7.69-.96,10.91,1.92,2.13,1.92,4.19,3.09,4.39,5.28v.55c-.07.34-.14.82-.34,1.3-3.36,5.76-10.98,1.44-17.57,4.12-1.03,1.23-.62,3.43-3.29,4.25-.69.21-1.37.48-2.06.89v-9.95c2.26-.2,4.19-.34,5.35-.41,1.3-.14,1.92-1.51,1.03-2.13-.34-.21-2.95-.07-6.38.14v-14.89c1.3.14,2.13.14,2.54-.34.34-.48.41-1.44-.14-1.92-.69-.21-1.58-.41-2.4-.48v-3.02h0ZM356.84,83.28c1.72-.27,3.57-.55,5.35-.76,2.47-.27,3.91-1.65,4.87-.96,2.81,2.13,3.29,2.47,4.73,6.45,1.24,3.5-3.91,4.8-6.59,4.12-4.05-.96-5.15-1.51-8.37-1.17v-7.69ZM354.37,25.71c.96.82,1.85,1.92,2.47,2.68v4.12c-.55.89-1.37,1.99-2.47,3.29v-10.09h0ZM354.37,39.78c.69.48,1.3,1.09.89,2.74-.07.55.62.96,1.58,1.23v3.02c-.89-.07-1.65-.07-2.06,0-.21,0-.34.07-.41.14v-7.14h0ZM356.84,39.02c-.62-.41-1.03-.89-1.1-1.24-.14-.62.27-1.03,1.1-1.24v2.47h0ZM356.84,76.76c-.89.41-1.71,1.03-2.47,1.58v-11.26c.82-.14,1.65-.2,2.47-.27v9.95h0ZM354.37,83.49c.69,0,1.58-.14,2.47-.21v7.69c-.62.07-1.3.14-2.06.28-.14.07-.34.14-.41.27v-8.03h0ZM356.84,64.41c-.82.07-1.65.14-2.47.14v-6.72c.27,0,.48-.07.62-.21.41-.48,1.16-.82.55-1.51-.27-.34-.55-.48-1.17-.41v-6.66c.21.34,1.1.55,1.92.48h.55v14.89ZM346.55,33.26c.34-.14.62-.34.89-.62,1.99-2.06-.21-7.82,3.84-8.24,1.1-.07,2.13.55,3.09,1.3v10.09c-.27.28-.48.55-.75.82-.14.2-.41.34-.55,1.58.07.82.69,1.1,1.3,1.58v7.14c-.62.34-.27,1.3-.07,1.99,0,.07,0,.14.07.14v6.66c-.07,0-.14,0-.21.07-1.17.14-.89.48-1.23,1.51.07.27.82.55,1.44.55v6.72c-1.03.14-2.13.21-3.16.28-1.51.14-3.09.2-4.67.41v-4.94c.55.14,1.24.07,1.58-.21.82-.96.89-1.24-.07-1.58-.07.07-.48-.68-1.03-.07-.21.27-.34.48-.48.55v-10.02c.55-.34,1.03-.82,1.1-1.17.14-1.24.2-1.71-.83-1.51,0,.07-.07.07-.27.13v-13.17h0ZM354.37,78.34c-1.78,1.44-3.09,3.09-3.16,4.05-.07.96,1.23,1.17,3.16,1.1v8.03c-1.37,1.38,0,8.24-1.3,11.39-.96,2.47-2.33,5.35-3.64,7.27-.89,1.3-1.86,2.4-2.88,3.29v-45.29l1.44-.28c2.06-.34,4.25-.62,6.38-.82v11.26ZM337.91,31.13c1.58-.41,3.29-.27,4.12.41,1.37,1.24,3.09,2.33,4.53,1.72v13.17c-.14.07-.41.21-.55.62-.55,1.03-.75,1.23-.41,2.27.14.14.55-.07.96-.34v10.02c-.21.2-.21.27-.41.96,0,.14.21.28.41.34v4.94c-1.78.14-3.57.34-5.22.69-.69.21-2.06.28-3.22,1.03-.07,0-.14.07-.21.14v-7.75c1.3-.75,2.61-1.85,2.74-2.74.41-3.23.34-4.87-2.26-4.19-.07.14-.21.14-.48.21v-6.25c1.3-.75,2.95-2.47,3.22-4.05.34-3.16-.75-5.29-3.22-4.74v-6.45h0ZM346.55,113.48c-2.4,2.12-4.94,2.74-6.31,1.65-.48-.34-1.23-1.3-2.33-2.47v-9.26c2.13-.14,3.91-.41,4.32-1.17,1.44-2.47,1.3-4.94,1.03-7.89.07-1.17-1.58-.48-4.12-.75-.34-.07-.76-.07-1.24-.07v-7.2c.89-.07,1.71-.21,2.06-.69,1.17-1.23-1.17-2.61-.96-3.77.27-2.06,5.35-2.61,5.83-3.98.55-1.51,1.37-.69,1.58-2.54.21-1.65-3.7.14-5.35.62-1.17.34-2.19.48-3.16.75v-6.79c2.47-.55,5.35-1.1,8.65-1.71v45.29ZM319.79,65.92c1.17-.96.89-14.48.27-18.6-.82-2.06-1.03-4.87-.69-6.45.41-2.06,1.58-2.61,2.88-1.92,1.51.76,3.22,3.02,4.94,6.66,1.24,2.54-.14,2.13-.14,3.09-.07,4.6-.48,9.27-.55,12.35,0,1.85,2.54,2.06,2.95.96.41-7.55-.48-17.71.21-22.1.07-2.88-1.17-6.52,0-7.41,1.37-1.03,4.46-.34,5.83.34,1.1.55,1.1-1.31,1.85-1.58.21-.07.41-.14.55-.14v6.45h-.21c-.41.34-.28.89-.34,1.24-.27,2.81-.76,5.08-.69,7.75.2.21.69.07,1.24-.21v6.25c-.55.2-1.51.48-1.65,1.99-.21,2.81-1.85,2.81-.96,5.42.34.34,1.51-.07,2.61-.69v7.75c-.76.62-1.37,1.79-2.4,1.92-1.79.27-3.23.21-4.19.27-1.3.21-1.92.48-3.43.76-1.37.21-4.46.68-6.45,2.47-1.92,1.65-2.2,6.45-3.23,8.51-.89,1.71-1.78,3.36-2.54,4.8-.96,1.85-1.85,3.29-3.77,3.77-2.61.62-4.74-2.68-5.01-4.74v-.76c.82-3.02,1.44-5.49,1.71-8.23.14-1.78-.48-3.57-.27-5.08.2-1.44,1.17-2.06,1.85-2.88.76-.96,1.58-1.99,2.95-1.72,1.09.14,1.78,1.1,2.95,1.17,1.72.21,2.54-.48,3.71-1.44h0ZM337.91,112.66c-.82-.89-1.78-1.99-3.02-3.09-1.92-1.78-5.21-3.02-6.86-4.6-1.17-1.85,5.28-1.3,9.88-1.58v9.26h0ZM337.91,93.51v-7.2c-.76,0-1.65,0-2.33.07-4.39.55-9.95,0-14.14,1.09-4.39,1.17-3.43,3.02-1.37,4.94,1.03.96,1.37,1.65,4.19,3.09,2.68,1.31,9.26-1.79,13.66-1.99h0ZM337.91,76.7v-6.79c-2.2.55-3.98,1.1-5.22,1.65-1.17.55-4.6,2.54-5.77,3.22-2.81,1.65-2.19,2.95-.96,3.98,2.95,2.54,7.14,1.24,7.89.41,1.51-1.58,2.75-2.13,4.05-2.47Z"/>
    <path class="cls-1" d="M219.45,55.49c3.98.13,6.52-.28,6.45-1.03.21-3.23.21-8.78-.75-13.04-.55-2.13,1.1-3.5,2.26-4.18,2.95-1.72,3.71-2.54,5.35-2.33,2.88.41,5.01,2.26,7.07,4.87.96,1.44,1.72-.55.55,6.45-.62,3.64,0,3.91.48,4.46,1.65.61,3.36.14,5.83-.62,3.02-.89,4.05-5.56,10.09,1.51.82.89,1.44,2.13.34,3.57-1.3,1.78-4.39,2.74-7.89,4.67-4.53,2.61-11.94,3.02-10.84,6.31,3.09,7.82,11.53,19.01,22.65,26.77,2.88,1.99,6.31,3.64,10.23,4.73,5.7,1.51,10.5,2.74,7.69,4.19-4.32,2.2-20.32,4.81-24.77,2.4-4.67-2.54-18.53-24.57-21-28.89-.14-.21-.48-.27-.75.34-2.54,5.7-8.03,16.34-13.66,20.79-2.4,1.92-6.04.89-7.14.07-1.3-.96-9.4-2.74-10.7-5.28-.76-1.58.34-1.72,1.23-1.85,10.71-.41,12.15-3.57,14.62-5.49,6.59-5.08,7.62-13.86,6.73-14.2-9.81.96-13.18,2.13-16.26-1.51-6.11-12.15-1.17-14.21,4.53-13.45,2.88.34,6.73.76,7.69.76Z"/>
    <path class="cls-1" d="M121.05,67.16c1.16.34,2.19.96,3.23,3.02,2.88,4.6,1.71,10.5,2.54,14.14.69.48,2.61.14,4.74-.21,2.88-.48,5.97-1.03,5.83-1.79-.34-3.98.27-29.58-.34-33.07-.07-.41-.34-1.58-.41-1.92-1.3-5.9,4.26-7.62,5.97-7.41,2.88.28,8.72,5.76,7.82,8.24-1.51,2.54-1.65,9.81-1.72,16.81-.07,5.97-.14,11.73.14,13.93,0,1.85,7.35-.41,9.82-1.44,3.09-.55,2.47-10.43,5.08-12.22,1.3-.89,8.65.41,9.81,6.59.14,3.36-.82,7.75-1.65,11.87-.62,2.95-1.1,6.52-1.17,7.89-.14,1.37-5.83,7.21-7.75,8.51-2.95.75-3.91-6.31-3.91-10.09,0-2.06.07-2.75-.48-3.23-1.78-.14-6.31.62-8.99,2.06-1.44.75-1.92,2.88-3.91,3.22-7.62-.27-15.44,1.24-16.68,2.47-.69.62-4.32,3.78-4.94,4.6-.62.82-3.29,0-4.12.28-1.92.61-3.09-2.88-5.28-5.7-2.4-3.02-.75-4.8.62-7.96,1.51-3.64,2.06-10.09,1.72-14.34,0-2.27-.14-4.87,4.05-4.25Z"/>
    <path class="cls-1" d="M63.81,37.51c1.37.07,2.81.07,4.32-.07,2.68-.27,6.04-2.54,8.51-2.61,3.5,0,8.3,4.94,9.54,8.1.68,2.75-1.03,4.94-2.88,5.97l-1.72.41c-1.85,1.03-5.21,5.42-5.08,6.31-.07,1.3-.14,2.13,1.3,3.16.75,1.24-1.24,6.31-3.7,7.27-.76.41-1.37.82-3.3.82-2.33-.07-4.67.48-7,1.51v-13.59c1.1-.76,1.99-1.72,2.26-2.4,1.3-1.78,2.95-4.87,1.92-7.14-.96-.82-2.61-.89-4.19-.62v-7.14ZM40.89,44.17c2.2-1.3,3.77-2.06,6.31-2.95-.14-3.64-.62-7.55-.48-11.05,0-.75-.21-1.44-.48-1.92-1.51-3.09,1.92-7.07,6.79-8.23,1.37-.21,7.48,2.68,7.48,5.42-.14,3.91-.55,8.37-.21,11.81.89.07,2.13.2,3.5.27v7.14c-1.37.14-2.82.62-3.57,1.03-.89,1.37-1.37,9.88-.27,10.5,1.23.13,2.68-.48,3.84-1.37v13.59c-1.71.75-3.36,1.65-5.01,2.74-.21,12.28-1.17,23.81-1.58,36.03-.89,6.45-3.09,12.42-6.38,12.83-2.33-.21-4.6-5.35-4.74-13.52l-.48-33.56c-1.37.21-2.95.76-4.73,1.44v-11.6c1.37,0,2.2-.34,3.84-1.37,1.17-.68.82-8.1.41-9.4-.55-.75-1.51.34-1.78.55-.82.48-1.65.82-2.47,1.1v-9.47ZM32.65,48.01c1.44.48,2.47-.48,4.26-1.51,1.65-.96,2.88-1.72,3.98-2.33v9.47c-1.44.41-2.88.41-4.05,0-1.3-.55.07,8.51,1.58,8.92,1.1.14,1.85.21,2.47.21v11.6c-1.24.48-2.68,1.1-4.19,1.71-.75.62-1.37,1.24-2.06,2.06-.69.76-1.23,2.06-2.06,2.26-2.06.55-4.25.28-6.04-1.03-1.37-1.1-1.44-3.98-3.5-7-1.58-2.06-3.16-3.57-3.16-6.45,1.03-2.54,1.37-3.91,2.26-5.49.21-.69.34-1.44.48-2.61.28-3.02.69-5.49,1.79-8.3.82-1.58,5.01-4.19,8.23-1.51Z"/>
  </g>
  <path class="cls-1" d="M380,132.36v.61c-.48.14-.82.2-1.09.34-.21.14-.41.34-.62.68l-4.85,7.86v4.65c0,1.02.21,1.64.55,1.91.21.2.82.34,1.85.48v.62h-8.82v-.62c.96-.13,1.57-.27,1.85-.48.34-.28.48-.89.48-1.91v-3.69l-4.58-8.41c-.21-.27-.27-.48-.34-.55-.48-.55-1.03-.89-1.71-.89v-.61h8.48v.61c-.89,0-1.44.07-1.71.2-.2.07-.34.34-.34.68,0,.14.07.41.27.75.14.27.27.55.34.68l3.01,5.88,2.87-4.72c.21-.27.34-.61.55-1.03.27-.55.41-1.03.41-1.3,0-.48-.21-.75-.54-.89-.41-.14-.89-.27-1.57-.27v-.61h5.54ZM307.4,144.06v-3.49c.55-.13.96-.27,1.23-.48.76-.55,1.1-1.64,1.1-3.21,0-1.23-.27-2.19-.75-2.74-.34-.48-.89-.75-1.57-.82v-.96c2.12.07,3.69.48,4.85,1.16,1.23.75,1.78,1.85,1.78,3.28s-.48,2.46-1.44,3.21c-.55.41-1.37.82-2.53,1.16l5.13,7.25c.14.14.27.27.48.34.14.07.34.13.54.13v.62h-5.19l-3.62-5.47h0ZM357.17,148.91v.62h-9.09v-.62c1.03,0,1.64-.13,1.98-.41.34-.27.48-.89.48-1.98v-13.33c-1.23,0-2.19.21-2.87.61-1.1.69-1.78,1.91-1.98,3.69h-.75l.07-5.13h15.24v5.13h-.68c-.27-1.78-.89-3.01-1.98-3.69-.68-.41-1.64-.61-2.94-.61v13.33c0,1.09.21,1.71.55,1.98.27.28.96.41,1.98.41h0ZM342.4,148.91v.62h-8.89v-.62c1.1-.13,1.71-.34,1.98-.55.27-.27.41-.68.41-1.3v-12.24c0-.75-.27-1.23-.75-1.5-.35-.21-.89-.34-1.64-.34v-.61h8.89v.61c-.75,0-1.3.14-1.64.27-.55.27-.75.75-.75,1.57v12.24c0,.75.2,1.23.68,1.5.34.21.89.34,1.71.34h0ZM329.96,137.49h-.75c-.27-1.16-.82-2.19-1.5-3.01-.96-1.16-2.12-1.71-3.42-1.71-.75,0-1.37.2-1.91.61-.55.41-.82,1.03-.82,1.78,0,.68.14,1.23.48,1.64.41.34,1.09.82,2.12,1.37l3.76,1.85c.62.34,1.17.82,1.64,1.43.75.96,1.09,2.05,1.09,3.22,0,1.37-.41,2.53-1.37,3.48-1.16,1.23-2.81,1.85-4.93,1.85-.82,0-1.5-.07-2.19-.27-.68-.21-1.44-.41-2.12-.61-.2,0-.41.07-.48.27-.14.14-.21.34-.28.61h-.75v-6.29h.75c.28,1.57.82,2.74,1.57,3.69.89,1.16,2.12,1.78,3.63,1.78,1.02,0,1.78-.28,2.32-.82.55-.55.82-1.23.82-2.05,0-.75-.27-1.37-.75-1.85-.41-.34-1.09-.75-2.05-1.23l-1.71-.82c-1.91-.89-3.14-1.91-3.76-3.08-.41-.61-.62-1.44-.62-2.39,0-1.57.62-2.87,1.71-3.76,1.03-.82,2.32-1.23,3.89-1.23.82,0,1.64.14,2.53.41.89.27,1.37.48,1.44.48.34,0,.55-.14.68-.41.07-.14.14-.27.14-.48h.82v5.54ZM307.4,132.36v.96c-.21-.07-.48-.07-.75-.07-.61,0-1.03.07-1.23.2-.13.07-.27.41-.34.82v6.49c.96,0,1.71-.07,2.32-.21v3.49l-1.64-2.46h-.68v4.92c0,.96.21,1.57.48,1.84.27.21.89.41,1.78.55v.62h-8.55v-.62c.89-.13,1.5-.27,1.71-.48.34-.28.48-.89.48-1.91v-11.14c0-1.03-.2-1.71-.54-1.98-.27-.27-.82-.41-1.64-.41v-.61h8.62ZM121.93,149.52v-.62h.07v.62h-.07ZM121.93,137.49h.68c.21-1.78.89-3.01,1.98-3.69.68-.41,1.64-.61,2.87-.61v13.33c0,1.09-.13,1.71-.48,1.98-.34.28-.96.41-1.98.41v.62h9.09v-.62c-1.02,0-1.71-.13-1.98-.41-.34-.27-.55-.89-.55-1.98v-13.33c1.3,0,2.25.21,2.94.61,1.1.69,1.71,1.91,1.98,3.69h.68v-5.13h-15.25v5.13h0ZM281.35,132.98v-.61h14.63v5.13h-.68c-.21-1.71-.82-2.87-1.78-3.49-.82-.48-2.12-.75-3.97-.75-.75,0-1.3.07-1.5.2-.27.14-.34.48-.34.96v5.88c1.3,0,2.19-.21,2.8-.68.68-.55,1.09-1.57,1.3-3.08h.61v8.55h-.61c-.21-1.5-.55-2.53-1.17-3.08-.68-.55-1.64-.82-2.94-.82v6.15c0,.55.14.89.41,1.1.27.2.89.27,1.71.27,1.5,0,2.73-.27,3.62-.75,1.3-.68,2.26-1.91,3.01-3.69h.75l-1.03,5.26h-14.83v-.62c.82-.13,1.37-.2,1.64-.41.41-.2.55-.68.55-1.43v-12.24c0-.75-.2-1.3-.61-1.5-.34-.21-.89-.34-1.57-.34h0ZM279.16,132.36v.61c-.68.14-1.16.27-1.43.55-.28.27-.55.82-.89,1.57l-5.74,14.83h-.69l-6.5-15.18c-.34-.68-.61-1.16-.82-1.3-.27-.2-.69-.34-1.3-.48v-.61h8.48v.61c-.89,0-1.44.07-1.71.2-.34.14-.48.41-.48.89,0,.21.14.55.34,1.1.21.54.34.89.41,1.09l3.35,8,3.21-8.34c.14-.34.27-.68.34-.96.14-.34.2-.55.2-.75,0-.82-.75-1.23-2.19-1.23v-.61h5.4ZM260.16,148.91v.62h-8.89v-.62c1.03-.13,1.71-.34,1.98-.55.21-.27.34-.68.34-1.3v-12.24c0-.75-.21-1.23-.68-1.5-.34-.21-.89-.34-1.64-.34v-.61h8.89v.61c-.82,0-1.37.14-1.71.27-.48.27-.75.75-.75,1.57v12.24c0,.75.27,1.23.68,1.5.41.21.96.34,1.77.34h0ZM231.86,149.52v-.62c.82-.13,1.43-.27,1.64-.48.41-.28.55-.75.55-1.57v-12.03c-.61-.82-1.09-1.3-1.44-1.57-.27-.14-.48-.27-.68-.27v-.61h5.33l8.82,10.87.07-7.72c0-.82-.14-1.44-.41-1.85-.34-.41-1.03-.68-1.98-.68v-.61h5.47v.61c-.89.14-1.43.34-1.64.61-.21.27-.34.75-.34,1.43v14.9h-.75l-11.28-13.67v10.12c0,.89.14,1.51.48,1.85.27.34.96.55,1.92.68v.62h-5.74ZM229.87,132.36v.61c-.75.14-1.23.34-1.5.55-.27.27-.48.82-.48,1.64v8.07c0,.89-.07,1.78-.27,2.6-.28,1.03-.62,1.78-1.09,2.32-.62.62-1.44,1.09-2.39,1.44-.82.27-1.71.41-2.6.41s-1.64-.07-2.39-.27c-1.09-.27-2.05-.68-2.8-1.3-.62-.62-1.03-1.16-1.3-1.64-.27-.68-.41-1.71-.41-3.01v-8.41c0-1.03-.21-1.64-.55-1.91-.21-.2-.75-.34-1.57-.48v-.61h8.61v.61c-.96,0-1.57.14-1.85.34-.41.34-.61,1.02-.61,2.05v8.41c0,1.78.27,3.01.89,3.83.61.75,1.5,1.16,2.73,1.16,1.91,0,3.21-.75,3.97-2.12.34-.82.54-1.91.54-3.42v-7.72c0-.89-.14-1.5-.41-1.85-.34-.41-1.03-.68-2.05-.68v-.61h5.54ZM185.85,149.52v-.62c.89-.13,1.44-.27,1.71-.48.34-.28.55-.75.55-1.57v-12.03c-.68-.82-1.16-1.3-1.5-1.57-.2-.14-.41-.27-.68-.27v-.61h5.4l8.75,10.87.07-7.72c0-.82-.14-1.44-.41-1.85-.34-.41-.96-.68-1.91-.68v-.61h5.4v.61c-.82.14-1.37.34-1.64.61-.2.27-.34.75-.34,1.43v14.9h-.68l-11.28-13.67-.07,10.12c0,.89.21,1.51.48,1.85.34.34.96.55,1.92.68v.62h-5.74ZM167.67,132.98v-.61h14.63v5.13h-.62c-.27-1.71-.89-2.87-1.84-3.49-.75-.48-2.12-.75-3.97-.75-.75,0-1.23.07-1.44.2-.27.14-.41.48-.41.96v5.88c1.3,0,2.26-.21,2.8-.68.68-.55,1.16-1.57,1.3-3.08h.68v8.55h-.68c-.14-1.5-.55-2.53-1.16-3.08-.61-.55-1.57-.82-2.94-.82v6.15c0,.55.14.89.48,1.1.28.2.82.27,1.64.27,1.5,0,2.74-.27,3.69-.75,1.23-.68,2.26-1.91,3.01-3.69h.68l-1.03,5.26h-14.83v-.62c.89-.13,1.43-.2,1.71-.41.34-.2.55-.68.55-1.43v-12.24c0-.75-.21-1.3-.68-1.5-.27-.21-.82-.34-1.57-.34h0ZM164.18,137.49h-.68c-.34-1.16-.82-2.19-1.5-3.01-.96-1.16-2.12-1.71-3.49-1.71-.68,0-1.37.2-1.91.61-.48.41-.75,1.03-.75,1.78,0,.68.14,1.23.48,1.64.34.34,1.03.82,2.12,1.37l3.69,1.85c.68.34,1.23.82,1.71,1.43.75.96,1.09,2.05,1.09,3.22,0,1.37-.48,2.53-1.37,3.48-1.16,1.23-2.8,1.85-4.92,1.85-.82,0-1.57-.07-2.26-.27-.68-.21-1.37-.41-2.05-.61-.27,0-.34.07-.48.27-.07.14-.13.34-.2.61h-.75v-6.29h.75c.27,1.57.75,2.74,1.5,3.69.89,1.16,2.12,1.78,3.62,1.78.96,0,1.78-.28,2.32-.82.55-.55.82-1.23.82-2.05,0-.75-.27-1.37-.82-1.85-.34-.34-1.02-.75-2.05-1.23l-1.64-.82c-1.91-.89-3.15-1.91-3.76-3.08-.35-.61-.55-1.44-.55-2.39,0-1.57.55-2.87,1.64-3.76.96-.82,2.26-1.23,3.9-1.23.82,0,1.64.14,2.53.41.82.27,1.3.48,1.43.48.27,0,.55-.14.68-.41.07-.14.07-.27.14-.48h.75v5.54h0ZM149.55,142.21v2.94h-8.75v-2.94h8.75ZM121.93,132.36v5.13h-.07l.07-5.13h0ZM121.93,148.91c-.55-.07-.96-.27-1.3-.82-.34-.34-.75-1.3-1.37-2.74l-5.67-13.33h-.68l-1.1,2.67v2.87l2.46,5.95h-2.46v1.02h2.87c.34.82.61,1.44.75,1.71.27.75.41,1.3.41,1.64,0,.41-.14.68-.41.82-.27.14-.82.2-1.64.2v.62h8.14v-.62ZM111.81,134.69v2.87l-.07-.21-2.39,6.15h2.46v1.02h-2.87c-.34.96-.61,1.71-.82,2.19-.21.55-.27.89-.27,1.09,0,.41.27.68.68.89.34.14.82.2,1.37.2v.62h-4.79v-.75c.48-.14.89-.34,1.16-.75.21-.27.55-1.03,1.03-2.12l4.51-11.21h0ZM105.11,133.05v-.68h.41v.61c-.14.07-.27.07-.41.07ZM105.11,132.36v.68c-.27.14-.55.21-.75.27-.21.14-.41.34-.62.68l-4.78,7.86v4.65c0,1.02.13,1.64.48,1.91.2.2.82.34,1.84.48v.62h-8.82v-.62c.96-.13,1.57-.27,1.84-.48.34-.28.55-.89.55-1.91v-3.69l-4.65-8.41c-.2-.27-.27-.48-.34-.55-.48-.55-1.02-.89-1.71-.89v-.61h8.48v.61c-.89,0-1.43.07-1.64.2-.27.07-.41.34-.41.68,0,.14.07.41.27.75.14.27.27.55.34.68l3.08,5.88,2.8-4.72c.2-.27.34-.61.55-1.03.27-.55.41-1.03.41-1.3,0-.48-.21-.75-.55-.89-.34-.14-.89-.27-1.57-.27v-.61h5.19ZM105.11,148.77c-.07.07-.2.07-.34.13v.62h.34v-.75h0ZM54.45,149.52v-.62c.82-.13,1.37-.27,1.64-.48.34-.28.55-.75.55-1.57v-12.03c-.62-.82-1.16-1.3-1.44-1.57-.27-.14-.48-.27-.68-.27v-.61h5.33l8.82,10.87v-7.72c0-.82-.14-1.44-.41-1.85-.34-.41-.96-.68-1.92-.68v-.61h5.47v.61c-.89.14-1.44.34-1.64.61-.27.27-.34.75-.34,1.43v14.9h-.75l-11.28-13.67v10.12c0,.89.14,1.51.48,1.85.27.34.96.55,1.91.68v.62h-5.74ZM52.2,132.36v.61c-.75.14-1.23.34-1.5.55-.27.27-.48.82-.48,1.64v8.07c0,.89-.07,1.78-.27,2.6-.27,1.03-.62,1.78-1.1,2.32-.61.62-1.43,1.09-2.39,1.44-.82.27-1.71.41-2.6.41s-1.64-.07-2.39-.27c-1.09-.27-2.05-.68-2.81-1.3-.61-.62-1.03-1.16-1.3-1.64-.27-.68-.41-1.71-.41-3.01v-8.41c0-1.03-.21-1.64-.55-1.91-.21-.2-.75-.34-1.57-.48v-.61h8.61v.61c-.96,0-1.57.14-1.84.34-.41.34-.62,1.02-.62,2.05v8.41c0,1.78.27,3.01.89,3.83.62.75,1.51,1.16,2.74,1.16,1.91,0,3.21-.75,3.96-2.12.34-.82.55-1.91.55-3.42v-7.72c0-.89-.14-1.5-.41-1.85-.34-.41-1.02-.68-2.05-.68v-.61h5.54ZM31.35,137.49h-.68c-.34-1.16-.82-2.19-1.5-3.01-1.03-1.16-2.12-1.71-3.49-1.71-.68,0-1.37.2-1.91.61-.55.41-.82,1.03-.82,1.78,0,.68.21,1.23.55,1.64.34.34,1.03.82,2.12,1.37l3.69,1.85c.68.34,1.23.82,1.71,1.43.75.96,1.09,2.05,1.09,3.22,0,1.37-.48,2.53-1.37,3.48-1.16,1.23-2.8,1.85-4.92,1.85-.82,0-1.57-.07-2.26-.27-.68-.21-1.37-.41-2.05-.61-.27,0-.41.07-.55.27-.07.14-.21.34-.21.61h-.75v-6.29h.75c.27,1.57.82,2.74,1.51,3.69.96,1.16,2.19,1.78,3.69,1.78.96,0,1.78-.28,2.32-.82.55-.55.82-1.23.82-2.05,0-.75-.27-1.37-.82-1.85-.34-.34-1.03-.75-2.05-1.23l-1.71-.82c-1.85-.89-3.08-1.91-3.76-3.08-.34-.61-.55-1.44-.55-2.39,0-1.57.55-2.87,1.71-3.76.96-.82,2.25-1.23,3.9-1.23.82,0,1.64.14,2.53.41.82.27,1.3.48,1.44.48.27,0,.55-.14.62-.41.07-.14.14-.27.2-.48h.75v5.54Z"/>
</svg>