<?xml version="1.0" encoding="UTF-8"?>
<svg id="_图层_1" data-name="图层 1" xmlns="http://www.w3.org/2000/svg" viewBox="0 0 280 876.73">
  <defs>
    <style>
      .cls-1 {
        fill-rule: evenodd;
      }

      .cls-1, .cls-2 {
        fill: #00561f;
      }
    </style>
  </defs>
  <g>
    <g>
      <path class="cls-1" d="M181.03,703.54h.1c1.34,1.66,1.55,3.4-.1,6.18v-6.18h0ZM181.03,726.4c2.67.73,6.79.93,7.41,1.24,1.14.62,2.16-1.34.62-2.47-.52-.52-2.07-1.85-3.61-2.88-1.55-1.03-3.2-1.96-4.43-2.89v-3.7c1.33-.42,3.4-.62,5.76-.83,2.99-.21,6.8-3.09,9.37-2.26,2.69.72,4.54.51,8.24,9.16.52,1.55-1.13,3.92-2.57,6.28-2.16,3.5-2.88,6.79-5.15,10.5-1.65,2.68-6.28,10.4-3.7,9.78,8.65-1.85,11.42-1.44,16.26,2.88,3.1,2.79,6.18,4.64,6.49,7.83v.82c-.1.61-.21,1.24-.41,1.95-5.04,8.65-16.37,2.17-26.15,6.18-1.65,1.85-1.03,5.04-5.05,6.28-1.03.31-2.06.82-3.09,1.34v-14.82c3.4-.21,6.29-.41,8.14-.62,1.85-.2,2.78-2.16,1.44-3.08-.52-.32-4.32-.21-9.57.1v-22.14c1.95.2,3.19.2,3.81-.52.62-.72.62-2.16-.2-2.78-1.03-.41-2.38-.61-3.61-.72v-4.63h0ZM181.03,785.31c2.58-.31,5.45-.73,8.04-1.03,3.6-.42,5.86-2.57,7.3-1.45,4.12,3.2,4.85,3.7,7.01,9.58,1.85,5.25-5.88,7.1-9.78,6.18-6.08-1.44-7.73-2.37-12.56-1.86v-11.43ZM177.43,699.53c1.44,1.34,2.78,2.88,3.6,4.01v6.18c-.71,1.34-1.96,2.89-3.6,4.85v-15.04h0ZM177.43,720.53c.93.72,1.84,1.65,1.34,4.11-.21.84.84,1.45,2.27,1.75v4.63c-1.23-.2-2.47-.2-3.09-.1-.21.1-.41.1-.52.21v-10.61h0ZM181.03,719.4c-.82-.62-1.43-1.23-1.55-1.86-.22-.92.41-1.44,1.55-1.85v3.7h0ZM181.03,775.62c-1.23.62-2.57,1.55-3.6,2.38v-16.79c1.23-.1,2.47-.31,3.6-.41v14.82h0ZM177.43,785.72c1.03-.1,2.37-.2,3.6-.41v11.43c-.82.1-1.85.31-2.99.52-.31,0-.51.1-.62.3v-11.84h0ZM181.03,757.2c-1.13.1-2.37.21-3.6.31v-10.1c.3,0,.72-.09.93-.3.62-.72,1.75-1.24.72-2.27-.31-.41-.72-.62-1.65-.51v-9.99c.3.52,1.65.83,2.89.73h.71v22.14ZM165.79,710.75c.41-.21.92-.52,1.34-.93,2.88-2.99-.31-11.64,5.66-12.25,1.65,0,3.2.82,4.64,1.96v15.04c-.42.41-.73.82-1.14,1.23-.2.31-.62.52-.82,2.37.1,1.23,1.03,1.65,1.96,2.37v10.61c-.92.61-.42,1.95-.1,2.98q0,.1.1.2v9.99h-.42c-1.54.2-1.22.72-1.74,2.27.1.4,1.24.81,2.16.81v10.1c-1.54.1-3.19.2-4.74.31-2.27.21-4.63.41-6.9.62v-7.31c.72.1,1.85.1,2.26-.31,1.34-1.44,1.44-1.85-.1-2.37-.11.1-.62-1.04-1.44-.1-.31.41-.51.72-.72.82v-14.93c.72-.52,1.54-1.23,1.64-1.74.21-1.85.31-2.57-1.23-2.16,0,0-.2,0-.41.1v-19.67h0ZM177.43,778c-2.68,2.15-4.64,4.52-4.74,5.97,0,1.54,1.85,1.85,4.74,1.75v11.84c-2.06,2.17-.1,12.36-1.96,17.1-1.44,3.6-3.51,7.82-5.36,10.71-1.35,2.06-2.78,3.7-4.32,4.94v-67.44l2.05-.42c3.09-.51,6.39-.93,9.58-1.24v16.79ZM152.92,707.66c2.37-.62,4.84-.41,6.08.63,2.05,1.85,4.53,3.49,6.8,2.47v19.67c-.21.11-.62.31-.93.93-.72,1.54-1.03,1.85-.52,3.39.21.21.83-.1,1.45-.52v14.93c-.31.31-.31.41-.62,1.44,0,.21.31.42.62.52v7.31c-2.68.21-5.36.62-7.83,1.13-1.03.21-3.08.41-4.73,1.44-.1.11-.2.11-.31.21v-11.64c1.97-1.03,3.81-2.68,4.12-4.02.51-4.73.41-7.2-3.51-6.18,0,.11-.3.21-.61.32v-9.37c1.85-1.03,4.43-3.7,4.74-5.98.52-4.74-1.04-7.93-4.74-7.1v-9.58h0ZM165.79,830.3c-3.6,3.19-7.41,4.12-9.47,2.57-.72-.62-1.86-1.96-3.4-3.71v-13.8c3.19-.21,5.77-.62,6.38-1.75,2.17-3.71,1.97-7.32,1.55-11.74.1-1.75-2.26-.72-6.07-1.24-.62,0-1.24-.1-1.85,0v-10.81c1.34-.1,2.47-.3,3.09-.93,1.65-1.96-1.75-4.02-1.55-5.76.51-2.99,8.04-3.81,8.75-5.87.83-2.26,2.06-1.03,2.37-3.71.32-2.57-5.55.1-8.03.83-1.74.52-3.19.72-4.63,1.13v-10.09c3.6-.83,8.03-1.65,12.87-2.57v67.44ZM125.94,759.56c1.75-1.44,1.34-21.62.41-27.81-1.23-2.98-1.54-7.31-1.13-9.58.62-3.09,2.38-3.91,4.33-2.88,2.36,1.13,4.73,4.53,7.41,9.99,1.75,3.71-.21,3.19-.21,4.53-.1,6.9-.71,13.8-.82,18.43,0,2.78,3.7,3.09,4.33,1.44.62-11.32-.72-26.35.3-32.95.11-4.33-1.64-9.68,0-11.02,2.06-1.54,6.7-.62,8.76.52,1.65.83,1.54-1.95,2.77-2.36.31-.1.52-.21.83-.21v9.58c-.11,0-.21,0-.31.1-.61.41-.42,1.24-.52,1.75-.51,4.23-1.13,7.62-1.13,11.54.41.31,1.13.1,1.95-.31v9.37c-.83.2-2.27.71-2.47,2.88-.3,4.32-2.78,4.22-1.54,8.14.61.51,2.26-.11,4.01-1.14v11.64c-1.24.93-2.06,2.68-3.6,2.88-2.68.42-4.84.32-6.18.42-1.96.31-2.88.72-5.25,1.14-1.95.31-6.59,1.03-9.58,3.6-2.88,2.58-3.19,9.68-4.84,12.77-1.23,2.47-2.67,5.05-3.7,7.11-1.44,2.78-2.79,4.94-5.67,5.67-3.91.92-7.1-4.02-7.41-7.12v-1.03c1.23-4.53,2.16-8.24,2.57-12.25.22-2.78-.72-5.46-.51-7.72.31-2.06,1.75-2.99,2.78-4.22,1.23-1.33,2.37-2.99,4.43-2.57,1.65.31,2.67,1.65,4.43,1.86,2.47.21,3.81-.73,5.56-2.16h0ZM152.92,829.17c-1.24-1.44-2.77-2.99-4.54-4.74-2.89-2.57-7.83-4.44-10.3-6.8-1.65-2.68,7.93-1.95,14.83-2.26v13.8h0ZM152.92,800.65v-10.81c-1.14.1-2.47,0-3.5.1-6.59.83-14.83,0-21.11,1.65-6.49,1.75-5.15,4.42-2.06,7.31,1.54,1.44,2.06,2.57,6.28,4.63,4.02,1.96,13.8-2.67,20.39-2.88h0ZM152.92,775.52v-10.09c-3.29.82-5.97,1.55-7.82,2.46-1.76.83-6.8,3.71-8.55,4.74-4.22,2.57-3.3,4.44-1.44,5.98,4.32,3.71,10.61,1.85,11.74.62,2.26-2.37,4.12-3.19,6.07-3.71Z"/>
      <path class="cls-1" d="M138.2,598.92c5.87.11,9.67-.41,9.57-1.54.2-4.84.31-13.08-1.14-19.36-.82-3.29,1.55-5.25,3.41-6.38,4.31-2.57,5.45-3.71,7.92-3.39,4.33.61,7.52,3.29,10.51,7.2,1.45,2.16,2.58-.83.82,9.68-.82,5.36,0,5.77.72,6.59,2.48.93,5.06.21,8.75-.92,4.54-1.34,5.98-8.23,14.93,2.27,1.23,1.33,2.16,3.08.62,5.34-1.96,2.68-6.59,4.02-11.85,7.01-6.69,3.81-17.81,4.43-16.17,9.37,4.64,11.54,17.22,28.32,33.78,39.86,4.23,2.88,9.37,5.36,15.24,7,8.55,2.37,15.65,4.12,11.42,6.28-6.38,3.3-30.27,7.1-36.96,3.5-6.9-3.71-27.59-36.56-31.2-43.05-.2-.3-.82-.3-1.14.62-3.81,8.45-12.05,24.31-20.28,30.89-3.71,2.89-9.06,1.45-10.71.11-1.96-1.44-14-4.12-15.96-7.83-1.02-2.37.53-2.57,1.85-2.78,15.96-.62,18.13-5.25,21.82-8.14,9.8-7.62,11.23-20.69,9.99-21.21-14.61,1.44-19.67,3.2-24.3-2.26-8.96-18.12-1.65-21.11,6.79-20.08,4.22.63,10,1.13,11.54,1.23Z"/>
      <path class="cls-1" d="M126.97,494.41c1.75.52,3.29,1.44,4.73,4.42,4.33,7,2.57,15.66,3.81,21.11,1.14.62,3.91.1,7.1-.41,4.23-.72,8.86-1.55,8.75-2.68-.62-5.76.31-43.97-.51-49.22-.21-.52-.52-2.27-.71-2.78-1.86-8.76,6.38-11.32,8.85-11.13,4.32.51,12.97,8.65,11.74,12.26-2.27,3.91-2.47,14.72-2.57,25.12,0,8.96-.21,17.51.21,20.81,0,2.68,11.01-.62,14.72-2.17,4.63-.82,3.7-15.55,7.62-18.22,1.85-1.34,12.87.62,14.52,9.78.31,5.04-1.24,11.53-2.47,17.71-.82,4.33-1.54,9.69-1.65,11.64-.2,2.06-8.65,10.81-11.53,12.77-4.54,1.13-5.88-9.47-5.88-15.14,0-2.99.1-4.02-.72-4.74-2.67-.2-9.47.93-13.49,3.09-2.17,1.13-2.89,4.22-5.78,4.74-11.42-.42-23.06,1.95-24.9,3.7-1.03.92-6.4,5.56-7.32,6.9-.93,1.24-4.95-.11-6.19.3-2.88,1.03-4.62-4.21-7.92-8.44-3.5-4.43-1.02-7.1.93-11.85,2.37-5.46,3.09-14.93,2.57-21.31,0-3.3-.19-7.21,6.09-6.28Z"/>
      <path class="cls-1" d="M174.34,306.06c1.95.11,4.12.11,6.4,0,4.01-.51,9.05-3.91,12.65-4.02,5.26,0,12.47,7.41,14.21,12.15,1.04,4.12-1.43,7.31-4.32,8.86l-2.47.61c-2.78,1.55-7.81,8.14-7.62,9.38-.1,1.96-.1,3.3,1.96,4.74,1.23,1.85-1.85,9.37-5.46,10.81-1.13.61-2.17,1.24-4.94,1.24-3.4-.11-6.9.83-10.4,2.26v-20.17c1.65-1.24,2.88-2.68,3.39-3.61,1.97-2.68,4.33-7.21,2.89-10.71-1.44-1.13-3.91-1.24-6.28-.92v-10.61ZM140.15,315.95c3.29-1.85,5.66-2.99,9.37-4.33-.2-5.45-.93-11.22-.72-16.47.11-1.14-.31-2.16-.72-2.89-2.17-4.53,2.89-10.51,10.19-12.25,2.06-.31,11.12,4.01,11.12,8.13-.21,5.76-.82,12.36-.31,17.5,1.33.21,3.19.31,5.25.41v10.61c-2.16.3-4.22.92-5.36,1.55-1.23,2.05-2.05,14.82-.41,15.65,1.85.3,4.01-.73,5.76-1.95v20.17c-2.57,1.14-5.05,2.48-7.52,4.12-.21,18.34-1.75,35.43-2.37,53.65-1.24,9.69-4.53,18.54-9.48,19.16-3.49-.31-6.9-8.03-7-20.18l-.82-49.94c-1.96.31-4.33,1.03-7,2.06v-17.2c2.06,0,3.29-.52,5.76-2.06,1.65-1.03,1.14-12.05.62-14-.82-1.13-2.26.52-2.77.82-1.13.73-2.37,1.24-3.6,1.55v-14.11ZM127.9,321.82c2.16.62,3.7-.83,6.27-2.37,2.49-1.34,4.33-2.48,5.98-3.5v14.11c-2.17.62-4.22.62-6.07.1-1.86-.82.09,12.66,2.37,13.19,1.65.2,2.78.41,3.71.41v17.2c-1.85.72-3.91,1.65-6.18,2.57-1.13.92-2.16,1.86-3.19,3.09-1.03,1.13-1.75,3.09-2.99,3.4-3.08.72-6.38.31-9.06-1.54-2.05-1.65-2.05-5.87-5.15-10.51-2.37-2.99-4.74-5.25-4.74-9.47,1.53-3.81,2.06-5.87,3.41-8.24.3-1.03.5-2.16.72-3.91.3-4.42,1.03-8.13,2.67-12.36,1.24-2.37,7.42-6.28,12.26-2.16Z"/>
    </g>
    <path class="cls-1" d="M95.19,836.72h-.93c-.09-.72-.31-1.34-.5-1.65-.22-.41-.52-.73-1.04-1.03l-4.63-2.78v-1.85l.83.52c.41.3.92.62,1.54.82.93.41,1.65.72,2.07.72.73,0,1.13-.31,1.34-.93.32-.51.41-1.34.41-2.37h.93v8.55h0ZM88.08,815.31l4.01-2.16c.42-.2.72-.41.82-.52.93-.72,1.34-1.64,1.34-2.68h.93v13.18h-.93c0-1.34-.09-2.27-.2-2.68-.21-.3-.51-.51-1.14-.51-.2,0-.62.11-1.13.42-.51.2-.82.41-1.03.51l-2.68,1.34v-6.9h0ZM88.08,806.25v-1.24c2.36-.42,4.01-1.45,4.94-2.88.62-1.14.92-2.57.92-4.54h-5.86v-6.38h5.86c0-1.96-.31-3.4-.92-4.43-.93-1.54-2.58-2.58-4.94-2.99v-1.24l7.1.1v23.48l-7.1.1h0ZM88.08,774.94v-6.39h3.39c1.14,0,1.96-.31,2.38-1.14.21-.5.41-1.33.41-2.47h.93v13.69h-.93c0-1.13-.09-2.06-.41-2.57-.42-.72-1.13-1.13-2.38-1.13h-3.39ZM88.08,759.39v-1.34c1.44-.42,2.77-1.13,3.91-2.06,1.76-1.54,2.67-3.3,2.67-5.36,0-1.13-.31-2.16-1.02-2.99-.62-.83-1.55-1.23-2.68-1.23s-1.97.31-2.58.82c-.1.11-.2.21-.3.31v-5.35h0c2.57,0,4.52.82,5.97,2.57,1.13,1.55,1.76,3.5,1.76,6.07,0,1.24-.21,2.47-.62,3.82-.4,1.33-.62,2.16-.62,2.26,0,.51.21.82.62,1.02.1.11.42.21.62.32v1.13h-7.73ZM88.08,734.88v-6.69h.2c1.96,0,3.4-.42,4.23-1.13.92-.83,1.34-1.96,1.34-3.6,0-1.03-.09-1.65-.21-1.85-.21-.31-.73-.42-1.45-.52h-4.11v-6.39h2.57c1.54,0,2.58-.31,3.1-.82.3-.51.5-1.34.5-2.57h.93v12.57c0,3.6-.52,6.28-1.76,8.24-1.13,1.86-2.87,2.78-5.15,2.78h-.2ZM88.08,706.98v-1.13c2.27-.52,3.81-1.34,4.63-2.68.83-1.23,1.13-3.29,1.13-6.18,0-1.13-.09-1.85-.31-2.26-.21-.41-.72-.62-1.45-.62h-4.01v-6.28h3.39c1.14,0,1.96-.31,2.38-1.04.21-.51.41-1.34.41-2.47h.93v22.66h-7.1ZM88.08,701.52h.72v-1.04c-.21,0-.52-.1-.72-.1v1.14h0ZM88.08,676.29v-1.75l1.64.62c.63.31,1.13.51,1.55.61.41.11.82.21,1.13.21,1.23,0,1.85-1.13,1.85-3.4h.93v8.34h-.93c-.09-1.03-.41-1.75-.83-2.16-.41-.42-1.24-.83-2.37-1.34l-2.98-1.13h0ZM88.08,665.58v-6.7l3.39-1.44c1.14-.51,1.86-.93,2.17-1.34.21-.31.41-1.02.62-1.95h.93v13.19h-.93c0-1.34-.09-2.27-.31-2.79-.19-.41-.62-.61-1.34-.61-.31,0-.82.2-1.64.52-.83.3-1.44.51-1.75.62l-1.13.51h0ZM88.08,647.87v-6.28h3.39c1.14,0,1.96-.41,2.38-1.13.21-.52.41-1.44.41-2.58h.93v13.7h-.93c0-1.13-.09-1.96-.41-2.47-.42-.82-1.13-1.23-2.38-1.23h-3.39ZM88.08,631.71v-1.76h2.27c1.34,0,2.26-.2,2.89-.62.61-.51,1.02-1.55,1.02-2.98h.93v8.44h-.93c-.2-1.34-.5-2.27-.93-2.57-.42-.31-1.13-.51-2.27-.51h-2.98ZM88.08,622.12v-7.93l1.23-1.03h-1.23v-1.76h3.39c1.24-1.03,2.07-1.85,2.38-2.26.32-.42.41-.72.41-1.13h.93v8.34l-7.1,5.76h0ZM88.08,601.84v-1.65h2.27c1.34,0,2.37-.21,2.89-.72.61-.51,1.02-1.54,1.02-3.19h.93v8.65h-.93c-.2-1.14-.41-1.96-.83-2.37-.41-.41-1.34-.72-2.47-.72h-2.88ZM88.08,587.52v-6.17h2.57c1.44,0,2.48-.32,2.89-.83.31-.31.62-1.13.72-2.37h.93v13.17h-.93c0-1.43-.2-2.36-.5-2.88-.52-.62-1.56-.93-3.1-.93h-2.57ZM88.08,560.65v-1.65h2.27c1.34,0,2.26-.21,2.89-.62.61-.51,1.02-1.54,1.02-3.09h.93v8.44h-.93c-.2-1.33-.5-2.15-.93-2.47-.42-.41-1.13-.61-2.27-.61h-2.98ZM88.08,551.07v-7.93l1.23-.92h-1.23v-1.85h3.39c1.24-1.03,2.07-1.76,2.38-2.27.32-.3.41-.72.41-1.03h.93v8.24l-7.1,5.76h0ZM88.08,531.51v-1.13c2.27-.52,3.81-1.33,4.63-2.68.83-1.24,1.13-3.3,1.13-6.18,0-1.13-.09-1.96-.31-2.27-.21-.41-.72-.61-1.45-.61h-4.01v-6.18h3.39c1.14,0,1.96-.41,2.38-1.03.21-.52.41-1.34.41-2.47h.93v22.55h-7.1ZM88.08,526.05h.72v-1.03c-.21,0-.52-.1-.72-.1v1.13h0ZM88.08,503.6v-1.34c1.44-.51,2.77-1.13,3.91-2.16,1.76-1.45,2.67-3.2,2.67-5.26,0-1.13-.31-2.15-1.02-2.98-.62-.83-1.55-1.24-2.68-1.24s-1.97.31-2.58.83c-.1.1-.2.2-.3.31v-5.36h0c2.57,0,4.52.83,5.97,2.57,1.13,1.54,1.76,3.51,1.76,6.08,0,1.13-.21,2.47-.62,3.81-.4,1.33-.62,2.06-.62,2.26,0,.41.21.82.62,1.03.1.1.42.21.62.21v1.23h-7.73ZM88.08,461.8v-1.24c2.36-.4,4.01-1.44,4.94-2.87.62-1.14.92-2.58.92-4.53h-5.86v-6.39h5.86c0-1.95-.31-3.4-.92-4.42-.93-1.55-2.58-2.58-4.94-2.99v-1.24l7.1.1v23.48l-7.1.1h0ZM88.08,428.64v-7.51l7.73,3.08v1.13l-7.73,3.3h0ZM88.08,407.33v-1.86l.83.52c.41.31.92.61,1.54.82.93.52,1.65.72,2.07.72.73,0,1.13-.31,1.34-.93.32-.51.41-1.34.41-2.37h.93v8.55h-.93c-.09-.72-.31-1.34-.5-1.65-.22-.31-.52-.72-1.04-.92l-4.63-2.88h0ZM88.08,398.26v-6.9l4.01-2.16c.42-.21.72-.41.82-.51.93-.72,1.34-1.65,1.34-2.57h.93v13.07h-.93c0-1.34-.09-2.26-.2-2.58-.21-.41-.51-.61-1.14-.61-.2,0-.62.11-1.13.42-.51.2-.82.41-1.03.52l-2.68,1.34h0ZM88.08,357.69v-1.64h2.27c1.34,0,2.26-.21,2.89-.62.61-.52,1.02-1.54,1.02-3.09h.93v8.45h-.93c-.2-1.34-.5-2.17-.93-2.47-.42-.42-1.13-.62-2.27-.62h-2.98ZM88.08,348.11v-7.93l1.23-.92h-1.23v-1.86h3.39c1.24-1.02,2.07-1.75,2.38-2.26.32-.31.41-.72.41-1.03h.93v8.24l-7.1,5.76h0ZM88.08,327.52v-1.75h2.27c1.34,0,2.37-.2,2.89-.61.61-.52,1.02-1.66,1.02-3.19h.93v8.64h-.93c-.2-1.23-.41-1.96-.83-2.36-.41-.52-1.34-.73-2.47-.73h-2.88ZM88.08,313.21v-6.28h2.57c1.44,0,2.48-.2,2.89-.72.31-.3.62-1.12.72-2.47h.93v13.29h-.93c0-1.45-.2-2.47-.5-2.89-.52-.61-1.56-.92-3.1-.92h-2.57ZM88.08,298.38v-1.34c1.44-.51,2.77-1.13,3.91-2.15,1.76-1.45,2.67-3.19,2.67-5.26,0-1.13-.31-2.16-1.02-2.99-.62-.82-1.55-1.23-2.68-1.23s-1.97.3-2.58.82c-.1.1-.2.21-.3.31v-5.35h0c2.57,0,4.52.82,5.97,2.57,1.13,1.55,1.76,3.5,1.76,6.07,0,1.24-.21,2.46-.62,3.81-.4,1.34-.62,2.06-.62,2.26,0,.42.21.82.62,1.03.1.1.42.21.62.21v1.23h-7.73ZM88.08,831.26l-5.36-3.29v-1.75l5.36,3.19v1.85h0ZM82.72,818.29l5.36-2.99v6.9l-5.36,2.78v-6.69h0ZM88.08,281.19v5.35c-.51.61-1.13,1.54-1.75,2.88l-2.87,5.77c-.21.41-.42.72-.73,1.03v-12.87c.62-.62,1.13-1.03,1.76-1.34,1.03-.62,2.16-.82,3.6-.82h0ZM88.08,297.03v1.34h-.72v-1.13c.21,0,.52-.1.72-.21h0ZM88.08,306.92v6.28h-5.36v-6.28h5.36ZM88.08,325.77v1.75h-5.36v-1.75h5.36ZM88.08,337.4v1.86l-5.36-.11v-1.76h5.36ZM88.08,340.18v7.93l-5.36,4.33v-7.83l5.36-4.43h0ZM88.08,356.04v1.64h-5.36v-1.74l5.36.1h0ZM88.08,391.36v6.9l-5.36,2.78v-6.7l5.36-2.99h0ZM88.08,405.47v1.86l-5.36-3.3v-1.75l5.36,3.19h0ZM88.08,421.13v7.51l-5.36,2.26v-6.49l4.75-1.95-4.75-1.85v-1.65l5.36,2.17h0ZM88.08,438.11v1.24c-.21,0-.51-.11-.72-.11v-1.13h.72ZM88.08,446.76v6.39h-5.36v-6.39h5.36ZM88.08,460.55v1.24h-.72v-1.13c.21,0,.52-.11.72-.11h0ZM88.08,486.41v5.36c-.51.62-1.13,1.55-1.75,2.88l-2.87,5.77c-.21.42-.42.72-.73,1.03v-12.87c.62-.62,1.13-1.04,1.76-1.34,1.03-.62,2.16-.83,3.6-.83h0ZM88.08,502.26v1.34h-.72v-1.13c.21,0,.52-.1.72-.21h0ZM88.08,512.46v6.18h-5.15c0,2.05.41,3.5,1.13,4.32.83,1.03,2.17,1.65,4.02,1.96v1.13h-5.36v-13.59h5.36ZM88.08,530.38v1.13h-.72v-1.03c.21,0,.52-.1.72-.1h0ZM88.08,540.37v1.85l-5.36-.1v-1.75h5.36ZM88.08,543.14v7.93l-5.36,4.32v-7.83l5.36-4.43h0ZM88.08,559v1.65h-5.36v-1.75l5.36.1h0ZM88.08,581.35v6.17h-5.36v-6.17h5.36ZM88.08,600.19v1.65h-5.36v-1.65h5.36ZM88.08,611.41v1.76h-5.36v-1.76h5.36ZM88.08,614.19v7.93l-5.36,4.33v-7.92l5.36-4.33h0ZM88.08,629.95v1.76h-5.36v-1.76h5.36ZM88.08,641.59v6.28h-5.36v-6.28h5.36ZM88.08,658.89v6.7l-5.36,2.26v-6.69l5.36-2.27h0ZM88.08,674.54v1.75l-5.36-2.06v-1.75l5.36,2.06h0ZM88.08,687.83v6.28h-5.15c0,2.05.41,3.5,1.13,4.42.83.93,2.17,1.55,4.02,1.85v1.14h-5.36v-13.69h5.36ZM88.08,705.85v1.13h-.72v-1.04c.21,0,.52-.1.72-.1h0ZM88.08,714.7v6.39h-5.36v-6.39h5.36ZM88.08,728.19v6.69c-1.96-.11-3.5-.83-4.63-2.27-.21-.31-.52-.62-.73-1.13v-6.18c.21.52.42.93.62,1.24.83,1.03,2.38,1.65,4.75,1.65h0ZM88.08,742.2v5.35c-.51.62-1.13,1.55-1.75,2.89l-2.87,5.77c-.21.41-.42.72-.73,1.13v-12.97c.62-.51,1.13-1.04,1.76-1.34,1.03-.51,2.16-.82,3.6-.82h0ZM88.08,758.05v1.34h-.72v-1.13c.21,0,.52-.11.72-.21h0ZM88.08,768.56v6.39h-5.36v-6.39h5.36ZM88.08,782.56v1.24c-.21,0-.51-.1-.72-.1v-1.14h.72ZM88.08,791.21v6.38h-5.36v-6.38h5.36ZM88.08,805.01v1.24h-.72v-1.14c.21,0,.52-.09.72-.09ZM82.72,827.97l-2.16-1.34h-7.21c-1.54,0-2.47.2-2.89.72-.31.41-.61,1.34-.72,2.88h-1.03v-13.58h1.03c.11,1.54.41,2.47.63,2.78.51.62,1.44.82,2.98.82h5.77l3.6-1.96v6.69l-1.02.62,1.02.62v1.75h0ZM82.72,283.35v12.87c-.42.62-.92,1.13-1.54,1.65-1.44,1.03-3.09,1.64-4.95,1.64-2.05,0-3.91-.72-5.35-2.16-1.96-1.75-2.89-4.32-2.89-7.51,0-1.34.21-2.47.41-3.5.31-1.03.62-2.16.92-3.19,0-.41-.1-.62-.31-.83-.31-.21-.62-.31-1.03-.42v-1.13h9.67v1.13c-2.37.52-4.23,1.35-5.66,2.47-1.75,1.44-2.68,3.3-2.68,5.56,0,1.55.41,2.78,1.23,3.61.83.93,1.86,1.34,3.1,1.34s2.16-.42,2.99-1.24c.4-.51,1.02-1.65,1.85-3.19l1.23-2.57c.92-1.96,1.96-3.51,2.98-4.53h0ZM82.72,306.92v6.28h-5.15c-2.68,0-4.63.41-5.86,1.34-1.15.92-1.76,2.37-1.76,4.32,0,2.88,1.04,4.94,3.31,6.08,1.22.51,2.97.82,5.14.82h4.32v1.75h-4.32c-1.34,0-2.68-.21-3.91-.51-1.64-.3-2.77-.93-3.6-1.65-1.03-.92-1.76-2.16-2.26-3.7-.41-1.24-.62-2.58-.62-4.02,0-1.33.21-2.46.41-3.7.41-1.75,1.13-3.08,2.05-4.22.94-1.02,1.76-1.65,2.59-2.05,1.02-.42,2.57-.73,4.52-.73h5.15ZM82.72,337.4v1.76h-9.06c-1.44,0-2.37.21-2.88.72-.52.52-.93,1.55-1.04,2.99h-1.03v-8.85h1.03c.11,1.33.41,2.16.63,2.57.41.51,1.23.82,2.47.82h9.88ZM82.72,344.61v7.83l-4.21,3.51h4.21v1.74h-14.61v-1.03l14.61-12.05h0ZM82.72,394.35v6.7l-1.02.62,1.02.62v1.75l-2.16-1.33h-7.21c-1.54,0-2.47.19-2.89.71-.31.41-.61,1.34-.72,2.89h-1.03v-13.59h1.03c.11,1.55.41,2.46.63,2.78.51.62,1.44.82,2.98.82h5.77l3.6-1.96h0ZM82.72,418.96v1.65l-4.73-1.85v7.62l4.73-1.95v6.49l-7.52,3.2c-2.25.92-3.7,1.64-4.31,2.06-.73.62-1.14,1.33-1.14,2.16h-1.03v-12.67h1.03c0,1.24.11,2.06.31,2.47.21.42.62.72,1.24.72.52,0,1.34-.3,2.47-.72.51-.2,1.43-.51,2.68-1.13v-8.76c-1.44-.61-2.58-1.03-3.4-1.33-.83-.31-1.34-.42-1.65-.42-.62,0-1.14.31-1.35,1.03-.2.52-.31,1.24-.31,2.16h-1.03v-7.92h1.03c.11.92.63,1.76,1.24,2.27.51.31,1.64.82,3.29,1.54l8.44,3.4h0ZM82.72,446.76v6.39h-9.37c-1.64,0-2.57.31-3.09.82-.31.41-.52,1.44-.52,2.98h-1.03v-13.89h1.03c0,1.44.21,2.47.52,2.88.52.62,1.45.82,3.09.82h9.37ZM82.72,488.57v12.87c-.42.62-.92,1.13-1.54,1.54-1.44,1.14-3.09,1.75-4.95,1.75-2.05,0-3.91-.72-5.35-2.16-1.96-1.74-2.89-4.32-2.89-7.51,0-1.34.21-2.47.41-3.51.31-1.03.62-2.15.92-3.19,0-.41-.1-.61-.31-.83-.31-.2-.62-.3-1.03-.41v-1.13h9.67v1.13c-2.37.51-4.23,1.34-5.66,2.47-1.75,1.44-2.68,3.3-2.68,5.56,0,1.54.41,2.78,1.23,3.6.83.82,1.86,1.34,3.1,1.34s2.16-.41,2.99-1.24c.4-.52,1.02-1.66,1.85-3.2l1.23-2.58c.92-1.95,1.96-3.49,2.98-4.52h0ZM82.72,512.46v13.59h-7.1v-1.03c2.26-.21,3.91-.82,4.75-1.85.82-.93,1.23-2.47,1.23-4.53h-9.36c-.93,0-1.44.31-1.76.71-.31.41-.51,1.34-.51,2.58,0,2.36.42,4.22,1.24,5.66,1.04,1.96,2.99,3.5,5.76,4.63v1.14l-8.23-1.55v-22.86h1.03c.11,1.33.31,2.16.52,2.57.42.62,1.14.93,2.27.93h10.19ZM82.72,540.37v1.75h-9.06c-1.44,0-2.37.2-2.88.72-.52.52-.93,1.55-1.04,2.99h-1.03v-8.86h1.03c.11,1.33.41,2.16.63,2.57.41.51,1.23.83,2.47.83h9.88ZM82.72,547.57v7.83l-4.21,3.51h4.21v1.75h-14.61v-1.03l14.61-12.05h0ZM82.72,581.35v6.17h-5.15c-2.68,0-4.63.52-5.86,1.45-1.15.92-1.76,2.26-1.76,4.23,0,2.98,1.04,4.94,3.31,6.07,1.22.61,2.97.92,5.14.92h4.32v1.65h-4.32c-1.34,0-2.68-.1-3.91-.41-1.64-.41-2.77-1.03-3.6-1.75-1.03-.92-1.76-2.17-2.26-3.7-.41-1.24-.62-2.58-.62-4.02,0-1.24.21-2.47.41-3.6.41-1.75,1.13-3.19,2.05-4.32.94-.93,1.76-1.65,2.59-1.96,1.02-.51,2.57-.72,4.52-.72h5.15ZM82.72,611.41v1.76l-9.06-.1c-1.44,0-2.37.3-2.88.82-.52.41-.93,1.44-1.04,2.89h-1.03v-8.86h1.03c.11,1.34.41,2.17.63,2.57.41.62,1.23.93,2.47.93h9.88ZM82.72,618.52v7.92l-4.21,3.4,4.21.1v1.76h-14.61v-1.13l14.61-12.05h0ZM82.72,641.59v6.28h-10.19c-1.13,0-1.85.41-2.27,1.03-.41.62-.52,1.44-.52,2.68h-1.03v-13.7h1.03c.11,1.65.41,2.68.82,3.09.42.42,1.04.62,1.96.62h10.19ZM82.72,661.15v6.69l-5.87,2.37,5.87,2.27v1.75l-14.61-5.76v-1.04l14.61-6.28h0ZM82.72,687.83v13.69h-7.1v-1.04c2.26-.2,3.91-.82,4.75-1.75.82-1.03,1.23-2.58,1.23-4.63h-9.36c-.93,0-1.44.3-1.76.72-.31.51-.51,1.34-.51,2.57,0,2.37.42,4.22,1.24,5.65,1.04,1.97,2.99,3.51,5.76,4.64v1.14l-8.23-1.54v-22.97h1.03c.11,1.34.31,2.26.52,2.57.42.63,1.14.94,2.27.94h10.19ZM82.72,714.7v6.39h-.42c0,1.74.11,3.19.42,4.22v6.18c-.42-.72-.72-1.65-1.13-2.78l-11.12,7.93c-.31.2-.51.41-.61.72-.11.3-.11.52-.11.82h-1.03v-8.03l12.25-8.04v-1.03h-7.62c-1.44,0-2.36.21-2.78.72-.41.4-.62,1.23-.82,2.68h-1.03v-13.18h1.03c.21,1.44.41,2.27.72,2.68.42.51,1.35.72,2.89.72h9.37ZM82.72,744.36v12.97c-.42.52-.92,1.03-1.54,1.55-1.44,1.13-3.09,1.65-4.95,1.65-2.05,0-3.91-.72-5.35-2.16-1.96-1.75-2.89-4.33-2.89-7.52,0-1.23.21-2.47.41-3.5.31-1.03.62-2.16.92-3.19,0-.42-.1-.63-.31-.84-.31-.1-.62-.3-1.03-.41v-1.13h9.67v1.13c-2.37.51-4.23,1.34-5.66,2.47-1.75,1.44-2.68,3.29-2.68,5.55,0,1.55.41,2.79,1.23,3.61.83.92,1.86,1.34,3.1,1.34s2.16-.41,2.99-1.23c.4-.53,1.02-1.65,1.85-3.2l1.23-2.57c.92-1.96,1.96-3.5,2.98-4.53h0ZM82.72,768.56v6.39h-10.19c-1.13,0-1.85.3-2.27,1.02-.41.51-.52,1.44-.52,2.68h-1.03v-13.69h1.03c.11,1.66.41,2.68.82,3.1.42.3,1.04.51,1.96.51h10.19ZM82.72,791.21v6.38h-9.37c-1.64,0-2.57.31-3.09.83-.31.41-.52,1.44-.52,2.98h-1.03v-14h1.03c0,1.54.21,2.57.52,2.99.52.62,1.45.82,3.09.82h9.37ZM80.05,480.85h-4.63v-13.49h4.63v13.49Z"/>
  </g>
  <g>
    <path class="cls-1" d="M187.28,98.37v-4.37c-2.04-1.05-3.62-1.81-4.61-2.04-.47-.12-1.81-.29-2.28-.29-1.11-.17-1.23.29-1.11.88.29,1.28,1.69,1.81,2.1,1.75,1.28-.23,1.69.29,2.62.64.58.17,2.04.52,1.63.93-.47.47-.52.06-.99.35-.41.29-1.92-.58-2.45-.12-.29.29.06,1.17-.52,1.28-.35.06-.87-.46-1.34-.76-1.34-.76-2.74-2.1-4.08-2.68-1.46-.58-1.58.12-1.4,1.05.06.53,0,.76.47,1.75.52,1.05,3.44,1.58,4.49,2.63.64.59,1.23.76.93,1.05-.52.87-.99,1.58-1.92,1.93-.88.41-4.38-3.27-4.43-2.22.11.82.76,1.81.87,2.68.23,1.28.23,2.33.29,2.68.23.82,1.81,1.17,3.61.58.76-.29,1.69-.76,2.51-1.22,1.11-.64,2.28-3.21,2.92-2.86,1.52.82,1.58,1.11,2.69,2.45h0v-3.96c-1.17-.64-2.16-1.23-1.81-1.63.24-.29.93-.47,1.81-.47ZM180.34,87.7c.47,0,3.27-3.73,3.97-5.02.18-.76.76-1.57,1.11-1.92.59-.47.99-.35,1.23.06.29.53.23,1.52-.06,2.91-.18.93-.47.53-.64.82-.99,1.22-2.1,2.39-2.74,3.27-.41.46.23,1.05.58.87,1.16-1.4,2.45-3.27,3.5-4.61v3.91l-.06.06c-.7.76-1.11.41-1.46,1.28.06.23.88.41,1.52.41v3.09c-.35-.24-.76-.41-1.05-.58-.23-.12-.64-.35-1.11-.41-.35-.06-.82.18-1.17,0-.52-.29-.93-.58-1.22-.76-.35-.23-.59-.29-1.05-.52-.47-.23-1.4-.76-2.33-.7-.88.06-1.93,1.34-2.62,1.63-.64.29-1.23.58-1.75.82-.64.29-1.16.53-1.81.23-.93-.41-.7-2.1-.17-2.57.82-.64,1.51-1.17,2.16-1.87.41-.47.64-1.11.99-1.46.35-.35.76-.35,1.11-.41.41-.12.88-.23,1.17.12.29.29.29.7.58.99.41.41.76.41,1.34.35h0ZM187.28,100.48c.35.23.76.47,1.17.7.29.17.52.23.82.35v3.79c-.7.12-1.57-.35-1.98-.88v-3.96ZM189.26,98.72v-3.62c-.58-.35-1.11-.64-1.63-.94l-.35-.17v4.37c.52,0,1.17.06,1.63.29.12,0,.24.06.35.06h0ZM187.28,84.08c.41-.58.81-1.11,1.17-1.46.29-.35.58-.82.82-1.17v4.14c-.11.12-.17.23-.29.35.06.06.12.12.29.18v5.31c-.29.06-.23,0-.46.18-.06.12.23.41.46.47v1.98l-.11-.06c-.64-.41-1.29-.82-1.87-1.16v-3.09c.29,0,.58-.06.7-.23.76-.76,1.11-1.23.24-1.58-.06.06-.47-.35-.93.06v-3.91h0ZM191.42,95.52v-2.8c-.12-.12-.23-.35-.23-.41.12-.12.17-.18.23-.18v-3.44c-.23,0-.52-.06-.59-.12.18-.35.23-.35.59-.53h0v-2.74c-.06.11-.17.29-.35.41-.41.41-1.34.53-1.81.41v5.31l.06-.06c.29-.06.24.23.29.23.17.29.12.35-.29.47h-.06v1.98c.82.53,1.57,1.05,2.16,1.46ZM189.26,101.52c.35.12.64.17.7.41.35,1.16.41,1.34-.06,2.74-.12.41-.35.58-.64.64v-3.79h0ZM191.42,98.43c-.17-.12-.41-.18-.7-.23-.47.06-.82.64-1.46.52v-3.62c.82.53,1.63,1.05,2.16,1.4v1.93h0ZM189.26,81.46c.23-.47.47-.82.76-.82.52,0,1.11.64,1.4,1.11v2.1c-.06-.06-.17-.12-.29-.12-.18,0-.23.18-.29.23-.58.59-1.11,1.05-1.57,1.64v-4.14h0ZM191.42,81.75c.06.06.12.12.12.18.17.41.58-.12.87,0,.59.17,1.11.64,1.17,1.05.12.47.29.99.58,1.23v5.77c-.12-.06-.18-.12-.24-.18-.35-.18-.46.23-.58.47-.06.17.12.47.41.58.17.17.29.29.41.41v3.62c-.06.06-.06.18,0,.23v5.31c-.82-.58-1.63-1.46-2.74-1.98v-1.93c.18.05.29.18.41.23.35.23.82,0,.7-.35,0-.12-.47-.41-1.11-.87v-2.8c.12.06.18.12.29.12.18-.06.47,0,.47-.29-.06-.18-.06-.29-.35-.41-.17-.12-.29-.12-.41,0v-3.44c.18,0,.23-.06.29-.12.35-.29.47-.41.12-.58-.06.06-.12-.06-.41.06v-2.74c.41-.58.47-1.11,0-1.46v-2.1ZM194.16,95.11h.06c1.86.88,2.27,1.34,2.57,2.8.23,1.22.64,2.1-.35,2.8-.88.35-1.58.12-2.28-.29v-5.31ZM194.16,84.2c.18.17.41.23.7.17,1-.12,1.58-2.16,2.74-1.46.64.53.64,1.63.7,2.28,0,.81-.52,1.22-2.56,1.57-.12.06-.17,0-.52.35-.29.47.52.93-.29,1.63-.41.35,1.28,1.69,1.4,1.92.12.29.52.06.47-.4-.06-.12-.12-.59-.29-.99-.23-.7-.58-1.46-.41-1.75.18-.41.88,0,1.63.52.58.41,1.69.41,2.04.93.41.53.76.76.23,2.86-.12.35-.76.58-1.34.76-.93.35-1.46.88-2.39,1.23-.52.23-1.81.7-2.1,1.05v-3.62c.18.12.35.18.52.18.17-.06.41-.35.35-.52-.23-.35-.58-.7-.87-.93v-5.77h0Z"/>
    <path class="cls-1" d="M152.75,67.35c1.29.41,2.16.47,2.22.23.35-1.05.82-2.92.87-4.43.06-.76.7-1.05,1.17-1.17,1.11-.35,1.46-.52,1.98-.35.93.41,1.46,1.22,1.93,2.27.18.52.65-.06-.41,2.22-.46,1.11-.35,1.28-.17,1.52.47.35,1.05.29,1.98.29,1.11-.06,1.81-1.52,3.21,1.4.23.35.29.82-.18,1.22-.58.47-1.69.52-3.03.87-1.75.41-4.26-.06-4.2,1.11.35,2.92,2.22,7.35,5.25,10.91.76.93,1.81,1.81,3.03,2.51,1.75.99,3.21,1.81,2.16,2.04-1.63.35-7.17-.17-8.46-1.34-1.34-1.28-4.08-9.8-4.49-11.49-.06-.06-.18-.12-.3.06-1.34,1.69-4.14,4.78-6.35,5.77-.99.41-2.1-.23-2.39-.64-.35-.41-2.92-1.69-3.15-2.68-.06-.58.29-.52.58-.46,3.62.76,4.37-.18,5.37-.58,2.62-1.11,3.73-3.97,3.5-4.14-3.38-.58-4.61-.47-5.31-1.92-.99-4.61.82-4.84,2.68-4.14.93.41,2.16.88,2.51.93Z"/>
    <path class="cls-1" d="M112.86,76.68c.47-.06.88,0,1.46.47,1.58,1.05,2.04,3.09,2.8,4.14.29,0,.82-.35,1.46-.75.82-.59,1.75-1.17,1.58-1.4-.65-1.22-4.08-9.33-4.78-10.38-.06-.12-.29-.41-.35-.52-1.28-1.69.23-3.03.82-3.21.93-.29,3.56.58,3.61,1.51-.12.99.88,3.32,1.81,5.54.88,1.87,1.63,3.73,2.04,4.37.23.58,2.27-1.17,2.92-1.86.88-.58-.7-3.62-.12-4.55.23-.47,2.74-1.11,3.97.7.58,1.05.88,2.57,1.17,3.97.23.99.58,2.22.76,2.63.18.47-.81,3.09-1.22,3.79-.82.64-2.16-1.46-2.69-2.62-.29-.64-.35-.87-.58-.93-.58.18-1.93,1.11-2.56,1.93-.35.41-.23,1.17-.76,1.58-2.45.99-4.72,2.57-4.9,3.09-.12.29-.88,1.81-.93,2.16-.06.35-1.05.47-1.28.64-.53.53-1.34-.41-2.45-1.05-1.17-.58-.87-1.34-.93-2.56,0-1.34-.76-3.44-1.45-4.79-.35-.7-.76-1.51.64-1.86Z"/>
    <path class="cls-1" d="M84.75,92.31c.47-.23.52-.7.65-1.4.52-1.87.58-2.57,1.16-3.79-.93-.87-1.98-1.69-2.86-2.57-.17-.18-.41-.29-.58-.35-.58-.18-.93-.82-.93-1.57v-.24c0-.58.18-1.22.59-1.86.23-.35,2.45-1.17,3.09-.53.93.93,1.92,2.16,2.92,2.86.06-.06.17-.17.29-.23v7.76c-.12-.11-.23-.18-.29-.23-.35,0-.29.47-.29.64-.23.87-.7,1.52-1.28,1.86-.35.12.99,1.17,1.87,1.57v6.47c-.17-.06-.35-.12-.58-.17-.87-.06-1.63-.06-2.33-.76-.41-.87-.64-1.29-.82-1.86-.12-.23-.29-.47-.52-.76-.7-.76-1.22-1.46-1.63-2.45-.18-.58.18-2.21,1.57-2.39ZM89.07,82.63c.47-.41,1.05-.99,1.63-1.63.52-.76.82-2.1,1.34-2.74.12-.12.24-.18.35-.23v4.9c-.76.29-1.4,1.46-1.57,1.98.06.35.88,1.34,1.57,1.98v13.76c-.35.35-.82.64-1.28.7-.52.06-1.11-.41-2.04-.64v-6.47c.29.18.59.23.7.12.87-.7.99-.87,1.23-1.81.12-.35-1.23-1.63-1.93-2.16v-7.76ZM92.39,78.02c1.05-.64,3.03-.59,3.97-.18.88.47.99,1.46.76,2.16l-.23.53c-.23.7.06,2.56.29,2.74.29.35.53.58,1.11.46.47.06,1.28,1.81.93,2.62-.12.29-.17.59-.58,1.05-.99.93-1.57,2.45-1.87,3.96,3.03,3.03,5.66,6.01,8.57,9.1,1.4,1.75,2.33,3.73,1.63,4.61-.58.52-2.45-.12-4.49-2.04l-8.46-7.93c-.41.64-.82,1.69-1.34,2.92v1.05c.06.35.23.76.12,1.05-.12.18-.23.35-.41.52v-13.76c.41.41.82.7.93.64.7-.52.76-1.92.59-2.45-.17-.76-.52-1.87-1.34-2.22-.06.06-.12.06-.18.06v-4.9Z"/>
    <path class="cls-1" d="M140,40c-55.23,0-100,44.77-100,100s44.77,100,100,100,100-44.77,100-100-44.77-100-100-100ZM140,233.4c-51.58,0-93.4-41.82-93.4-93.4s41.82-93.4,93.4-93.4,93.4,41.82,93.4,93.4-41.82,93.4-93.4,93.4ZM140,49.31c-50.08,0-90.69,40.6-90.69,90.68s40.6,90.69,90.69,90.69,90.69-40.6,90.69-90.69-40.6-90.68-90.69-90.68ZM140,228.78c-49.04,0-88.78-39.75-88.78-88.78s39.75-88.78,88.78-88.78,88.78,39.75,88.78,88.78-39.75,88.78-88.78,88.78Z"/>
    <g>
      <path class="cls-2" d="M79.36,125.36l-4.96-1.29.13-.45c1.29.14,2.44-.09,3.42-.7.99-.61,1.62-1.39,1.89-2.35.21-.74.18-1.38-.09-1.93-.27-.55-.67-.89-1.18-1.04-.33-.09-.64-.1-.94-.02-.4.11-.84.35-1.3.72-.34.27-.99.94-1.95,2-1.34,1.49-2.48,2.42-3.41,2.81-.93.38-1.88.43-2.85.16-1.24-.35-2.16-1.14-2.78-2.35-.62-1.22-.71-2.56-.29-4.05.13-.47.3-.89.52-1.28.21-.39.54-.86.98-1.41.24-.31.4-.57.46-.8.05-.19.04-.41-.05-.66-.08-.25-.26-.49-.52-.7l.12-.4,5.58,1.59-.12.4c-1.66-.13-3.03.15-4.12.82-1.08.68-1.78,1.54-2.08,2.59-.23.81-.2,1.53.11,2.13.31.61.75,1,1.34,1.17.35.1.71.1,1.09.01.38-.09.77-.28,1.17-.58.4-.29.97-.85,1.72-1.68,1.04-1.16,1.88-1.96,2.51-2.42.63-.46,1.28-.76,1.95-.91.67-.15,1.34-.13,2.03.07,1.18.34,2.06,1.05,2.64,2.15.58,1.1.68,2.31.31,3.62-.14.48-.33.93-.57,1.35-.18.32-.46.69-.84,1.11-.38.42-.59.73-.65.93-.05.19-.04.35.05.5.09.14.34.32.75.54l-.09.33Z"/>
      <path class="cls-2" d="M78.66,125.72l-1.07,7.86-.42-.06.05-.39c.08-.59.08-1.01-.02-1.24-.1-.24-.24-.42-.45-.54-.2-.13-.74-.25-1.61-.36l-7.46-1.02c-1.36-.18-2.28-.21-2.75-.06-.47.15-.88.43-1.24.87-.36.43-.58,1.01-.68,1.73-.12.82-.02,1.55.27,2.18.29.63.74,1.13,1.36,1.51.61.38,1.72.68,3.34.9l6.21.85c.68.09,1.18.09,1.49-.01.31-.1.54-.26.68-.46.22-.31.37-.78.45-1.39l.41.06-.72,5.27-.42-.06.04-.31c.06-.43.02-.8-.11-1.1-.14-.31-.36-.55-.69-.72-.23-.13-.65-.24-1.27-.32l-5.78-.79c-1.79-.24-3.07-.54-3.83-.88-.76-.34-1.41-1.02-1.95-2.02-.54-1-.71-2.29-.49-3.88.18-1.32.5-2.31.94-2.98.62-.91,1.32-1.52,2.13-1.83.8-.3,1.84-.37,3.1-.19l7.46,1.02c.88.12,1.43.14,1.65.08.23-.07.42-.21.58-.44.16-.22.28-.66.36-1.3l.42.06Z"/>
      <path class="cls-2" d="M76.86,144.3l-9.14,8.06,6.6-.33c.92-.05,1.54-.21,1.85-.49.42-.39.6-1,.54-1.85l.42-.02.26,5.07-.42.02c-.12-.65-.25-1.07-.39-1.29-.14-.22-.37-.38-.67-.49-.3-.11-.82-.15-1.55-.11l-12.78.65-.02-.39,12.26-11.03-9.76.5c-.88.05-1.47.28-1.76.7-.29.42-.42.89-.4,1.41l.02.36-.42.02-.28-5.44.42-.02c.05.85.25,1.42.61,1.74.36.31.94.45,1.76.41l10.83-.55.39-.35c.39-.35.64-.65.76-.9.12-.26.17-.62.16-1.09l.42-.02.28,5.45Z"/>
      <path class="cls-2" d="M84.04,173.44l-.39.15c-.25-.45-.53-.75-.84-.92-.44-.23-1.46-.47-3.08-.71l-6.4-1.04-3.45,1.37c-.74.29-1.18.51-1.33.66-.15.15-.25.36-.29.65-.05.28,0,.61.16.99l.32.8-.39.15-3.18-8.02.39-.15.3.75c.17.42.37.72.62.91.17.14.4.22.68.23.2.01.66-.13,1.37-.41l2.87-1.14,4.79-5.79c.94-1.15,1.47-1.9,1.57-2.26.1-.36.07-.77-.1-1.23l.39-.16,2.72,6.85-.39.16-.12-.31c-.16-.41-.34-.68-.52-.8-.18-.12-.34-.15-.48-.1-.25.1-.78.63-1.57,1.6l-3.71,4.46,5.33.86c1.31.22,2.13.26,2.47.12.19-.08.31-.23.37-.46.08-.31.01-.79-.21-1.44l.39-.16,1.73,4.36Z"/>
      <path class="cls-2" d="M77.61,182.82l-2.95-4.56-1.61.27c-.53.09-.94.23-1.21.4-.36.23-.53.55-.52.96.01.24.21.71.59,1.41l-.35.23-2.78-4.29.35-.23c.37.42.81.68,1.31.77.51.09,1.39.04,2.66-.15l13.29-2.05.12.18-7.57,11.5c-.71,1.09-1.11,1.87-1.19,2.32-.06.34.03.72.25,1.14l-.35.23-4.04-6.24.35-.23.16.26c.32.5.62.81.89.92.19.07.38.05.57-.07.11-.07.22-.17.32-.28.05-.05.22-.3.53-.75l1.16-1.73ZM78.1,182.04l3.2-4.8-5.73.89,2.52,3.9Z"/>
      <path class="cls-2" d="M97.76,189.48l-3.02,2.87-.28-.3c.53-.84.85-1.51.94-2.01.1-.5.06-1.02-.11-1.57-.1-.3-.4-.71-.89-1.23l-.79-.83-8.59,8.17c-.57.54-.89.91-.98,1.11-.08.2-.09.44-.02.72.07.29.25.59.55.9l.35.37-.3.29-5.54-5.83.31-.29.35.37c.31.32.61.53.91.62.21.07.45.06.71-.04.19-.06.56-.36,1.12-.89l8.59-8.16-.76-.81c-.71-.75-1.39-1.14-2.03-1.18-.89-.06-1.81.25-2.75.9l-.3-.31,3.02-2.86,9.51,10Z"/>
      <path class="cls-2" d="M96.62,200.12l-4.4-3.41,1.21-1.56,4.4,3.41-1.21,1.56Z"/>
      <path class="cls-2" d="M110.52,197.34l-2.56,4.45-.4-.24c.48-1.21.56-2.37.23-3.49-.33-1.11-.92-1.93-1.77-2.45-.66-.4-1.29-.54-1.88-.42-.6.12-1.04.41-1.32.86-.18.29-.27.59-.27.9,0,.42.12.9.35,1.45.17.4.64,1.2,1.41,2.41,1.08,1.69,1.68,3.04,1.81,4.03.12.99-.08,1.92-.61,2.79-.67,1.1-1.67,1.78-3.01,2.05-1.34.27-2.66,0-3.98-.8-.41-.25-.78-.53-1.09-.84-.32-.31-.68-.75-1.1-1.32-.23-.32-.45-.54-.65-.66-.17-.1-.39-.14-.65-.13-.27.01-.54.12-.82.31l-.36-.22,3.02-4.96.36.22c-.56,1.57-.66,2.96-.3,4.19.37,1.22,1.02,2.12,1.95,2.69.72.44,1.42.59,2.09.46.67-.13,1.16-.46,1.48-.98.19-.31.29-.66.3-1.05.01-.39-.07-.82-.25-1.29-.18-.46-.57-1.17-1.16-2.1-.84-1.31-1.39-2.34-1.66-3.07-.27-.73-.39-1.44-.36-2.12.03-.68.23-1.33.6-1.94.64-1.04,1.56-1.7,2.78-1.97,1.22-.27,2.41-.05,3.58.66.43.26.81.56,1.14.91.26.26.54.63.85,1.11.31.47.55.77.73.87.17.1.33.13.49.09.16-.04.4-.24.72-.58l.29.18Z"/>
      <path class="cls-2" d="M115.33,200.84l-2.31,5.81.28.11c.91.36,1.67.34,2.31-.07.63-.41,1.23-1.14,1.78-2.21l.4.16-2.98,7.47-.4-.16c.24-.85.33-1.59.26-2.21-.06-.63-.24-1.1-.52-1.42-.29-.32-.77-.61-1.45-.89l-1.6,4.02c-.31.79-.47,1.28-.47,1.48,0,.21.06.4.2.58.14.18.41.36.82.52l.85.34c1.33.53,2.53.65,3.58.35,1.05-.3,2-1.01,2.86-2.13l.39.15-2.45,4.28-12.34-4.92.15-.39.48.19c.41.17.78.22,1.09.18.22-.03.43-.14.62-.34.14-.13.36-.56.64-1.28l3.74-9.39c.26-.64.4-1.05.42-1.21.03-.27-.03-.51-.16-.72-.19-.3-.51-.55-.98-.73l-.47-.19.15-.39,11.95,4.76-1.68,4.22-.4-.16c.21-1.11.22-1.97.03-2.56-.19-.6-.58-1.13-1.17-1.61-.34-.28-1.05-.64-2.13-1.07l-1.47-.59Z"/>
      <path class="cls-2" d="M127.37,203.81l5.75,10.73,1.18-6.5c.16-.91.15-1.54-.05-1.91-.28-.5-.84-.82-1.68-.95l.08-.41,5,.91-.08.41c-.65-.03-1.1,0-1.35.09-.24.09-.45.27-.63.54-.18.27-.33.76-.46,1.48l-2.29,12.59-.38-.07-7.93-14.44-1.75,9.61c-.16.87-.07,1.5.27,1.87.34.38.77.61,1.28.71l.36.06-.08.41-5.36-.98.08-.41c.83.14,1.45.08,1.83-.2.39-.27.65-.81.8-1.62l1.94-10.67-.25-.46c-.25-.46-.48-.78-.7-.95-.22-.17-.56-.3-1.02-.4l.07-.41,5.36.98Z"/>
      <path class="cls-2" d="M142.08,205.69l7.85-1.16.06.42-.4.06c-.59.09-.99.21-1.19.36-.2.16-.34.35-.4.58-.06.23-.03.78.1,1.65l1.09,7.45c.2,1.36.44,2.25.7,2.66.27.41.66.73,1.18.95.51.22,1.13.28,1.85.17.82-.12,1.5-.41,2.02-.86.53-.46.89-1.03,1.08-1.72.19-.69.17-1.85-.07-3.46l-.91-6.2c-.1-.68-.24-1.15-.43-1.43-.18-.27-.39-.45-.63-.53-.36-.12-.85-.14-1.46-.05l-.06-.41,5.26-.77.06.41-.31.04c-.43.06-.77.2-1.03.42-.26.21-.43.5-.5.87-.06.25-.05.69.04,1.31l.85,5.78c.26,1.79.34,3.1.22,3.92-.12.83-.58,1.64-1.4,2.44-.82.8-2.01,1.32-3.59,1.55-1.32.19-2.36.17-3.13-.08-1.05-.33-1.83-.84-2.34-1.53-.51-.69-.86-1.67-1.05-2.93l-1.09-7.45c-.13-.87-.26-1.41-.39-1.61-.13-.2-.32-.34-.58-.44-.26-.09-.71-.09-1.35.02l-.06-.41Z"/>
      <path class="cls-2" d="M161.46,201.85l10.39,6.36-2.26-6.21c-.32-.87-.66-1.41-1.01-1.62-.49-.29-1.14-.28-1.93.03l-.15-.39,4.77-1.74.14.39c-.58.3-.95.55-1.12.75-.16.2-.25.46-.27.79-.01.32.1.83.35,1.51l4.38,12.03-.36.13-14.15-8.47,3.35,9.18c.3.83.7,1.32,1.18,1.48.49.15.98.14,1.46-.04l.34-.13.14.39-5.12,1.87-.14-.4c.79-.3,1.29-.66,1.48-1.09.2-.43.15-1.03-.13-1.8l-3.71-10.19-.45-.27c-.45-.27-.81-.43-1.09-.46-.28-.03-.64.02-1.09.17l-.15-.4,5.13-1.87Z"/>
      <path class="cls-2" d="M185.42,207.08l.21.37-6.98,3.98-.21-.37.44-.25c.39-.22.66-.47.82-.74.12-.19.16-.42.13-.69-.02-.2-.22-.63-.6-1.3l-5-8.79c-.39-.68-.67-1.09-.84-1.22-.17-.13-.4-.2-.69-.2-.29,0-.63.1-1,.31l-.44.25-.21-.36,6.98-3.98.21.37-.44.25c-.39.22-.66.47-.82.74-.12.19-.16.42-.13.7.02.2.22.63.6,1.3l5.01,8.78c.39.69.67,1.09.84,1.22.17.13.41.19.7.2.29,0,.63-.1,1-.32l.44-.25Z"/>
      <path class="cls-2" d="M190.03,184.51l.27.32c-.37.43-.57.98-.58,1.64,0,.49.2,1.48.61,2.96l3.43,12.41-.29.24-11.86-6.03c-1.43-.73-2.31-1.12-2.64-1.18-.33-.06-.75.07-1.25.4l-.27-.32,5.67-4.71.27.32-.19.16c-.51.42-.81.78-.89,1.06-.06.2-.02.38.12.55.09.1.21.21.38.31.16.1.64.36,1.42.76l7.41,3.79-2.02-7.18c-.25-.86-.43-1.43-.54-1.7-.11-.27-.23-.48-.36-.63-.15-.17-.32-.29-.52-.35-.2-.06-.42-.04-.66.04-.34.11-.71.33-1.12.68l-.27-.32,3.88-3.22Z"/>
      <path class="cls-2" d="M193.05,181.47l5.02,3.73.18-.25c.58-.78.75-1.53.52-2.25-.23-.72-.79-1.48-1.68-2.29l.26-.35,6.46,4.79-.26.35c-.76-.45-1.45-.72-2.07-.82-.62-.1-1.12-.05-1.51.14-.39.19-.8.58-1.23,1.17l3.48,2.58c.68.5,1.12.78,1.31.84.19.05.4.04.61-.05.21-.09.45-.3.71-.66l.54-.74c.86-1.15,1.28-2.28,1.25-3.37-.02-1.09-.46-2.19-1.33-3.31l.25-.34,3.51,3.46-7.91,10.67-.34-.25.3-.41c.26-.36.42-.69.45-1.01.03-.22-.02-.45-.17-.69-.1-.17-.45-.49-1.07-.95l-8.12-6.02c-.56-.41-.91-.65-1.06-.72-.26-.1-.51-.11-.74-.03-.34.1-.66.36-.96.76l-.3.41-.34-.25,7.66-10.33,3.65,2.71-.26.35c-1.02-.49-1.85-.71-2.47-.68-.62.03-1.24.27-1.86.72-.36.26-.89.85-1.58,1.79l-.94,1.28Z"/>
      <path class="cls-2" d="M206.84,172.92l4,1.59c.77.31,1.28.45,1.51.44.24-.02.46-.12.68-.31.22-.19.45-.61.71-1.27l.39.15-2.91,7.31-.39-.16c.26-.66.38-1.13.35-1.42-.03-.28-.12-.51-.28-.68-.16-.17-.62-.41-1.4-.72l-9.27-3.68c-.77-.31-1.28-.45-1.52-.44-.24.01-.46.12-.68.31-.21.19-.45.61-.71,1.27l-.39-.16,2.64-6.64c.69-1.73,1.31-2.94,1.87-3.65.56-.71,1.26-1.18,2.1-1.43.84-.25,1.7-.2,2.56.14,1.05.42,1.77,1.14,2.16,2.18.24.66.3,1.46.17,2.42l6.2-1.51c.81-.2,1.32-.37,1.55-.49.33-.2.58-.49.76-.86l.39.16-1.79,4.5-8.34,2.02-.37.94ZM199.84,170.14l6.25,2.49.24-.6c.39-.97.59-1.74.6-2.3.01-.56-.16-1.07-.51-1.53-.36-.46-.91-.84-1.66-1.14-1.09-.43-1.99-.5-2.72-.19-.72.3-1.31,1.02-1.76,2.15l-.45,1.13Z"/>
      <path class="cls-2" d="M203.45,151.82l5.07.72-.08.46c-1.3,0-2.41.37-3.32,1.08-.91.72-1.45,1.57-1.61,2.55-.13.76-.02,1.4.31,1.91.34.51.76.81,1.29.9.34.06.65.03.93-.09.39-.16.79-.45,1.21-.87.3-.31.88-1.05,1.71-2.21,1.17-1.63,2.19-2.69,3.07-3.18.88-.48,1.82-.64,2.81-.47,1.27.21,2.28.89,3.02,2.03.75,1.14,1,2.47.74,3.99-.08.48-.2.92-.37,1.33-.17.41-.44.91-.82,1.51-.21.34-.33.62-.37.85-.03.19,0,.41.12.65.11.24.31.45.59.64l-.07.42-5.72-.95.07-.41c1.67-.06,3-.49,4-1.28,1-.8,1.59-1.73,1.77-2.82.14-.83.02-1.54-.35-2.11-.37-.57-.86-.91-1.46-1.01-.36-.06-.72-.02-1.09.11-.37.13-.73.37-1.1.71-.37.34-.88.96-1.52,1.86-.91,1.27-1.65,2.16-2.23,2.69-.58.53-1.19.9-1.83,1.13-.64.23-1.32.28-2.03.16-1.21-.2-2.16-.82-2.87-1.84-.7-1.03-.94-2.22-.72-3.57.08-.49.22-.96.42-1.4.15-.34.39-.73.71-1.2.33-.46.51-.79.54-1,.03-.19,0-.36-.1-.49-.1-.13-.37-.28-.81-.46l.05-.34Z"/>
      <path class="cls-2" d="M219.74,142.86h.42s-.12,8.04-.12,8.04h-.42s0-.52,0-.52c0-.45-.06-.81-.22-1.08-.1-.2-.28-.35-.54-.46-.18-.09-.66-.13-1.43-.14l-10.11-.15c-.79-.01-1.28.02-1.48.1-.2.08-.37.25-.52.5-.15.25-.23.59-.24,1.02v.51s-.43,0-.43,0l.12-8.04h.42s0,.52,0,.52c0,.45.07.81.22,1.08.1.2.28.35.54.47.18.09.66.14,1.43.14l10.11.15c.79.01,1.28-.03,1.48-.11.2-.09.37-.25.52-.5.15-.25.23-.59.24-1.02v-.51Z"/>
      <path class="cls-2" d="M203.97,128.52l4.13-.54.05.4c-.92.37-1.57.72-1.95,1.07-.38.35-.66.79-.84,1.33-.1.3-.1.81,0,1.52l.15,1.14,11.76-1.53c.78-.1,1.26-.21,1.44-.32.18-.11.33-.3.44-.57.11-.27.14-.62.09-1.06l-.07-.5.42-.06,1.04,7.98-.42.05-.07-.51c-.06-.44-.18-.79-.37-1.04-.13-.18-.33-.31-.6-.39-.19-.06-.67-.04-1.43.06l-11.76,1.53.14,1.1c.13,1.03.45,1.74.94,2.15.69.57,1.61.87,2.76.9l.06.43-4.12.54-1.79-13.69Z"/>
      <path class="cls-2" d="M199.35,112.43l.4-.12c.21.47.46.8.75,1,.41.27,1.41.6,2.99.99l6.28,1.63,3.57-1.04c.76-.22,1.22-.4,1.38-.53.16-.14.28-.34.35-.62.07-.28.05-.61-.06-1l-.24-.83.4-.12,2.42,8.28-.4.12-.22-.77c-.13-.44-.3-.76-.53-.97-.16-.16-.38-.26-.65-.29-.2-.03-.67.06-1.41.28l-2.96.87-5.31,5.32c-1.05,1.05-1.64,1.75-1.78,2.1-.14.35-.14.76-.01,1.23l-.4.12-2.07-7.07.4-.12.09.32c.12.43.27.71.45.84.17.14.33.18.47.14.26-.08.83-.56,1.72-1.44l4.1-4.09-5.22-1.35c-1.28-.34-2.1-.46-2.46-.36-.19.06-.33.2-.41.43-.11.3-.08.79.07,1.46l-.4.12-1.32-4.5Z"/>
    </g>
    <path class="cls-2" d="M140,137.93c-.38,0-.68.31-.68.69v5.48c0,.38.31.69.68.69s.69-.31.69-.69v-5.48c0-.38-.31-.69-.69-.69ZM162.24,113.54c-2.88-9.56-11.74-16.52-22.24-16.52s-19.36,6.96-22.24,16.52c-15.75.9-28.25,13.95-28.25,29.93s12.5,29.03,28.25,29.93c2.88,9.56,11.74,16.52,22.24,16.52s19.36-6.96,22.24-16.52c15.75-.9,28.25-13.96,28.25-29.93s-12.5-29.03-28.25-29.93ZM186.29,145.1c-.02.32-.04.63-.07.95-.02.15-.04.29-.05.44-.03.27-.06.55-.1.82-.02.16-.05.32-.08.48-.04.25-.08.5-.13.76-.03.17-.07.33-.11.5-.05.24-.11.48-.16.72-.04.17-.09.34-.14.5-.06.23-.12.46-.19.69-.05.17-.1.34-.16.5-.07.22-.15.45-.22.67-.06.17-.12.33-.18.5-.08.22-.17.43-.26.65-.07.16-.14.33-.21.49-.09.21-.19.42-.28.63-.08.16-.15.32-.23.48-.1.21-.21.41-.31.61-.08.16-.16.31-.25.47-.11.2-.23.4-.34.6-.09.15-.18.3-.27.45-.12.2-.25.39-.38.59-.09.14-.19.29-.28.43-.13.2-.27.39-.41.58-.1.13-.19.27-.29.41-.15.2-.31.39-.46.59-.09.12-.19.24-.29.36-.19.23-.38.45-.58.67-.07.08-.14.16-.21.24-.27.29-.54.58-.82.86-.11.11-.22.21-.33.32-.18.17-.35.35-.54.51-.13.12-.27.24-.41.35-.17.15-.33.29-.5.43-.15.12-.3.24-.44.36-.17.13-.33.26-.5.39-.16.12-.32.23-.48.35-.17.12-.33.24-.5.36-.16.11-.33.22-.5.33-.17.11-.34.22-.51.33-.17.11-.35.21-.52.31-.17.1-.34.2-.51.3-.18.1-.36.2-.54.29-.18.09-.35.18-.53.27-.19.09-.38.18-.57.27-.18.08-.35.16-.53.24-.19.09-.39.17-.58.25-.18.07-.36.14-.55.21-.2.08-.4.15-.6.23-.18.06-.37.13-.55.19-.21.07-.41.14-.62.2-.19.06-.37.11-.56.16-.21.06-.42.12-.64.17-.19.05-.37.09-.56.13-.22.05-.44.1-.66.14-.18.04-.37.07-.55.1-.23.04-.46.08-.68.12-.17.03-.35.04-.52.07-1.09.14-2.2.22-3.32.22-.54,0-1.07-.02-1.59-.05-.19,1.41-.53,2.78-1.01,4.08h0c-.09.23-.18.47-.28.7-.05.12-.1.25-.16.37-.06.13-.12.26-.18.39-.06.13-.12.25-.18.38-.06.13-.13.25-.19.38-.06.12-.13.24-.19.36-.08.15-.17.29-.25.44-.1.17-.2.34-.31.5-.08.14-.17.27-.26.41-.07.11-.15.22-.23.33-.08.12-.16.23-.25.35-.08.11-.16.21-.24.32-.09.12-.19.24-.28.36-.07.09-.15.19-.23.28-.16.2-.33.39-.5.57-.08.09-.16.17-.24.25-.11.12-.22.23-.33.35-.09.09-.17.18-.26.26-.11.11-.23.22-.34.33-.08.08-.17.16-.26.24-.16.15-.32.28-.49.43-.09.07-.17.14-.26.21-.16.13-.32.26-.49.38-.09.07-.18.13-.26.2-.14.1-.28.2-.42.3-.09.06-.18.12-.27.19-.16.11-.32.21-.48.31-.07.04-.14.09-.22.14-.23.14-.46.28-.7.41-.07.04-.15.08-.22.12-.18.09-.35.18-.53.27-.09.04-.18.09-.27.13-.17.08-.34.16-.52.24-.09.04-.17.08-.26.11-.25.11-.51.21-.77.3-.02,0-.04.01-.05.02-.25.09-.5.18-.76.25-.09.03-.17.05-.26.08-.19.06-.38.11-.58.16-.09.02-.18.05-.28.07-.21.05-.43.1-.65.15-.07.01-.13.03-.2.05-.28.05-.56.1-.85.15-.07.01-.14.02-.21.03-.22.03-.44.06-.67.08-.1.01-.19.02-.29.03-.21.02-.42.03-.63.05-.09,0-.18.01-.27.02-.3.01-.59.02-.89.02h0c-.3,0-.6,0-.89-.02-.09,0-.18-.01-.27-.02-.21-.01-.42-.03-.62-.05-.1-.01-.2-.02-.29-.03-.22-.02-.44-.05-.65-.08-.07-.01-.15-.02-.22-.03-.28-.04-.56-.09-.84-.15-.07-.02-.14-.03-.22-.05-.21-.04-.42-.09-.62-.14-.1-.03-.2-.05-.29-.08-.19-.05-.37-.1-.56-.16-.09-.03-.19-.05-.28-.08-.24-.07-.47-.16-.71-.24-.05-.02-.1-.04-.16-.06-.24-.09-.47-.18-.7-.28-.1-.04-.19-.08-.29-.12-.16-.07-.33-.14-.49-.22-.1-.05-.2-.1-.3-.15-.16-.08-.32-.16-.48-.25-.09-.05-.18-.09-.27-.14-.23-.13-.46-.25-.68-.39-.09-.05-.18-.11-.27-.17-.14-.09-.29-.18-.43-.28-.1-.07-.21-.14-.31-.21-.13-.09-.25-.18-.38-.27-.1-.07-.2-.15-.3-.22-.14-.1-.27-.21-.41-.32-.14-.11-.28-.23-.42-.35-.13-.11-.26-.22-.39-.34-.1-.09-.2-.19-.3-.28-.1-.09-.2-.19-.3-.28-.1-.1-.2-.2-.3-.3-.09-.1-.18-.19-.27-.29-.1-.1-.19-.2-.29-.31-.15-.16-.29-.32-.43-.49-.11-.13-.22-.27-.32-.4-.08-.1-.15-.19-.23-.29-.09-.12-.18-.24-.27-.36-.07-.1-.14-.19-.21-.29-.09-.13-.18-.25-.26-.38-.06-.1-.12-.19-.19-.29-.15-.24-.3-.49-.45-.74-.05-.09-.11-.18-.16-.28-.08-.14-.15-.28-.23-.42-.05-.1-.1-.2-.15-.3-.07-.14-.14-.29-.21-.43-.05-.1-.09-.21-.14-.3-.07-.15-.13-.3-.2-.45-.02-.04-.04-.09-.05-.13-.59-1.46-1.01-3.01-1.23-4.62-.53.03-1.06.05-1.59.05-1.14,0-2.26-.08-3.36-.23-.16-.02-.32-.04-.48-.06-.24-.04-.48-.08-.71-.12-.17-.03-.35-.06-.52-.09-.23-.05-.46-.1-.69-.15-.18-.04-.35-.08-.52-.12-.23-.06-.45-.12-.67-.18-.17-.05-.35-.1-.52-.15-.22-.07-.43-.14-.65-.21-.17-.06-.35-.11-.52-.17-.21-.08-.42-.16-.63-.24-.17-.06-.34-.13-.51-.2-.2-.09-.41-.17-.61-.26-.17-.07-.34-.15-.5-.23-.2-.09-.4-.19-.6-.29-.17-.08-.33-.17-.49-.25-.19-.1-.39-.21-.58-.31-.16-.09-.32-.18-.48-.28-.19-.11-.38-.22-.56-.34-.16-.1-.31-.2-.46-.3-.18-.12-.37-.24-.54-.36-.15-.1-.3-.21-.45-.32-.18-.13-.36-.25-.53-.39-.15-.11-.29-.22-.43-.34-.17-.14-.34-.27-.51-.41-.14-.12-.28-.24-.42-.36-.16-.14-.33-.28-.49-.43-.13-.12-.26-.25-.39-.38-.16-.15-.32-.3-.47-.45-.11-.11-.21-.22-.31-.33-.31-.32-.61-.65-.9-.98-.13-.14-.25-.29-.38-.44-.13-.16-.25-.32-.38-.48-.12-.16-.25-.31-.37-.47-.12-.16-.24-.33-.36-.49-.12-.16-.24-.32-.35-.49-.11-.17-.22-.33-.33-.5-.11-.17-.22-.34-.33-.51-.1-.17-.21-.34-.31-.52-.1-.18-.21-.35-.3-.53-.1-.18-.19-.35-.28-.53-.09-.18-.19-.36-.28-.55-.09-.18-.17-.36-.26-.54-.09-.19-.17-.38-.26-.57-.08-.18-.16-.37-.23-.55-.08-.19-.16-.39-.23-.58-.07-.19-.14-.37-.21-.56-.07-.2-.14-.4-.2-.6-.06-.19-.12-.38-.18-.57-.06-.2-.12-.41-.17-.62-.05-.19-.11-.38-.15-.58-.05-.21-.1-.42-.15-.63-.04-.19-.09-.39-.13-.58-.04-.22-.08-.44-.12-.65-.03-.19-.07-.39-.1-.58-.03-.23-.06-.46-.09-.69-.02-.19-.05-.38-.07-.57-.02-.25-.04-.5-.06-.75-.01-.18-.03-.35-.04-.53-.02-.33-.02-.67-.02-1,0-.09,0-.19,0-.28s0-.19,0-.28c0-.34,0-.67.02-1,.01-.18.03-.35.04-.53.02-.25.03-.5.06-.75.02-.19.05-.38.07-.57.03-.23.05-.46.09-.69.03-.19.06-.39.1-.58.04-.22.08-.44.12-.66.04-.19.08-.39.13-.58.05-.21.09-.42.15-.63.05-.19.1-.39.15-.58.06-.21.11-.41.17-.62.06-.19.12-.38.18-.57.07-.2.13-.4.2-.6.06-.19.14-.38.21-.56.07-.19.15-.39.23-.58.08-.18.15-.37.23-.55.08-.19.17-.38.26-.56.09-.18.17-.36.26-.54.09-.18.19-.36.28-.55.09-.18.19-.36.28-.53.1-.18.2-.35.3-.53.1-.17.2-.35.31-.52.1-.17.22-.34.33-.51.11-.17.22-.34.33-.5.11-.17.23-.33.35-.49.12-.16.23-.33.36-.49.12-.16.25-.31.37-.47.13-.16.25-.32.38-.48.13-.15.25-.29.38-.44.29-.33.59-.66.9-.98.1-.11.21-.22.31-.33.15-.16.31-.3.47-.46.13-.12.26-.25.39-.38.16-.15.33-.29.49-.43.14-.12.28-.24.42-.36.16-.14.34-.27.51-.41.15-.11.29-.23.43-.34.17-.13.35-.26.53-.39.15-.11.29-.21.45-.32.18-.12.36-.24.54-.36.15-.1.31-.2.46-.3.19-.12.37-.23.56-.34.16-.09.32-.19.48-.28.19-.1.38-.21.58-.31.16-.09.33-.17.49-.25.2-.1.4-.19.6-.29.17-.08.34-.15.5-.23.21-.09.41-.18.61-.26.17-.07.34-.13.51-.2.21-.08.42-.16.63-.24.17-.06.34-.12.52-.18.22-.07.43-.14.65-.21.17-.05.35-.1.52-.15.22-.06.44-.12.67-.18.17-.04.35-.08.52-.12.23-.05.46-.11.69-.15.17-.03.35-.06.52-.09.24-.04.47-.09.71-.12.16-.02.32-.04.48-.06,1.1-.14,2.22-.23,3.36-.23.54,0,1.07.02,1.6.05.21-1.56.6-3.07,1.17-4.49.03-.09.07-.18.11-.27.06-.15.12-.29.19-.43.05-.11.09-.22.14-.32.07-.14.13-.28.2-.42.05-.1.11-.21.16-.32.07-.14.14-.27.22-.41.06-.11.12-.21.18-.32.13-.23.27-.46.41-.68.07-.1.13-.21.2-.32.08-.12.17-.25.25-.37.07-.1.15-.2.22-.31.09-.12.17-.24.26-.35.08-.1.16-.21.25-.31.08-.11.17-.22.26-.33.16-.19.32-.37.48-.55.09-.1.18-.2.27-.29.1-.1.19-.21.29-.31.1-.1.19-.19.29-.29.1-.1.21-.2.31-.3.1-.09.19-.18.28-.26.14-.13.28-.25.42-.37.12-.1.24-.2.36-.3.14-.12.29-.23.43-.34.1-.07.19-.14.29-.21.13-.09.26-.19.39-.28.1-.07.2-.13.3-.2.15-.1.3-.19.44-.28.09-.05.17-.11.25-.16.22-.14.46-.27.69-.39.08-.05.17-.09.25-.13.16-.09.33-.17.49-.25.1-.05.2-.09.3-.14.16-.08.33-.15.5-.22.09-.04.18-.08.28-.12.24-.1.48-.19.72-.28.04-.02.09-.03.13-.05.23-.09.48-.17.72-.24.09-.03.18-.06.27-.08.19-.06.37-.11.56-.16.1-.03.19-.05.29-.08.21-.05.42-.1.63-.14.07-.02.14-.03.22-.05.28-.06.56-.11.84-.15.07-.01.15-.02.22-.03.22-.03.44-.06.66-.08.1-.01.19-.02.29-.03.21-.02.41-.03.62-.05.09,0,.18-.01.27-.02.29-.01.59-.02.89-.02h0c.3,0,.6,0,.89.02.09,0,.18.01.27.02.21.01.42.03.63.05.1.01.19.02.28.03.23.02.45.05.67.08.07.01.13.02.2.03.29.04.57.09.85.15.07.01.13.03.2.04.22.05.43.1.65.15.09.02.18.05.28.07.2.05.39.11.58.17.08.02.17.05.25.08.26.08.52.17.77.26.01,0,.03,0,.04.01.26.1.52.2.78.31.08.03.17.07.25.11.18.08.35.16.53.24.09.04.18.09.27.13.18.09.36.18.54.28.07.04.14.07.21.11.24.13.47.26.71.41.07.04.14.09.21.13.17.1.33.21.5.32.09.06.18.12.26.18.15.1.29.2.43.31.08.06.17.12.25.19.17.13.35.27.52.41.07.05.14.11.2.17.18.15.35.3.53.46.08.07.16.15.24.23.12.11.24.23.36.34.08.08.17.17.25.25.12.12.23.24.35.36.08.08.15.16.22.24.17.19.34.38.5.58.07.08.14.17.21.26.1.13.2.26.3.39.08.1.15.2.23.31.09.12.18.24.26.37.07.1.14.21.22.31.09.14.19.29.28.43.09.15.18.29.27.44.09.16.19.32.28.48.06.12.12.23.18.35.07.13.14.26.2.39.06.12.12.24.18.36.06.14.12.27.18.41.05.12.1.23.16.35.1.23.19.46.28.7h0c.48,1.3.82,2.66,1.01,4.08.53-.03,1.06-.05,1.59-.05,1.13,0,2.23.08,3.32.22.17.02.35.04.52.07.23.03.46.08.68.12.18.03.37.06.55.1.22.04.44.1.66.14.19.04.37.08.56.13.21.05.43.11.64.17.18.05.37.1.56.16.21.06.41.13.62.2.18.06.37.12.55.19.2.07.4.15.6.22.18.07.36.14.55.21.2.08.39.16.58.25.18.08.36.16.53.24.19.09.38.18.57.27.18.09.35.18.53.27.18.1.36.19.54.29.17.1.35.2.51.3.18.1.35.21.52.31.17.11.34.22.51.33.17.11.34.22.5.33.17.12.33.23.5.36.16.11.32.23.48.35.17.13.33.26.5.39.15.12.3.24.44.36.17.14.34.29.5.43.13.12.27.23.41.36.18.17.36.34.54.51.11.11.22.21.33.32.28.28.56.57.82.86.07.08.14.16.21.24.2.22.39.44.58.67.1.12.19.24.29.36.16.19.31.39.46.59.1.13.2.27.29.4.14.19.28.38.41.58.1.14.19.29.28.43.13.19.26.39.38.58.09.15.18.3.27.45.12.2.23.4.34.6.09.16.17.31.25.47.11.2.21.41.31.61.08.16.16.32.23.48.1.21.19.42.28.63.07.16.14.33.21.49.09.21.18.43.26.65.06.17.12.33.18.5.08.22.15.44.22.67.06.17.11.34.16.51.07.23.13.46.19.69.05.17.09.34.14.5.06.24.11.48.16.72.04.17.08.33.11.5.05.25.09.5.13.76.03.16.06.32.08.48.04.27.07.54.1.82.02.15.04.29.05.44.03.31.05.63.07.95,0,.11.02.22.02.33.02.43.03.86.03,1.3s-.01.87-.03,1.3c0,.11-.01.22-.02.33ZM140,130.96c.83,0,1.51-.68,1.51-1.51s-.68-1.51-1.51-1.51-1.51.68-1.51,1.51.67,1.51,1.51,1.51ZM146.15,125.71h-3.66v8.34h-1.25c-.35-.27-.79-.43-1.26-.43s-.92.16-1.27.43h-1.2v-8.34h-3.66v25.46h-1.5v3.73h15.29v-3.73h-1.5v-25.46ZM142.49,151.17h-4.97v-2.38h4.97v2.38ZM142.49,147.15h-4.97v-11.56h1.4c.06-.53.51-.95,1.06-.95s1,.42,1.06.95h1.45v11.56ZM146.11,120.37h-3.04v-2.41h-.84v-1.54h.81v-1.39h-.81v-.22c0-1.12-.83-2.04-1.9-2.21v-3.87h-.66v3.87c-1.08.16-1.9,1.09-1.9,2.21v.22h-.81v1.39h.81v1.54h-.84v2.41h-3.04v2.27h-1.5v1.46h15.21v-1.46h-1.5v-2.27ZM139.31,120.37h-.86v-2.41h.86v2.41ZM141.56,120.37h-.86v-2.41h.86v2.41ZM160.5,119.81h-3.39c-.23-9.25-7.8-16.68-17.11-16.68s-16.87,7.43-17.11,16.68h-3.39c-13.07,0-23.66,10.59-23.66,23.66s10.59,23.66,23.66,23.66h3.39c.23,9.25,7.8,16.68,17.11,16.68s16.87-7.43,17.11-16.68h3.39c13.07,0,23.66-10.59,23.66-23.66s-10.6-23.66-23.66-23.66ZM119.67,151.1c-1.37-1.19-3.07-2.03-4.94-2.35h9.52c-1.88,0-3.55.93-4.58,2.35ZM120.81,152.26c.72-1.15,1.99-1.91,3.45-1.91,2.25,0,4.07,1.82,4.07,4.07h0v4.62h-5.14c0-.07,0-.14,0-.22,0-2.5-.9-4.78-2.38-6.56ZM128.33,160.64v9.78h-2.19v-6.3h0c0-1.33-.48-2.54-1.28-3.47h3.47ZM140,182.29c-6.74,0-12.48-4.29-14.66-10.28h29.31c-2.17,5.99-7.91,10.28-14.66,10.28ZM135.92,170.41v-8.05c.35-2.05,2.09-3.62,4.18-3.62,1.92,0,3.55,1.34,4.06,3.15v8.52h-8.24ZM153.85,164.11h0v6.3h-2.26v-9.78h3.54c-.8.94-1.28,2.15-1.28,3.47ZM156.79,158.82c0,.07,0,.15,0,.22h-5.2v-4.62h0c0-2.25,1.82-4.07,4.07-4.07,1.47,0,2.76.79,3.48,1.96-1.47,1.77-2.35,4.04-2.35,6.51ZM160.28,151.13c-1.03-1.44-2.7-2.38-4.6-2.38h9.58c-1.89.33-3.6,1.17-4.98,2.38ZM178.55,135.29c-5.48,0-10.1,3.73-11.44,8.8h-20.42v1.6h20.12c-.06.47-.09.95-.09,1.44,0,0,0,.02,0,.03h-20.03v1.6h8.97c-3.13,0-5.66,2.54-5.66,5.67h0v15.99h-2.21v-13.81h1.36v-1.07h-4.99v3.8c-.69-.79-1.6-1.38-2.62-1.66v-1.21h.58v-.94h-4.25v.94h.58v1.28c-.99.32-1.86.93-2.52,1.73v-3.91h-5.07v1.05h1.38v13.81h-2.3v-15.99h0c0-3.13-2.53-5.66-5.66-5.67h9.03v-1.6h-20.03v-.03c0-.49-.03-.96-.09-1.44h20.11v-1.6h-20.42c-1.34-5.06-5.95-8.8-11.44-8.8-.81,0-1.61.08-2.37.24,3.18-8.18,11.12-13.97,20.42-13.98h4.92v-1.31h0c0-8.61,6.98-15.59,15.59-15.59s15.59,6.98,15.59,15.59v1.31h4.91c9.3,0,17.24,5.8,20.42,13.98-.77-.16-1.57-.24-2.38-.24ZM138.62,174.16h-2.81l-.66,2.03h2.26l-.09.81h-2.45l-.3.93h3.77l.29-3.77ZM137.54,175.5h-1.27l.18-.68,1.23-.02-.13.69ZM146.73,176.93l.47,1,1.4-.06-.54-.87.64-.03-.55-.94h-.78l-.95-1.87h-.97l-.99,1.77.35,1h1.9ZM145.92,175.16l.39.84h-.81l.42-.84ZM134.3,174.16h-1.1l-1.71,3.77h1.52l1.29-3.77ZM139.81,177.93h3.84l-.25-.97h-1.52l1.19-1.06-.4-1.74h-2.84l-.02,1.45h1.1l-.09-.58h1.03l.06.64-2.06,1.26-.05,1Z"/>
  </g>
</svg>